<?xml version="1.0" encoding="UTF-8"?>
<svg id="Réteg_2" xmlns="http://www.w3.org/2000/svg" viewBox="0 0 164.4 163.98">
  <defs>
    <style>
      .cls-1 {
        stroke: #fff;
      }

      .cls-1, .cls-2 {
        fill: none;
        stroke-linecap: round;
        stroke-linejoin: round;
        stroke-width: 2px;
      }

      .cls-2 {
        stroke: #f7c82a;
      }
    </style>
  </defs>
  <g id="Réteg_1">
    <g>
      <g>
        <g>
          <g>
            <polyline class="cls-1" points="87.36 111.65 87.36 154.66 21.27 117.04 21.27 74.49"/>
            <polyline class="cls-1" points="132.82 128.4 152.46 117.05 152.46 69.55"/>
            <polyline class="cls-1" points="114.86 138.77 87.37 154.68 87.37 111.65"/>
          </g>
          <g>
            <g>
              <polyline class="cls-1" points="163.4 63.1 124.55 42.79 51.82 1"/>
              <line class="cls-2" x1="13.4" y1="64.63" x2="86.14" y2="106.41"/>
            </g>
            <g>
              <polygon class="cls-1" points="157.97 66.45 163.4 63.1 124.55 42.79 124.82 49.46 157.97 66.45"/>
              <polyline class="cls-1" points="163.4 63.1 90.66 21.32 51.82 1 13.4 64.63"/>
              <polygon class="cls-1" points="92.1 103.56 86.14 106.41 124.55 42.79 124.82 49.46 92.1 103.56"/>
            </g>
          </g>
        </g>
        <g>
          <g>
            <polyline class="cls-1" points="30.94 80.74 30.94 102.45 42.06 108.81 42.06 87.1"/>
            <polyline class="cls-1" points="47.86 90.36 47.86 112.07 58.99 118.43 58.99 96.72"/>
            <polyline class="cls-1" points="64.74 99.93 64.74 121.63 75.86 127.99 75.86 106.29"/>
          </g>
          <g>
            <g>
              <polyline class="cls-1" points="144.89 79.53 144.89 101.01 133.76 107.37 133.76 85.89"/>
              <polyline class="cls-1" points="109.56 100.04 109.56 121.52 98.44 127.88 98.44 106.4"/>
            </g>
            <g>
              <g>
                <polygon class="cls-1" points="123.65 143.76 136.94 136.09 136.94 130.51 123.65 138.18 123.65 143.76"/>
                <polygon class="cls-1" points="119.26 135.92 132.55 128.25 132.55 122.68 119.26 130.35 119.26 135.92"/>
                <polygon class="cls-1" points="119.26 135.92 132.55 128.25 136.94 130.51 123.65 138.18 119.26 135.92"/>
                <polygon class="cls-1" points="114.87 128.09 128.16 120.43 132.55 122.68 119.26 130.35 114.87 128.09"/>
                <polygon class="cls-1" points="114.87 128.09 114.87 138.89 123.65 143.76 123.65 138.18 119.26 135.92 119.26 130.35 114.87 128.09"/>
              </g>
              <g>
                <polygon class="cls-1" points="114.87 128.09 128.16 120.43 128.16 89.71 114.87 97.38 114.87 128.09"/>
                <path class="cls-1" d="M117.11,110.59c0,.58.47,1.06,1.06,1.06s1.06-.47,1.06-1.06c0-.58-.47-1.06-1.06-1.06s-1.06.47-1.06,1.06Z"/>
              </g>
            </g>
          </g>
        </g>
      </g>
      <line class="cls-1" x1="153" y1="63.87" x2="97.15" y2="95.18"/>
    </g>
    <line class="cls-2" x1="13.4" y1="120.43" x2="86.14" y2="162.98"/>
    <line class="cls-2" x1="9.34" y1="64.63" x2="1" y2="64.63"/>
    <line class="cls-2" x1="1" y1="120.43" x2="9.34" y2="120.43"/>
    <line class="cls-2" x1="5.17" y1="64.63" x2="5.17" y2="120.43"/>
  </g>
</svg>