<?xml version="1.0" encoding="UTF-8"?>
<svg id="Réteg_2" xmlns="http://www.w3.org/2000/svg" viewBox="0 0 133.19 173.71">
  <defs>
    <style>
      .cls-1 {
        fill: #f7c82a;
      }

      .cls-2 {
        fill: none;
        stroke: #fff;
        stroke-linecap: round;
        stroke-linejoin: round;
        stroke-width: 2px;
      }
    </style>
  </defs>
  <g id="Réteg_1">
    <g>
      <g>
        <path class="cls-2" d="M127.14,139.48c3.12-1.78,5.05-5.1,5.05-8.69V48.62c0-3.31-1.63-6.4-4.36-8.26L72.7,2.74c-3.38-2.31-7.82-2.32-11.21-.04L5.42,40.35c-2.77,1.86-4.42,4.97-4.42,8.3v82.19c0,3.57,1.9,6.87,4.99,8.66l14.64,8.47,17.96,10.37,22.53,13.04c3.08,1.78,6.87,1.79,9.96.04l56.06-31.92Z"/>
        <ellipse class="cls-2" cx="46.95" cy="51.96" rx="13.15" ry="7.66"/>
        <path class="cls-2" d="M33.8,56.27c0,4.23,5.89,7.66,13.15,7.66s13.15-3.43,13.15-7.66"/>
        <ellipse class="cls-2" cx="86.25" cy="30.01" rx="13.15" ry="7.66"/>
        <path class="cls-2" d="M73.1,34.33c0,4.23,5.89,7.66,13.15,7.66s13.15-3.43,13.15-7.66"/>
        <line class="cls-2" x1="33.8" y1="51.96" x2="33.8" y2="56.27"/>
        <line class="cls-2" x1="60.1" y1="51.96" x2="60.1" y2="56.27"/>
        <line class="cls-2" x1="73.1" y1="30.01" x2="73.1" y2="34.33"/>
        <line class="cls-2" x1="99.4" y1="30.01" x2="99.4" y2="34.33"/>
        <line class="cls-2" x1="49.41" y1="49.86" x2="44.48" y2="52.63"/>
        <line class="cls-2" x1="49.23" y1="52.9" x2="44.66" y2="49.58"/>
        <line class="cls-2" x1="88.71" y1="27.92" x2="83.78" y2="30.69"/>
      </g>
      <path class="cls-1" d="M95.39,134.31l4.22-16.18h-13.82c-.35,0-.56-.4-.36-.69l18.37-26.56c.28-.4.91-.11.78.36l-4.23,16.27h13.83c.35,0,.56.4.36.69l-18.37,26.48c-.28.4-.91.11-.78-.36Z"/>
      <polyline class="cls-2" points="130.69 44.3 66.09 85.42 2 44.3"/>
      <line class="cls-2" x1="66.09" y1="172.71" x2="66.09" y2="85.42"/>
    </g>
  </g>
</svg>