<?xml version="1.0" encoding="UTF-8"?>
<svg id="Réteg_2" xmlns="http://www.w3.org/2000/svg" viewBox="0 0 129.61 129.61">
  <defs>
    <style>
      .cls-1, .cls-2 {
        fill: none;
      }

      .cls-2 {
        stroke: #fff;
        stroke-linecap: round;
        stroke-linejoin: round;
        stroke-width: 2px;
      }
    </style>
  </defs>
  <g id="Réteg_1">
    <g>
      <rect class="cls-1" width="129.61" height="129.61"/>
      <rect class="cls-2" x="25.31" y="37.91" width="78.98" height="53.79"/>
      <path class="cls-2" d="M28.4,68.11l5.65-5.65c2.4-2.4,6.28-2.4,8.68,0l.63.63c2.4,2.4,6.28,2.4,8.68,0l.57-.57c2.4-2.4,6.28-2.4,8.68,0l.68.68c2.4,2.4,6.28,2.4,8.68,0h0c2.4-2.4,6.28-2.4,8.68,0l.51.51c2.4,2.4,6.28,2.4,8.68,0h0c2.4-2.4,6.28-2.4,8.68,0l4,4"/>
      <path class="cls-2" d="M66.36,77.52l-.11-.12c-.16-.2-.34-.38-.55-.55-1.01-.89-2.34-1.43-3.8-1.43-3.2,0-5.79,2.59-5.79,5.78s2.59,5.79,5.79,5.79c1.5,0,2.88-.57,3.9-1.53.13-.1.26-.23.36-.36h.01"/>
      <polyline class="cls-2" points="73.57 77.7 70.06 81.21 66.16 85.1 65.8 85.46"/>
      <polyline class="cls-2" points="73.57 84.71 70.06 81.21 66.25 77.4 65.7 76.85"/>
      <circle class="cls-2" cx="61.33" cy="79.84" r=".15"/>
      <circle class="cls-2" cx="52.53" cy="75.42" r="2.21"/>
      <circle class="cls-2" cx="56.94" cy="68.58" r="2.94"/>
    </g>
  </g>
</svg>