<?xml version="1.0" encoding="UTF-8"?>
<svg id="Réteg_2" xmlns="http://www.w3.org/2000/svg" viewBox="0 0 129.61 129.61">
  <defs>
    <style>
      .cls-1, .cls-2, .cls-3 {
        fill: none;
      }

      .cls-2 {
        stroke-width: 2px;
      }

      .cls-2, .cls-3 {
        stroke: #fff;
        stroke-linecap: round;
        stroke-linejoin: round;
      }
    </style>
  </defs>
  <g id="Réteg_1">
    <g>
      <rect class="cls-1" width="129.61" height="129.61"/>
      <rect class="cls-2" x="25.31" y="37.91" width="78.98" height="53.79"/>
      <g>
        <ellipse class="cls-3" cx="64.8" cy="69.66" rx="3.17" ry="3.13"/>
        <polyline class="cls-3" points="64.81 72.79 64.81 76.81 64.81 79.64 64.81 81.67"/>
        <polyline class="cls-3" points="64.81 66.53 64.81 62.63 64.81 59.69 64.81 57.65"/>
        <polyline class="cls-3" points="62.56 71.87 59.83 74.57 57.8 76.57 56.21 78.15"/>
        <polyline class="cls-3" points="67.04 67.45 69.71 64.8 71.78 62.76 73.4 61.16"/>
        <polyline class="cls-3" points="67.04 71.87 69.72 74.52 71.89 76.66 73.4 78.15"/>
        <polyline class="cls-3" points="62.56 67.45 59.95 64.86 57.78 62.72 56.21 61.16"/>
        <polyline class="cls-3" points="76.96 69.66 74.9 69.66 71.84 69.66 67.97 69.66"/>
        <polyline class="cls-3" points="52.65 69.66 54.96 69.66 57.95 69.66 61.64 69.66"/>
        <polyline class="cls-3" points="59.95 60.33 59.95 64.86 55.39 64.84"/>
        <polyline class="cls-3" points="74.19 64.8 69.61 64.8 69.63 60.3"/>
        <polyline class="cls-3" points="68 59.47 64.76 62.67 61.55 59.47"/>
        <polyline class="cls-3" points="69.72 79.04 69.72 74.51 74.29 74.53"/>
        <polyline class="cls-3" points="54.75 66.49 57.99 69.69 54.75 72.86"/>
        <polyline class="cls-3" points="75.05 72.89 71.8 69.69 75.05 66.51"/>
        <polyline class="cls-3" points="55.48 74.57 60.06 74.57 60.04 79.08"/>
        <polyline class="cls-3" points="61.67 79.9 64.91 76.7 68.12 79.9"/>
      </g>
      <line class="cls-2" x1="29.81" y1="46.76" x2="99.77" y2="46.76"/>
    </g>
  </g>
</svg>