<?xml version="1.0" encoding="UTF-8"?>
<svg id="Réteg_2" xmlns="http://www.w3.org/2000/svg" viewBox="0 0 129.61 129.61">
  <defs>
    <style>
      .cls-1, .cls-2 {
        fill: none;
      }

      .cls-2 {
        stroke: #fff;
        stroke-linecap: round;
        stroke-linejoin: round;
        stroke-width: 2px;
      }
    </style>
  </defs>
  <g id="Réteg_1">
    <g>
      <rect class="cls-1" width="129.61" height="129.61"/>
      <rect class="cls-2" x="36.89" y="37.91" width="55.82" height="63.49"/>
      <rect class="cls-2" x="32.12" y="28.54" width="65.36" height="9.37"/>
      <rect class="cls-2" x="32.12" y="101.4" width="65.36" height="9.37"/>
      <line class="cls-2" x1="54.59" y1="37.91" x2="54.59" y2="101.4"/>
      <line class="cls-2" x1="59.27" y1="63.75" x2="59.27" y2="75.56"/>
      <path class="cls-2" d="M61.83,50.36c1.05-1.05,2.74-1.05,3.79,0l.04.04c1.05,1.05,2.74,1.05,3.79,0h0c1.05-1.05,2.74-1.05,3.79,0h0c1.05,1.05,2.74,1.05,3.79,0"/>
      <path class="cls-2" d="M69.87,54.49c1.05-1.05,2.74-1.05,3.79,0l.04.04c1.05,1.05,2.74,1.05,3.79,0h0c1.05-1.05,2.74-1.05,3.79,0h0c1.05,1.05,2.74,1.05,3.79,0"/>
      <path class="cls-2" d="M61.83,86.74c1.05-1.05,2.74-1.05,3.79,0l.04.04c1.05,1.05,2.74,1.05,3.79,0h0c1.05-1.05,2.74-1.05,3.79,0h0c1.05,1.05,2.74,1.05,3.79,0"/>
      <path class="cls-2" d="M69.87,90.87c1.05-1.05,2.74-1.05,3.79,0l.04.04c1.05,1.05,2.74,1.05,3.79,0h0c1.05-1.05,2.74-1.05,3.79,0h0c1.05,1.05,2.74,1.05,3.79,0"/>
    </g>
  </g>
</svg>