<?xml version="1.0" encoding="UTF-8"?>
<svg id="Réteg_2" xmlns="http://www.w3.org/2000/svg" viewBox="0 0 129.61 129.61">
  <defs>
    <style>
      .cls-1, .cls-2 {
        fill: none;
      }

      .cls-2 {
        stroke: #fff;
        stroke-linecap: round;
        stroke-linejoin: round;
        stroke-width: 2px;
      }
    </style>
  </defs>
  <g id="Réteg_1">
    <g>
      <rect class="cls-1" width="129.61" height="129.61"/>
      <g>
        <line class="cls-2" x1="42.77" y1="44.43" x2="35.79" y2="44.43"/>
        <polyline class="cls-2" points="86.84 44.43 93.75 44.43 93.75 44.52"/>
        <line class="cls-2" x1="78.59" y1="73.11" x2="51.02" y2="73.11"/>
        <line class="cls-2" x1="75.18" y1="44.43" x2="54.43" y2="44.43"/>
        <path class="cls-2" d="M35.79,44.43l-10.68,31.54c-1.37,4.05.19,8.52,3.79,10.83h0c3.94,2.54,9.16,1.75,12.17-1.84l9.95-11.84"/>
        <path class="cls-2" d="M93.75,44.52l.07-.09,10.68,31.54c1.37,4.05-.19,8.52-3.79,10.83h0c-3.94,2.54-9.16,1.75-12.17-1.84l-9.95-11.84"/>
        <polyline class="cls-2" points="42.77 44.43 42.77 41.32 54.43 41.32 54.43 44.43"/>
        <polyline class="cls-2" points="75.18 44.43 75.18 41.32 86.84 41.32 86.84 44.43"/>
        <polyline class="cls-2" points="49.84 56.81 54.43 56.81 54.43 61.83 49.84 61.83"/>
        <polyline class="cls-2" points="44.81 61.83 40.22 61.83 40.22 56.81 44.81 56.81"/>
        <polyline class="cls-2" points="44.81 56.81 44.81 52.22 49.84 52.22 49.84 56.81"/>
        <polyline class="cls-2" points="49.84 61.83 49.84 66.43 44.81 66.43 44.81 61.83"/>
        <circle class="cls-2" cx="84.21" cy="53.12" r="2.63"/>
        <circle class="cls-2" cx="84.21" cy="65.53" r="2.63"/>
        <circle class="cls-2" cx="90.15" cy="59.29" r="2.63"/>
        <circle class="cls-2" cx="77.81" cy="59.29" r="2.63"/>
      </g>
    </g>
  </g>
</svg>