<?xml version="1.0" encoding="UTF-8"?>
<svg id="Réteg_2" xmlns="http://www.w3.org/2000/svg" viewBox="0 0 129.61 129.61">
  <defs>
    <style>
      .cls-1, .cls-2 {
        fill: none;
      }

      .cls-2 {
        stroke: #fff;
        stroke-linecap: round;
        stroke-linejoin: round;
        stroke-width: 2px;
      }
    </style>
  </defs>
  <g id="Réteg_1">
    <g>
      <rect class="cls-1" width="129.61" height="129.61"/>
      <g>
        <rect class="cls-2" x="14.25" y="33.06" width="29.25" height="63.49"/>
        <rect class="cls-2" x="50.52" y="62.5" width="48.39" height="34.05"/>
        <rect class="cls-2" x="50.52" y="91.57" width="48.39" height="4.98"/>
        <circle class="cls-2" cx="28.87" cy="49.08" r="7.63"/>
        <circle class="cls-2" cx="28.87" cy="85.35" r="2.15"/>
        <line class="cls-2" x1="21.24" y1="63.37" x2="36.5" y2="63.37"/>
        <line class="cls-2" x1="22.34" y1="45.76" x2="35.39" y2="45.76"/>
        <line class="cls-2" x1="22.34" y1="49.23" x2="35.39" y2="49.23"/>
        <line class="cls-2" x1="22.34" y1="52.7" x2="35.39" y2="52.7"/>
        <line class="cls-2" x1="21.24" y1="66.57" x2="36.5" y2="66.57"/>
        <line class="cls-2" x1="21.24" y1="69.89" x2="36.5" y2="69.89"/>
        <line class="cls-2" x1="21.24" y1="73.2" x2="36.5" y2="73.2"/>
        <g>
          <line class="cls-2" x1="22.9" y1="92.98" x2="25.06" y2="92.98"/>
          <line class="cls-2" x1="27.71" y1="92.98" x2="29.86" y2="92.98"/>
          <line class="cls-2" x1="32.68" y1="92.98" x2="34.84" y2="92.98"/>
        </g>
        <g>
          <line class="cls-2" x1="53.22" y1="90.87" x2="55.02" y2="90.87"/>
          <line class="cls-2" x1="57.24" y1="90.87" x2="59.04" y2="90.87"/>
          <line class="cls-2" x1="61.39" y1="90.87" x2="63.2" y2="90.87"/>
        </g>
        <g>
          <line class="cls-2" x1="65.66" y1="90.87" x2="67.47" y2="90.87"/>
          <line class="cls-2" x1="69.68" y1="90.87" x2="71.49" y2="90.87"/>
          <line class="cls-2" x1="73.84" y1="90.87" x2="75.64" y2="90.87"/>
        </g>
        <g>
          <line class="cls-2" x1="77.97" y1="90.87" x2="79.77" y2="90.87"/>
          <line class="cls-2" x1="81.99" y1="90.87" x2="83.79" y2="90.87"/>
          <line class="cls-2" x1="86.15" y1="90.87" x2="87.95" y2="90.87"/>
        </g>
        <g>
          <line class="cls-2" x1="90.2" y1="90.87" x2="92.01" y2="90.87"/>
          <line class="cls-2" x1="94.22" y1="90.87" x2="96.03" y2="90.87"/>
        </g>
        <path class="cls-2" d="M118.71,96.55h-13.87c0-3.83,3.1-6.93,6.94-6.93s6.94,3.1,6.94,6.93Z"/>
      </g>
    </g>
  </g>
</svg>