<svg xmlns="http://www.w3.org/2000/svg" xmlns:xlink="http://www.w3.org/1999/xlink" id="R&#xE9;teg_1" x="0px" y="0px" viewBox="0 0 290.2 139.9" style="enable-background:new 0 0 290.2 139.9;" xml:space="preserve"> <style type="text/css"> .st0{clip-path:url(#SVGID_2_);} .st1{clip-path:url(#SVGID_4_);} .st2{fill:#8DC046;} .st3{fill:#F5C53C;} .st4{fill:#FFFFFF;} .st5{fill:#8EC34B;} .st6{clip-path:url(#SVGID_6_);} .st7{fill:url(#SVGID_7_);} </style> <g id="Layer_2"> <g id="Layer_1-2"> <g> <defs> <rect id="SVGID_1_" x="-3" y="-3.6" width="297.7" height="147.7"></rect> </defs> <clipPath id="SVGID_2_"> <use xlink:href="#SVGID_1_" style="overflow:visible;"></use> </clipPath> <g class="st0"> <g> <defs> <rect id="SVGID_3_" x="-3" y="-3.6" width="297.7" height="147.7"></rect> </defs> <clipPath id="SVGID_4_"> <use xlink:href="#SVGID_3_" style="overflow:visible;"></use> </clipPath> <g class="st1"> <path class="st2" d="M126.3,111.1l-0.3,2.5c-2.2,0-3.5,0.4-3.7,1.1v0.2c0.8,0.9,1.2,2,1.2,3.2c0.1,1.7-0.6,3.4-1.8,4.6 c-1.2,1.2-3.1,1.8-5.7,1.8c-0.9,0-1.8-0.1-2.7-0.4c-0.5,0.3-0.9,0.9-0.9,1.6c-0.1,0.7,0.4,1.3,1,1.5c1.8,0.4,3.7,0.6,5.6,0.5 c4.6,0,6.8,1.5,6.8,4.5c0,2.1-1,4.1-2.7,5.4c-2,1.5-4.4,2.2-6.9,2.1c-2.9,0-4.9-0.5-6.2-1.6c-1.2-0.9-1.8-2.3-1.8-3.8 c-0.1-1.1,0.3-2.3,0.9-3.2c0.5-0.8,1.3-1.3,2.3-1.5v-0.2c-1-0.5-1.5-1.5-1.4-2.6c0-1.3,0.7-2.4,1.8-3.1v-0.1 c-0.7-0.4-1.3-0.9-1.8-1.6c-0.6-0.8-0.9-1.8-0.9-2.8c-0.1-1.7,0.6-3.4,1.9-4.7c1.5-1.3,3.5-1.9,5.5-1.8 c1.6-0.1,3.2,0.3,4.6,1.1h0.2c0.4-2,1.4-3,3-3c0.7,0,1.4,0.1,2,0.3 M123.1,133.5c0.1-1-0.4-1.9-1.2-2.4 c-1.5-0.6-3.1-0.8-4.6-0.7c-1.4,0-2.8-0.1-4.2-0.2c-1.3,0.5-2.2,1.7-2.2,3.1c0,2.9,1.9,4.4,5.8,4.4c1.7,0.1,3.3-0.3,4.8-1.2 C122.4,135.9,123.1,134.7,123.1,133.5 M120.6,118.8c0.1-1.1-0.4-2.2-1.3-3c-0.9-0.7-2-1.1-3.2-1c-1.1,0-2.2,0.3-3,1 c-0.8,0.7-1.3,1.8-1.2,2.9c-0.1,1.1,0.4,2.3,1.3,3c0.9,0.7,2.1,1.1,3.2,1c1.1,0,2.2-0.3,3-1 C120.2,121,120.7,119.9,120.6,118.8"></path> <path class="st2" d="M133.5,118c-0.1-3.7,2.7-6.8,6.4-6.9c0.2,0,0.4,0,0.5,0c0.7,0,1.5,0.1,2.2,0.2l-0.4,2.2 c-0.6-0.1-1.1-0.2-1.7-0.2c-2.4-0.1-4.4,1.8-4.5,4.2c0,0.2,0,0.3,0,0.5v12.4h-2.4V118z"></path> <path class="st2" d="M149.5,118.6c0-4.9,3.2-7.5,7-7.5c3.7-0.1,6.8,2.7,7,6.5c0,0.1,0,0.2,0,0.4v3.8h-11.6v1.6 c0,3.8,2,5.4,4.9,5.4c1.7,0,3.4-0.3,5-0.9l0.5,2.2c-1.8,0.6-3.6,0.9-5.5,0.9c-4.3,0-7.4-2.6-7.4-7.7L149.5,118.6z M161.1,119.6v-1.6c0.1-2.4-1.8-4.5-4.2-4.6c-0.1,0-0.3,0-0.4,0c-2.6,0-4.6,1.7-4.6,5.3v0.9L161.1,119.6z"></path> <path class="st2" d="M171.8,118.6c0-4.9,3.2-7.5,7-7.5c3.7-0.1,6.9,2.8,7,6.5c0,0.1,0,0.2,0,0.3v3.8h-11.6v1.6 c0,3.8,1.9,5.4,4.9,5.4c1.7,0,3.4-0.3,5-0.9l0.5,2.2c-1.8,0.6-3.7,0.9-5.5,0.9c-4.3,0-7.4-2.6-7.4-7.7L171.8,118.6z M183.4,119.6v-1.6c0.1-2.4-1.8-4.5-4.2-4.6c-0.1,0-0.3,0-0.4,0c-2.6,0-4.6,1.7-4.6,5.3v0.9L183.4,119.6z"></path> <path class="st2" d="M194.7,118.6c0-4.9,3.2-7.5,7-7.5s7,2.6,7,7.5v11.8h-2.4v-11.6c0-3.6-1.9-5.4-4.5-5.4s-4.6,1.8-4.6,5.4 v11.6h-2.4V118.6z"></path> <polygon class="st3" points="219,113.5 216.6,113.5 215.8,111.6 219,111.6 219,106.1 221.4,105.4 221.4,111.6 225.4,111.6 225.4,113.5 221.4,113.5 221.4,130.4 219,130.4 "></polygon> <path class="st3" d="M232.2,118.6c0-4.9,3.2-7.5,7-7.5c3.7-0.1,6.9,2.8,7,6.5c0,0.1,0,0.2,0,0.3v3.8h-11.6v1.6 c0,3.8,2,5.4,4.9,5.4c1.7,0,3.4-0.3,5.1-0.9l0.5,2.2c-1.8,0.6-3.6,0.9-5.5,0.9c-4.3,0-7.4-2.6-7.4-7.7L232.2,118.6z M243.8,119.6v-1.6c0.1-2.4-1.8-4.5-4.2-4.6c-0.1,0-0.3,0-0.4,0c-2.6,0-4.6,1.7-4.6,5.3v0.9L243.8,119.6z"></path> <path class="st3" d="M254.5,119.4c0-5.6,3.1-8.2,7.6-8.2c1.8,0,3.5,0.3,5.2,0.8l-0.4,2.2c-1.6-0.5-3.2-0.7-4.8-0.8 c-3.5,0-5.2,1.9-5.2,6.2v2.7c0,4.3,1.7,6.3,5.2,6.3c1.6,0,3.2-0.3,4.8-0.7l0.4,2.1c-1.7,0.5-3.5,0.8-5.2,0.8 c-4.5,0-7.6-2.6-7.6-8.3V119.4z"></path> <path class="st3" d="M276.2,103.5h2.4v9.2c1.5-1,3.2-1.5,4.9-1.6c3.8,0,6.7,2,6.7,7.5v11.8h-2.4v-11.6c0-4.2-1.9-5.4-4.5-5.4 c-1.7,0.1-3.3,0.6-4.7,1.6v15.4h-2.4V103.5z"></path> <path class="st4" d="M117,96.2h-7.9V53h20.1c6.6,0,9.4,0.8,12.1,3.4c2.7,2.7,4.1,6.5,4,10.3c0,4.5-1.7,8.7-4.5,11.1 c-2.4,2.1-5.5,2.8-11.2,2.8H117V96.2z M128.8,74.4c2.9,0,4.7-0.4,5.8-1.6s2.1-3.5,2.1-6.1c0.1-2.3-0.8-4.5-2.6-6 c-1.1-0.8-2.6-1.2-5.4-1.2H117v14.9H128.8z"></path> <path class="st4" d="M158.4,96.2h-7.9V53h20.2c6.1,0,9.8,0.7,12.2,2.3c3.2,2.2,5,5.8,4.9,9.7c0.1,3.3-1.1,6.6-3.4,9 c-1.5,1.4-3.3,2.4-5.2,2.8c5.4,1.9,7.5,5.4,7.9,12.7c0.3,4.6,0.4,5,1.1,6.6h-8.5c-0.2-0.6-0.4-1.2-0.5-1.9 c0-0.4-0.1-1.2-0.2-2.3l-0.2-2.1c-0.8-8.5-4.1-11.3-13.3-11.2h-7.1L158.4,96.2z M170.9,72.2c3.1,0,4.9-0.3,6-1.2 c1.6-1.3,2.5-3.3,2.3-5.3c0-2.7-1-4.7-2.9-5.6c-1-0.5-2.5-0.7-5.4-0.7h-12.5v12.7L170.9,72.2z"></path> <path class="st4" d="M234.6,75c0,14.2-7.2,21.7-20.9,21.7c-7.6,0-13.6-2.4-16.9-6.7c-2.7-3.4-4.3-9.1-4.3-15.2 c0-7.2,1.9-13.2,5.4-16.6c3.7-3.7,9.1-5.6,15.9-5.6C227.9,52.6,234.6,59.8,234.6,75 M201.1,74.4c0,11,3.8,15.9,12.5,15.9 S226,85.6,226,74.8c0-11.1-3.8-15.9-12.2-15.9C205,58.9,201.1,63.7,201.1,74.4"></path> <path class="st4" d="M274.2,77.7h-25.5v18.4h-7.9V71.8c0-8.9,1.4-12.6,6.1-15.9c3.3-2.1,6.9-2.9,13.6-2.8h13.7v6.5h-13.5 c-8.2-0.1-11.8,2.7-12,9.4v2.4h25.5L274.2,77.7z"></path> <rect x="281.1" y="53" class="st4" width="7.9" height="43.1"></rect> <path class="st5" d="M15.2,125.8l64.3-64.3c-0.1-0.1-0.3-0.3-0.4-0.4l-64.3,64.3C14.9,125.5,15.1,125.6,15.2,125.8"></path> <path class="st5" d="M73.1,132.7v0.4c2.6-1.6,5-3.5,7.2-5.7l-1.9-0.1L73.1,132.7z"></path> <path class="st5" d="M80.9,124.9l0.1,1.9c2.2-2.2,4.1-4.6,5.7-7.2h-0.5L80.9,124.9z"></path> <path class="st5" d="M57.3,135.4l-2.4-0.1l-4.7,4.6c1.7,0,3.4-0.2,5-0.4l3.1-3.1L57.3,135.4z"></path> <path class="st5" d="M55.8,139.4c1.6-0.2,3.1-0.5,4.6-0.9l-1.9-1.9L55.8,139.4z"></path> <path class="st5" d="M69.2,131.6l-6.2,6.2c2.5-0.8,5-1.8,7.3-3l-0.1-2.2L69.2,131.6z"></path> <polygon class="st5" points="65.1,127.5 62.8,127.4 57.4,132.7 57.5,135 58.6,136.1 66.2,128.6 "></polygon> <path class="st5" d="M66.4,128.8l-7.6,7.6l2,2c0.5-0.1,1-0.3,1.5-0.4l6.7-6.6L66.4,128.8z"></path> <polygon class="st5" points="72.8,132.4 78.2,127.1 78,124.7 77.1,123.7 69.5,131.3 70.5,132.3 "></polygon> <polygon class="st5" points="73,119.6 70.6,119.5 65.3,124.8 65.4,127.2 66.5,128.3 74.1,120.7 "></polygon> <rect x="66.4" y="124.2" transform="matrix(0.7075 -0.7067 0.7067 0.7075 -68.0458 87.5963)" class="st5" width="10.7" height="3.6"></rect> <polygon class="st5" points="80.8,111.7 78.5,111.6 73.1,117 73.3,119.3 74.4,120.4 81.9,112.9 "></polygon> <polygon class="st5" points="80.7,124.6 86,119.2 85.9,116.8 84.9,115.9 77.4,123.4 78.3,124.4 "></polygon> <rect x="74.3" y="116.3" transform="matrix(0.7075 -0.7067 0.7067 0.7075 -60.1929 90.8574)" class="st5" width="10.7" height="3.6"></rect> <path class="st5" d="M86.2,116.5l2.3,0.2c1.3-2.4,2.3-4.9,3.1-7.4l-6.3,6.3L86.2,116.5z"></path> <path class="st5" d="M82.5,112.8l2.6,2.6l6.7-6.7c0.1-0.4,0.3-0.9,0.4-1.3l-2.1-2.1L82.5,112.8z"></path> <polygon class="st5" points="88.7,103.9 86.3,103.8 81,109.1 81.1,111.5 82.2,112.6 89.8,105 "></polygon> <path class="st5" d="M89,103.6l1.1,1.1l3.1-3.1c0.2-1.7,0.3-3.3,0.4-5l-4.8,4.8L89,103.6z"></path> <path class="st5" d="M92.2,106.8c0.4-1.6,0.7-3.2,0.9-4.8l-2.8,2.8L92.2,106.8z"></path> <path class="st5" d="M42.9,136.7l-2.4,2.4c1.5,0.3,3,0.5,4.5,0.6l0.4-0.4L42.9,136.7z"></path> <path class="st5" d="M41.5,135.4l-2.4-0.1l-2.8,2.8c1.3,0.4,2.5,0.6,3.8,0.9l2.5-2.5L41.5,135.4z"></path> <rect x="42.9" y="132.1" transform="matrix(0.7075 -0.7067 0.7067 0.7075 -80.5063 73.2571)" class="st5" width="10.7" height="3.6"></rect> <path class="st5" d="M54.5,132.6l-1-0.9l-7.6,7.6l0.6,0.6c1,0.1,2.1,0.1,3.1,0.1l4.9-4.9L54.5,132.6z"></path> <polygon class="st5" points="49.4,127.5 47,127.4 41.7,132.7 41.8,135.1 42.9,136.2 50.5,128.6 "></polygon> <polygon class="st5" points="57.3,119.6 54.9,119.5 49.6,124.9 49.7,127.2 50.8,128.3 58.4,120.7 "></polygon> <polygon class="st5" points="57.1,132.4 62.5,127.1 62.3,124.7 61.4,123.7 53.8,131.3 54.8,132.3 "></polygon> <rect x="50.8" y="124.2" transform="matrix(0.7075 -0.7067 0.7067 0.7075 -72.6535 76.5182)" class="st5" width="10.7" height="3.6"></rect> <polygon class="st5" points="65.1,111.8 62.8,111.7 57.4,117 57.6,119.3 58.7,120.4 66.2,112.9 "></polygon> <rect x="58.6" y="116.3" transform="matrix(0.7075 -0.7067 0.7067 0.7075 -64.8006 79.7651)" class="st5" width="10.7" height="3.6"></rect> <polygon class="st5" points="65,124.6 70.3,119.2 70.2,116.8 69.2,115.9 61.7,123.5 62.6,124.4 "></polygon> <polygon class="st5" points="72.9,116.7 78.2,111.4 78.1,109 77.1,108 69.5,115.6 70.5,116.5 "></polygon> <polygon class="st5" points="73,103.9 70.6,103.8 65.3,109.1 65.4,111.5 66.5,112.6 74.1,105 "></polygon> <rect x="66.5" y="108.5" transform="matrix(0.7075 -0.7067 0.7067 0.7075 -56.9436 83.0162)" class="st5" width="10.7" height="3.6"></rect> <polygon class="st5" points="80.8,96 78.5,95.9 73.2,101.3 73.3,103.6 74.4,104.7 82,97.1 "></polygon> <polygon class="st5" points="80.7,108.9 86.1,103.5 85.9,101.1 85,100.2 77.4,107.7 78.3,108.7 "></polygon> <rect x="74.3" y="100.6" transform="matrix(0.7075 -0.7067 0.7067 0.7075 -49.0907 86.2773)" class="st5" width="10.7" height="3.6"></rect> <rect x="82.2" y="92.8" transform="matrix(0.7075 -0.7067 0.7067 0.7075 -41.2267 89.5313)" class="st5" width="10.7" height="3.6"></rect> <path class="st5" d="M85.3,99.9l1,0.9l2.4,0.2l5-5c0-1,0-2-0.1-3l-0.7-0.7L85.3,99.9z"></path> <polygon class="st5" points="88.7,88.2 86.4,88.1 81,93.4 81.1,95.8 82.3,96.9 89.8,89.3 "></polygon> <path class="st5" d="M92.9,91.8l0.5-0.5c-0.1-1.5-0.3-3-0.6-4.5l-2.4,2.4L92.9,91.8z"></path> <path class="st5" d="M89,87.9l1.1,1.1l2.6-2.6c-0.3-1.3-0.6-2.5-0.9-3.8l-2.9,3L89,87.9z"></path> <path class="st5" d="M38.8,132.5l-0.9-1l-5.3,5.3c1.1,0.4,2.2,0.8,3.4,1.1l3-3L38.8,132.5z"></path> <path class="st5" d="M35.1,128.8l-6.4,6.4c1.2,0.6,2.4,1.1,3.6,1.5l5.4-5.4L35.1,128.8z"></path> <path class="st5" d="M33.8,127.5l-2.4-0.1l-5.3,5.3l0.1,1.2c0.8,0.4,1.5,0.8,2.3,1.2l6.5-6.5L33.8,127.5z"></path> <polygon class="st5" points="41.6,119.6 39.3,119.5 33.9,124.8 34,127.2 35.2,128.3 42.7,120.7 "></polygon> <polygon class="st5" points="41.5,132.4 46.8,127.1 46.7,124.7 45.7,123.7 38.2,131.3 39.1,132.2 "></polygon> <rect x="35.1" y="124.2" transform="matrix(0.7075 -0.7067 0.7067 0.7075 -77.2206 65.4365)" class="st5" width="10.7" height="3.6"></rect> <polygon class="st5" points="49.5,111.7 47.1,111.6 41.8,117 41.9,119.3 43,120.4 50.6,112.8 "></polygon> <rect x="43" y="116.3" transform="matrix(0.7075 -0.7067 0.7067 0.7075 -69.3536 68.6976)" class="st5" width="10.7" height="3.6"></rect> <polygon class="st5" points="49.3,124.6 54.7,119.2 54.5,116.8 53.6,115.9 46,123.4 47,124.4 "></polygon> <polygon class="st5" points="57.3,103.9 55,103.8 49.6,109.1 49.8,111.5 50.9,112.6 58.4,105 "></polygon> <polygon class="st5" points="57.2,116.7 62.5,111.4 62.4,108.9 61.5,108 53.9,115.6 54.8,116.5 "></polygon> <rect x="50.8" y="108.5" transform="matrix(0.7075 -0.7067 0.7067 0.7075 -61.5037 71.9516)" class="st5" width="10.7" height="3.6"></rect> <polygon class="st5" points="65.1,108.8 70.4,103.5 70.3,101.1 69.3,100.1 61.7,107.7 62.7,108.7 "></polygon> <rect x="58.7" y="100.6" transform="matrix(0.7075 -0.7067 0.7067 0.7075 -53.6537 75.2056)" class="st5" width="10.7" height="3.6"></rect> <polygon class="st5" points="65.2,96 62.8,95.9 57.5,101.3 57.6,103.6 58.7,104.7 66.3,97.1 "></polygon> <polygon class="st5" points="72.9,101 78.3,95.6 78.1,93.2 77.2,92.3 69.6,99.8 70.6,100.8 "></polygon> <polygon class="st5" points="73.1,88.2 70.7,88.1 65.4,93.4 65.5,95.7 66.6,96.8 74.2,89.3 "></polygon> <rect x="66.5" y="92.7" transform="matrix(0.7075 -0.7067 0.7067 0.7075 -45.7938 78.4637)" class="st5" width="10.7" height="3.6"></rect> <polygon class="st5" points="80.8,93.1 86.1,87.8 86,85.4 85,84.4 77.5,92 78.4,92.9 "></polygon> <polygon class="st5" points="80.9,80.3 78.6,80.2 73.2,85.5 73.3,87.9 74.4,89 82,81.4 "></polygon> <rect x="74.4" y="84.9" transform="matrix(0.7075 -0.7067 0.7067 0.7075 -37.941 81.7248)" class="st5" width="10.7" height="3.6"></rect> <path class="st5" d="M81.1,77.7l0.1,2.3l1.1,1.1l6.5-6.5c-0.4-0.8-0.8-1.5-1.2-2.3h-1.2L81.1,77.7z"></path> <path class="st5" d="M85.1,83.9l5.4-5.4c-0.5-1.2-1-2.4-1.5-3.6l-6.4,6.4L85.1,83.9z"></path> <path class="st5" d="M86.3,85.1l2.4,0.2l3-3c-0.3-1.1-0.7-2.3-1.1-3.4l-5.3,5.3L86.3,85.1z"></path> <rect x="19.4" y="124.2" transform="matrix(0.7075 -0.7067 0.7067 0.7075 -81.8282 54.3584)" class="st5" width="10.7" height="3.6"></rect> <polygon class="st5" points="25.8,132.4 31.1,127.1 31,124.7 30,123.7 22.5,131.3 23.4,132.3 "></polygon> <polygon class="st5" points="25.9,119.6 23.6,119.5 18.2,124.9 18.3,127.2 19.5,128.3 27,120.7 "></polygon> <polygon class="st5" points="33.8,111.8 31.4,111.7 26.1,117 26.2,119.3 27.3,120.4 34.9,112.9 "></polygon> <polygon class="st5" points="33.7,124.6 39,119.2 38.8,116.8 37.9,115.9 30.3,123.5 31.3,124.4 "></polygon> <rect x="27.3" y="116.3" transform="matrix(0.7075 -0.7067 0.7067 0.7075 -73.9613 57.6053)" class="st5" width="10.7" height="3.6"></rect> <polygon class="st5" points="41.5,116.7 46.8,111.4 46.7,109 45.8,108 38.2,115.6 39.1,116.5 "></polygon> <polygon class="st5" points="41.6,103.9 39.3,103.8 33.9,109.1 34.1,111.5 35.2,112.6 42.7,105 "></polygon> <rect x="35.1" y="108.5" transform="matrix(0.7075 -0.7067 0.7067 0.7075 -66.1113 60.8593)" class="st5" width="10.7" height="3.6"></rect> <rect x="43" y="100.6" transform="matrix(0.7075 -0.7067 0.7067 0.7075 -58.2585 64.1204)" class="st5" width="10.7" height="3.6"></rect> <polygon class="st5" points="49.4,108.9 54.7,103.5 54.6,101.1 53.6,100.2 46,107.7 47,108.7 "></polygon> <polygon class="st5" points="49.5,96 47.1,95.9 41.8,101.3 41.9,103.6 43,104.7 50.6,97.1 "></polygon> <polygon class="st5" points="57.2,101 62.6,95.7 62.4,93.2 61.5,92.3 53.9,99.9 54.8,100.8 "></polygon> <rect x="50.8" y="92.8" transform="matrix(0.7075 -0.7067 0.7067 0.7075 -50.4085 67.3744)" class="st5" width="10.7" height="3.6"></rect> <polygon class="st5" points="57.4,88.2 55,88.1 49.7,93.4 49.8,95.8 50.9,96.9 58.5,89.3 "></polygon> <polygon class="st5" points="65.2,80.3 62.9,80.2 57.5,85.6 57.7,87.9 58.8,89 66.3,81.4 "></polygon> <polygon class="st5" points="65.1,93.1 70.4,87.8 70.3,85.4 69.3,84.4 61.8,92 62.7,93 "></polygon> <rect x="58.7" y="84.9" transform="matrix(0.7075 -0.7067 0.7067 0.7075 -42.5486 70.6326)" class="st5" width="10.7" height="3.6"></rect> <rect x="66.6" y="77" transform="matrix(0.7075 -0.7067 0.7067 0.7075 -34.6987 73.8866)" class="st5" width="10.7" height="3.6"></rect> <polygon class="st5" points="72.9,85.3 78.3,79.9 78.1,77.5 77.2,76.6 69.6,84.1 70.6,85.1 "></polygon> <polygon class="st5" points="73.1,72.5 70.7,72.4 65.4,77.7 65.5,80 66.6,81.1 74.2,73.6 "></polygon> <rect x="74.4" y="69.2" transform="matrix(0.7075 -0.7067 0.7067 0.7075 -26.8458 77.1477)" class="st5" width="10.7" height="3.6"></rect> <polygon class="st5" points="80.9,64.6 78.6,64.5 73.3,69.8 73.4,72.2 74.5,73.3 82.1,65.7 "></polygon> <path class="st5" d="M77.5,76.3l0.9,0.9l2.4,0.2l5.3-5.3L86,69.7l0,0l-0.9-0.9L77.5,76.3z"></path> </g> </g> <g> <defs> <rect id="SVGID_5_" x="-3" y="-3.6" width="297.7" height="147.7"></rect> </defs> <clipPath id="SVGID_6_"> <use xlink:href="#SVGID_5_" style="overflow:visible;"></use> </clipPath> <g class="st6"> <rect x="72.8" y="29.1" transform="matrix(0.728 -0.6856 0.6856 0.728 11.0928 87.1039)" class="st4" width="85.1" height="1"></rect> <rect x="216.3" y="-50.8" transform="matrix(0.3135 -0.9496 0.9496 0.3135 126.1913 222.2765)" class="st4" width="1" height="149.2"></rect> </g> </g> </g> </g> <radialGradient id="SVGID_7_" cx="42.3982" cy="50.4804" r="46.5884" fx="5.3232" fy="50.4804" gradientTransform="matrix(1 0 0 -1 -2.99 136.2498)" gradientUnits="userSpaceOnUse"> <stop offset="0" style="stop-color:#F0EA40"></stop> <stop offset="9.000000e-02" style="stop-color:#F0EA40"></stop> <stop offset="0.44" style="stop-color:#FFCB29"></stop> <stop offset="0.56" style="stop-color:#FCC52B"></stop> <stop offset="0.73" style="stop-color:#F2B430"></stop> <stop offset="0.91" style="stop-color:#E39838"></stop> <stop offset="1" style="stop-color:#DB893C"></stop> </radialGradient> <path class="st7" d="M44.3,46.4c-11.8-0.1-23.1,4.5-31.5,12.8c-17.8,17.8-17,47.3,1.6,66l64.3-64.4C69.7,51.6,57.3,46.4,44.3,46.4 L44.3,46.4"></path> </g> </g> </svg>