<?xml version="1.0" encoding="UTF-8"?>
<svg id="Réteg_2" xmlns="http://www.w3.org/2000/svg" xmlns:xlink="http://www.w3.org/1999/xlink" viewBox="0 0 213.58 213.58">
  <defs>
    <style>
      .cls-1, .cls-2 {
        fill: none;
      }

      .cls-3 {
        fill: #f7c82a;
      }

      .cls-2 {
        stroke: #000;
        stroke-linecap: round;
        stroke-linejoin: round;
        stroke-width: 2px;
      }

      .cls-4 {
        clip-path: url(#clippath);
      }
    </style>
    <clipPath id="clippath">
      <rect class="cls-1" width="213.58" height="213.58"/>
    </clipPath>
  </defs>
  <g id="Réteg_1">
    <g class="cls-4">
      <g>
        <polyline class="cls-2" points="25.78 142.64 19.14 138.79 19.14 94.48 52.14 104.11 89.61 135.2 100.22 129.07 110.82 122.94 121.46 116.8 131.89 110.76 142.6 104.58 153.21 98.44 163.85 92.3 174.01 86.42 184.9 80.13 194.41 74.64 194.44 119.06 89.61 179.57 89.59 179.59 81.68 175"/>
        <polygon class="cls-2" points="157.02 43.05 147.48 48.61 136.99 54.71 126.42 60.87 115.92 66.98 105.29 73.16 94.85 79.24 84.42 85.32 73.98 91.39 63.54 97.46 52.14 104.11 19.14 94.48 61.61 69.98 72.16 63.9 82.71 57.8 123.99 33.99 157.02 43.05"/>
        <polyline class="cls-2" points="89.61 179.59 89.61 179.57 89.61 135.32 52.14 104.11 63.54 97.46 73.98 91.39 84.42 85.32 94.85 79.24 105.29 73.16 115.92 66.98 126.42 60.87 136.99 54.71 147.48 48.61 157.02 43.05 194.41 74.64"/>
        <polyline class="cls-2" points="81.68 175 81.68 150.32 47.36 130.76 39.99 126.5 25.78 118.28 25.78 134.87 25.78 142.64"/>
        <g>
          <polygon class="cls-3" points="96.74 82.38 88.43 87.2 119.35 113.48 127.71 108.73 96.74 82.38"/>
          <polygon class="cls-3" points="86.29 88.44 77.96 93.27 108.67 119.56 117.2 114.71 86.29 88.44"/>
          <polygon class="cls-3" points="107.22 76.31 98.88 81.14 129.86 107.5 138.46 102.61 107.22 76.31"/>
          <polygon class="cls-3" points="75.82 94.5 67.49 99.33 98.01 125.63 106.52 120.79 75.82 94.5"/>
          <polygon class="cls-3" points="149.47 51.81 141.07 56.68 172.24 83.38 181.02 78.38 149.47 51.81"/>
          <polygon class="cls-3" points="138.94 57.92 130.52 62.8 161.99 89.22 170.09 84.6 138.94 57.92"/>
          <polygon class="cls-3" points="117.86 70.14 109.36 75.07 140.61 101.38 149.14 96.53 117.86 70.14"/>
          <polygon class="cls-3" points="128.38 64.04 119.99 68.9 151.3 95.3 159.83 90.44 128.38 64.04"/>
        </g>
        <line class="cls-2" x1="39.99" y1="126.5" x2="25.78" y2="134.87"/>
      </g>
    </g>
  </g>
</svg>