<?xml version="1.0" encoding="UTF-8"?>
<svg id="Réteg_2" xmlns="http://www.w3.org/2000/svg" viewBox="0 0 60 60">
  <defs>
    <style>
      .cls-1, .cls-2 {
        fill: none;
      }

      .cls-2 {
        stroke: #fff;
        stroke-linecap: round;
        stroke-linejoin: round;
        stroke-width: .5px;
      }
    </style>
  </defs>
  <g id="Layer_3">
    <g>
      <g>
        <path class="cls-2" d="M28.22,36.79s-.02-.01-.02-.02c-.12-.19-.25-.39-.39-.56t-.01-.01c-.08-.1-.14-.18-.23-.26-1.08-1.19-2.65-1.93-4.39-1.93-1.42,0-2.71.5-3.74,1.32"/>
        <line class="cls-2" x1="18.11" y1="36.85" x2="18.1" y2="36.86"/>
        <path class="cls-2" d="M26.23,37.84s-.01-.01-.01-.01"/>
        <path class="cls-2" d="M14.6,36.09s-.01-.02-.01-.02c-.02-.04-.05-.06-.08-.1-1.08-1.2-2.65-1.96-4.4-1.96h-.1"/>
        <path class="cls-2" d="M31.34,36.77c.11-.18.23-.35.37-.5h0c.05-.08.11-.15.17-.23l.08-.08c.13-.15.29-.32.46-.46l.14-.13c1.02-.84,2.34-1.36,3.78-1.36.14,0,.27,0,.42.02h1.48"/>
        <path class="cls-2" d="M33.32,37.83s-.01.02-.02.04"/>
        <path class="cls-2" d="M33.88,37.21s.01-.02.02-.04c.65-.57,1.51-.92,2.45-.92.14,0,.29.01.42.02h.01"/>
        <path class="cls-2" d="M32.59,22.18c1.04-.88,2.37-1.4,3.82-1.4,1.86,0,3.51.84,4.61,2.19.01.02.04.05.06.07"/>
        <path class="cls-2" d="M23.09,20.78c.07-.01.15-.01.23-.01,1.67,0,3.17.68,4.25,1.78.08.08.15.17.23.25.15.17.3.36.43.55h0"/>
        <path class="cls-2" d="M50,20.8h-.01c-.13-.02-.27-.02-.4-.02-1.48,0-2.81.52-3.84,1.4l-.1.1"/>
        <path class="cls-2" d="M31.88,36.04l.08-.08.46-.46.14-.13,11.29-11.3.45-.44s.02-.01.02-.02l.59-.61.19-.19.52-.52.1-.1"/>
        <polyline class="cls-2" points="23.11 20.77 21.61 20.78 8.52 33.87"/>
        <path class="cls-2" d="M25.68,37.23c-.65-.61-1.54-.98-2.5-.98s-1.89.23-2.43.9v.02c-.18.26-.42.49-.64.7-.9.86-2.14,1.37-3.5,1.37-1.29,0-2.49-.43-3.34-1.23h-.01c-.27-.36-.52-.73-.88-.99h-.01c-.33-.27-.73-.59-1.13-.73-.44-.23-1.23-.27-1.23-.27v-1h-1.49v-1.04h1.49"/>
      </g>
      <path class="cls-2" d="M31.34,36.77c-.27.27-.62.48-1,.57-.18.06-.37.08-.57.08s-.39-.02-.57-.08c-.38-.1-.71-.29-.98-.55-.01,0-.02-.01-.02-.02"/>
      <path class="cls-2" d="M27.8,36.19s-.01.01.01.01"/>
      <path class="cls-2" d="M32.59,22.18l-.52.52-.27.27-.67.67-3.44,3.44-8.25,8.25s-.5.49-.65.65c-.05.04-.13.12-.15.17-.17.25-.3.51-.52.7h-.01c-.26.24-.55.4-.89.49-.18.06-.37.08-.57.08s-.39-.02-.57-.08c-.36-.08-.67-.26-.93-.51-.23-.19-.42-.45-.54-.74-.01-.01-.01-.02-.01-.02"/>
      <path class="cls-2" d="M41.08,23.04s.06.06.1.1c.42.55,1.08.89,1.83.89.49,0,.94-.15,1.31-.4.01-.01.02-.01.02-.02"/>
      <path class="cls-2" d="M28.22,23.37l.02.02c.42.4.98.63,1.61.63.46,0,.9-.13,1.27-.38"/>
      <path class="cls-2" d="M12.38,37.04h-.01"/>
      <path class="cls-2" d="M33.9,37.17s-.02.02-.02.04c-.17.23-.35.43-.56.62,0,.01-.01.02-.02.04-.92.87-2.15,1.39-3.52,1.39s-2.63-.54-3.55-1.42c-.01,0-.01-.01-.01-.01-.19-.18-.37-.38-.54-.59"/>
      <polygon class="cls-2" points="51.48 20.79 51.42 23.12 38.25 36.29 38.25 34.01 51.47 20.79 51.48 20.79"/>
      <polyline class="cls-2" points="38.25 36.28 36.78 36.28 36.77 36.28"/>
      <polyline class="cls-2" points="51.48 20.79 51.47 20.79 49.99 20.79"/>
    </g>
    <rect class="cls-1" width="60" height="60"/>
  </g>
</svg>