<?xml version="1.0" encoding="UTF-8"?>
<svg id="Réteg_2" xmlns="http://www.w3.org/2000/svg" viewBox="0 0 60 60">
  <defs>
    <style>
      .cls-1, .cls-2 {
        fill: none;
      }

      .cls-2 {
        stroke: #fff;
        stroke-linecap: round;
        stroke-linejoin: round;
        stroke-width: .5px;
      }
    </style>
  </defs>
  <g id="Layer_3">
    <g>
      <g>
        <line class="cls-2" x1="33.11" y1="37.2" x2="33.09" y2="37.21"/>
        <polyline class="cls-2" points="14 31.57 13.99 31.57 13.56 32 12.85 32.69 7.54 38 7.22 38.33 30.67 38.33 30.68 38.33 34.24 34.77 34.25 34.77 34.25 34.76 37.08 31.93 37.09 31.93 40.04 28.97 42.87 26.14 42.89 26.14 45.79 23.22 48.62 20.39 48.63 20.39 48.63 20.38 48.62 20.38 25.18 20.38 25.17 20.39 24.84 20.72 22.34 23.22 19.54 26.01 19.41 26.14 18.85 26.71 17.3 28.26"/>
        <polyline class="cls-2" points="7.22 39.63 30.67 39.63 30.68 39.63 33.09 37.21 33.11 37.2 36.82 33.48 44.3 26 48.62 21.67"/>
        <line class="cls-2" x1="7.22" y1="39.63" x2="7.22" y2="38.33"/>
        <line class="cls-2" x1="30.67" y1="38.32" x2="30.67" y2="39.63"/>
        <polyline class="cls-2" points="48.62 20.37 48.62 20.38 48.62 20.39 48.62 20.41"/>
        <polyline class="cls-2" points="48.62 21.67 48.62 20.41 52.78 24.57 52.78 26 48.62 21.67"/>
        <line class="cls-2" x1="52.78" y1="26" x2="44.3" y2="26"/>
      </g>
      <polygon class="cls-2" points="31 20.39 28.16 23.22 22.28 23.22 25.12 20.39 31 20.39"/>
      <polygon class="cls-2" points="34.04 23.22 28.15 23.22 30.99 20.39 36.88 20.39 34.04 23.22"/>
      <polygon class="cls-2" points="39.92 23.22 34.03 23.22 36.87 20.39 42.76 20.39 39.92 23.22"/>
      <polygon class="cls-2" points="45.79 23.22 39.9 23.22 42.74 20.39 48.63 20.39 45.79 23.22"/>
      <polygon class="cls-2" points="25.25 26.14 22.42 28.97 22.41 28.97 19.6 28.75 16.99 28.54 16.96 28.54 19.38 26.14 25.25 26.14"/>
      <polygon class="cls-2" points="28.29 28.97 22.41 28.97 25.25 26.13 31.13 26.13 28.29 28.97"/>
      <polygon class="cls-2" points="34.18 28.97 28.29 28.97 31.13 26.13 37.01 26.13 34.18 28.97"/>
      <polygon class="cls-2" points="40.04 28.97 34.16 28.97 37 26.13 42.88 26.13 40.04 28.97"/>
      <polyline class="cls-2" points="22.54 34.72 22.55 34.71 25.34 31.93 25.33 31.93"/>
      <path class="cls-2" d="M22.54,34.72h.01s2.77-2.8,2.77-2.8h5.89l-2.83,2.84h-4.62"/>
      <polygon class="cls-2" points="34.25 34.77 28.36 34.77 31.2 31.93 37.08 31.93 34.25 34.77"/>
      <polygon class="cls-2" points="28.06 26.11 22.18 26.11 25.02 23.27 30.9 23.27 28.06 26.11"/>
      <polygon class="cls-2" points="33.94 26.11 28.06 26.11 30.9 23.27 36.78 23.27 33.94 26.11"/>
      <polygon class="cls-2" points="39.81 26.11 33.93 26.11 36.77 23.27 42.65 23.27 39.81 26.11"/>
      <path class="cls-2" d="M22.32,31.86s-3.47.11-5.18-.71l2.25-2.42,5.77.29-2.84,2.84Z"/>
      <polygon class="cls-2" points="28.2 31.86 22.32 31.86 25.15 29.02 31.04 29.02 28.2 31.86"/>
      <polygon class="cls-2" points="34.07 31.86 28.19 31.86 31.02 29.02 36.91 29.02 34.07 31.86"/>
      <path class="cls-2" d="M17.3,28.26c-.1.1-.21.2-.31.28-.63.54-1.31.86-1.95,1.05-1.21.34-2.24.19-2.38.1"/>
      <path class="cls-2" d="M12.65,29.68h.01c.33.73.79,1.35,1.33,1.89.84.84,1.89,1.46,2.97,1.91,2.04.85,4.23,1.14,5.59,1.24.83.06,1.35.05,1.35.05"/>
      <line class="cls-2" x1="19.57" y1="31.74" x2="16.96" y2="33.48"/>
      <path class="cls-2" d="M17.14,31.15s-1.51-.22-2.1-1.57"/>
    </g>
    <rect class="cls-1" width="60" height="60"/>
  </g>
</svg>