<?xml version="1.0" encoding="UTF-8"?>
<svg id="Réteg_2" xmlns="http://www.w3.org/2000/svg" viewBox="0 0 60 60">
  <defs>
    <style>
      .cls-1, .cls-2 {
        fill: none;
      }

      .cls-2 {
        stroke: #fff;
        stroke-linecap: round;
        stroke-linejoin: round;
        stroke-width: .5px;
      }
    </style>
  </defs>
  <g id="Layer_3">
    <g>
      <g>
        <path class="cls-2" d="M16.67,28.75l-5.77,5.75-4.49,4.48h24.18l2.46-2.44.48-.48,8.21-8.17.06-.06.22-.23s.04-.02.04-.04l5.63-5.61,1.6-1.59h-20.02M31.8,35.96c-.79-1.3-1.06-4.06-.55-6.15.32-1.36.88-2.12,1.44-2.13h-12.11c-.41,0-.81.37-1.11,1.07-.04.07-.06.14-.1.22-.1.24-.18.53-.26.84-.05.24-.1.49-.13.76-.3,1.96-.01,4.24.7,5.39.28.46.59.66.9.66h12c-.26-.05-.53-.26-.78-.66Z"/>
        <polyline class="cls-2" points="49.29 21.65 30.6 40.27 6.41 40.27"/>
        <line class="cls-2" x1="6.42" y1="38.98" x2="6.42" y2="40.27"/>
        <line class="cls-2" x1="30.6" y1="38.98" x2="30.6" y2="40.27"/>
        <line class="cls-2" x1="49.29" y1="20.36" x2="49.29" y2="21.66"/>
        <path class="cls-2" d="M27.35,27.68c-.63-1.42-.79-3.85-.35-5.74.17-.7.39-1.23.64-1.58.25-.36.53-.55.82-.55h.01c.26,0,.55.18.81.55.02.02.06.07.07.11.81,1.3,1.06,4.07.57,6.16-.1.4-.22.75-.35,1.05"/>
        <path class="cls-2" d="M17.61,21.92c-.5,2.11-.25,4.86.55,6.16.29.45.59.68.9.68"/>
        <path class="cls-2" d="M22.95,23.92c-.08,1.55.03,2.76.47,3.76"/>
        <path class="cls-2" d="M28.65,29.8c-.5,2.11-.25,4.86.55,6.16.29.45.59.68.9.68"/>
        <path class="cls-2" d="M21.45,31.79c-.05,1.78.17,3.11.8,4.15.29.45.59.68.9.68"/>
        <path class="cls-2" d="M28.92,22.31c-.42-.67-.96-.34-1.22.75s-.13,2.51.29,3.18.96.34,1.22-.75"/>
        <path class="cls-2" d="M33.23,30.18c-.42-.67-.96-.34-1.22.75s-.13,2.51.29,3.18.96.34,1.22-.75"/>
        <path class="cls-2" d="M16.33,28.76c-.31,0-.61-.22-.9-.68-.79-1.3-1.05-4.05-.55-6.16.33-1.36.88-2.13,1.45-2.13"/>
        <path class="cls-2" d="M34.15,34.51c-.16.66-.36,1.18-.61,1.54-.14.23-.31.4-.48.48-.14.08-.3.11-.47.08-.26-.05-.53-.26-.78-.66-.79-1.3-1.06-4.06-.55-6.15.32-1.36.88-2.12,1.44-2.13.29,0,.58.18.85.58.01.04.04.06.06.1.79,1.29,1.05,4.06.54,6.16Z"/>
        <path class="cls-2" d="M20.58,36.62c-.31,0-.63-.2-.9-.66-.71-1.16-1-3.43-.7-5.39.04-.26.08-.52.13-.76.08-.31.17-.6.26-.84.04-.07.06-.14.1-.22.3-.7.7-1.07,1.11-1.07"/>
        <polyline class="cls-2" points="19.47 28.75 19.01 28.75 18.93 28.75 16.67 28.75 16.33 28.75"/>
        <line class="cls-2" x1="16.34" y1="19.8" x2="28.46" y2="19.8"/>
        <polyline class="cls-2" points="32.69 27.68 29.81 27.68 29.56 27.68 27.35 27.68 23.48 27.68 23.42 27.68 20.58 27.68"/>
        <polyline class="cls-2" points="20.58 36.62 24.68 36.62 27.77 36.62 32.59 36.62 32.69 36.62"/>
        <line class="cls-2" x1="37.1" y1="20.38" x2="29.81" y2="27.67"/>
        <line class="cls-2" x1="36.63" y1="29.56" x2="43.6" y2="22.59"/>
        <line class="cls-2" x1="37.1" y1="24.7" x2="33.53" y2="28.27"/>
      </g>
      <polyline class="cls-2" points="49.3 20.36 49.3 20.39 53.58 24.69 53.58 26.16 49.3 21.69 49.3 20.39"/>
      <line class="cls-2" x1="53.59" y1="26.16" x2="44.83" y2="26.16"/>
    </g>
    <rect class="cls-1" width="60" height="60"/>
  </g>
</svg>