<?xml version="1.0" encoding="UTF-8"?>
<svg id="Réteg_2" xmlns="http://www.w3.org/2000/svg" viewBox="0 0 60 60">
  <defs>
    <style>
      .cls-1 {
        fill: #fff;
      }

      .cls-2, .cls-3 {
        fill: none;
      }

      .cls-4 {
        fill: #f7c82a;
      }

      .cls-3 {
        stroke: #000;
        stroke-linecap: round;
        stroke-linejoin: round;
        stroke-width: .5px;
      }
    </style>
  </defs>
  <g id="Layer_3">
    <rect class="cls-2" width="60" height="60"/>
    <g>
      <path class="cls-1" d="M46.71,29.51h1.69v.07l-5.83,5.76v1.11h-1.69s-.29,1.62-3.45,1.62-3.35-1.62-3.35-1.62h-1.82s-.28,1.62-3.44,1.62-3.35-1.62-3.35-1.62h-1.82s-.29,1.62-3.45,1.62-3.35-1.62-3.35-1.62h-1.82s-.29,1.62-3.45,1.62-3.35-1.62-3.35-1.62h-1.82v-1.11l5.83-5.83h1.82s0,.02,0,.05c.06.28.51,1.58,3.34,1.58,1.06,0,1.79-.18,2.3-.43l1.12-1.11v-.02s.03-.07.03-.07h1.82s0,.02,0,.05c.06.28.51,1.58,3.34,1.58,1.06,0,1.79-.18,2.3-.43l1.11-1.1c.02-.06.03-.1.03-.1h1.82s0,.02.01.06c.08.29.55,1.57,3.34,1.57,1.06,0,1.79-.18,2.3-.43l1.12-1.11v-.02s.03-.07.03-.07h1.82s0,.02.01.05c.06.28.51,1.58,3.34,1.58,1.06,0,1.79-.18,2.3-.43l1.12-1.11v-.02s.03-.07.03-.07Z"/>
      <path class="cls-1" d="M48.38,24.86c.96,0,1.66-.15,2.16-.35l-3.83,3.89s-.29,1.63-3.45,1.63-3.35-1.63-3.35-1.63h-1.82s-.29,1.63-3.45,1.63-3.35-1.63-3.35-1.63h-1.82s-.28,1.63-3.44,1.63-3.35-1.63-3.35-1.63h-1.82s-.29,1.63-3.45,1.63-3.35-1.63-3.35-1.63h-1.82l5.12-5.16h1.82s.19,1.62,3.35,1.62c.96,0,1.66-.15,2.16-.35h.01s1.26-1.3,1.26-1.3h1.82l-.03.03h.04s.2,1.62,3.36,1.62c.95,0,1.64-.15,2.14-.35h.01l1.27-1.3h1.82l-.02.03h.04s.19,1.62,3.35,1.62c.96,0,1.66-.15,2.16-.35h.01s1.26-1.3,1.26-1.3h1.82l-.02.03h.04s.19,1.62,3.35,1.62Z"/>
      <path class="cls-4" d="M14.11,28.4h-1.82l5.12-5.16v-1.11s1.12-.44,1.82,0c.24.15-.36,1.43,3.35,1.65.96.06,1.66-.15,2.16-.35h.01s1.26-1.3,1.26-1.3h1.81l-.02.03h.04s.2,1.62,3.36,1.62c.95,0,1.64-.15,2.14-.35h.01l1.27-1.3h1.82l-.02.03h.04s.19,1.62,3.35,1.62c.96,0,1.66-.15,2.16-.35h.01s1.26-1.3,1.26-1.3h1.82l-.02.03h.04s.19,1.73,3.35,1.62c2.71-.1,5.42-3.62,5.14-.54l-6.81,5.16s-.29,1.63-3.45,1.63-3.35-1.63-3.35-1.63h-1.82s-.29,1.63-3.45,1.63-3.35-1.63-3.35-1.63h-1.82s-.28,1.63-3.44,1.63-3.35-1.63-3.35-1.63h-1.82s-.29,1.63-3.45,1.63-3.35-1.63-3.35-1.63Z"/>
      <path class="cls-4" d="M11.58,38.07c-3.16,0-3.35-1.62-3.35-1.62h-1.82v-1.11l5.83-5.83v-1.11s1.82.02,1.83.05c.06.28.51,1.58,3.34,1.58,1.06,0,1.79-.18,2.3-.43l1.12-1.11v-.02s.03-.07.03-.07h1.82s0,.02,0,.05c.06.28.51,1.58,3.34,1.58,1.06,0,1.79-.18,2.3-.43l1.11-1.1c.02-.06.03-.1.03-.1h1.82s0,.02.01.06c.08.29.55,1.57,3.34,1.57,1.06,0,1.79-.18,2.3-.43l1.12-1.11v-.02s.03-.07.03-.07h1.82s0,.02.01.05c.06.28.51,1.58,3.34,1.58,1.06,0,1.79-.18,2.3-.43l1.12-1.11,5.13-5.28s1.71.03,1.71.03l-5.12,5.16v1.18l-5.83,5.76v1.11h-1.69s-.29,1.62-3.45,1.62-3.35-1.62-3.35-1.62h-1.82s-.28,1.62-3.44,1.62-3.36-1.62-3.36-1.62h-1.81s-.29,1.62-3.45,1.62-3.35-1.62-3.35-1.62h-1.82s-.29,1.62-3.45,1.62Z"/>
      <g>
        <path class="cls-3" d="M42.57,35.34v1.11h-1.69s-.29,1.62-3.45,1.62-3.35-1.62-3.35-1.62h-1.82s-.28,1.62-3.44,1.62-3.35-1.62-3.35-1.62h-1.82s-.29,1.62-3.45,1.62-3.35-1.62-3.35-1.62h-1.82s-.29,1.62-3.45,1.62-3.35-1.62-3.35-1.62h-1.82v-1.11"/>
        <path class="cls-3" d="M36.94,30.71c-.51.25-1.24.43-2.3.43-2.79,0-3.26-1.28-3.34-1.57-.01-.04-.01-.06-.01-.06h-1.82s-.01.04-.03.1"/>
        <path class="cls-3" d="M45.56,30.71c-.51.25-1.24.43-2.3.43-2.83,0-3.28-1.3-3.34-1.58,0-.03,0-.05,0-.05h-1.82s0,.03-.02.07v.02"/>
        <path class="cls-3" d="M19.71,30.71c-.51.25-1.24.43-2.3.43-2.83,0-3.28-1.3-3.34-1.58-.01-.03-.01-.05-.01-.05h-1.82l-5.83,5.83h1.82s.19,1.63,3.35,1.63,3.45-1.63,3.45-1.63h1.82s.19,1.63,3.35,1.63,3.45-1.63,3.45-1.63h1.81s.2,1.63,3.36,1.63,3.44-1.63,3.44-1.63h1.82s.19,1.63,3.35,1.63,3.45-1.63,3.45-1.63h1.69l5.83-5.76v-.07h-1.69s0,.03-.02.07v.02"/>
        <path class="cls-3" d="M28.33,30.71c-.51.25-1.24.43-2.3.43-2.83,0-3.28-1.3-3.34-1.58,0-.03,0-.05,0-.05h-1.82s0,.03-.02.07v.02"/>
        <line class="cls-3" x1="12.25" y1="29.51" x2="12.25" y2="28.4"/>
        <path class="cls-3" d="M24.7,24.5h-.01c-.5.21-1.2.36-2.16.36-3.16,0-3.35-1.62-3.35-1.62h-1.82l-5.12,5.16h1.82s.19,1.63,3.35,1.63,3.45-1.63,3.45-1.63h1.82s.19,1.63,3.35,1.63,3.44-1.63,3.44-1.63h1.82s.2,1.63,3.35,1.63,3.45-1.63,3.45-1.63h1.82s.19,1.63,3.35,1.63,3.45-1.63,3.45-1.63h1.69"/>
        <path class="cls-3" d="M41.93,24.5h-.01c-.5.21-1.2.36-2.16.36-3.16,0-3.35-1.62-3.35-1.62h-.04"/>
        <polyline class="cls-3" points="53.52 23.24 48.4 28.45 48.4 29.51 48.4 29.58"/>
        <path class="cls-3" d="M50.55,24.5h-.01c-.5.21-1.2.36-2.16.36-3.16,0-3.35-1.62-3.35-1.62h-.04"/>
        <path class="cls-3" d="M33.3,24.51h-.01c-.5.2-1.19.35-2.14.35-3.16,0-3.36-1.62-3.36-1.62h-.04"/>
        <line class="cls-3" x1="8.23" y1="35.34" x2="14.1" y2="29.54"/>
        <polyline class="cls-3" points="20.89 29.54 20.84 29.58 20.83 29.6 19.71 30.71 15.03 35.34"/>
        <line class="cls-3" x1="16.85" y1="35.34" x2="22.71" y2="29.54"/>
        <polyline class="cls-3" points="29.51 29.54 29.44 29.61 28.33 30.71 23.65 35.34"/>
        <line class="cls-3" x1="25.47" y1="35.34" x2="31.33" y2="29.54"/>
        <polyline class="cls-3" points="32.26 35.34 36.94 30.71 38.06 29.6 38.07 29.58 38.12 29.54"/>
        <polyline class="cls-3" points="39.94 29.54 39.92 29.56 34.08 35.34"/>
        <polyline class="cls-3" points="46.74 29.54 46.69 29.58 46.68 29.6 45.56 30.71 40.88 35.34"/>
        <path class="cls-3" d="M17.36,23.23v-1.1h1.82s.19,1.63,3.35,1.63,3.45-1.63,3.45-1.63h1.82s.19,1.63,3.35,1.63,3.44-1.63,3.44-1.63h1.82s.19,1.63,3.35,1.63,3.45-1.63,3.45-1.63h1.82s.19,1.63,3.35,1.63,3.45-1.63,3.45-1.63h1.69v1.1l-1.71-.02-1.26,1.29h-.01s-3.83,3.9-3.83,3.9"/>
        <polyline class="cls-3" points="39.91 28.4 44.99 23.24 45.01 23.21 43.19 23.21 41.93 24.5 41.92 24.51 38.09 28.4"/>
        <polyline class="cls-3" points="31.3 28.4 36.37 23.24 36.39 23.21 34.57 23.21 33.3 24.51 33.29 24.51 29.48 28.4"/>
        <polyline class="cls-3" points="22.68 28.4 27.75 23.24 27.78 23.21 25.96 23.21 24.7 24.5 24.69 24.51 20.86 28.4"/>
        <polyline class="cls-3" points="19.16 23.21 19.14 23.24 19.13 23.24 14.06 28.4"/>
      </g>
    </g>
  </g>
</svg>