<?xml version="1.0" encoding="UTF-8"?>
<svg id="Réteg_2" xmlns="http://www.w3.org/2000/svg" viewBox="0 0 60 60">
  <defs>
    <style>
      .cls-1 {
        fill: none;
      }

      .cls-2 {
        fill: #f7c82a;
      }
    </style>
  </defs>
  <g id="Layer_3">
    <g>
      <path class="cls-2" d="M49.99,20.79c-.13-.01-.27-.01-.4-.01-1.48,0-2.81.52-3.85,1.4l-.09.1-.53.52-.19.19-.59.61s-.01.01-.03.02c-.36.25-.82.4-1.3.4-.75,0-1.42-.34-1.84-.89-.03-.03-.07-.06-.09-.09-.03-.03-.05-.05-.06-.07-1.1-1.35-2.75-2.19-4.61-2.19-1.45,0-2.78.52-3.82,1.4l-.52.52-.27.28-1.8,1.04s-1.32-.57-1.47-.4c-.08,0-2.46-2.21-2.54-2.21-.55-.25-4.15-.82-4.38-.63l-6.79,6.79-6.11,6.11s-.15.23-.19.19v1.17h1.49v1s.78.05,1.22.28c.41.13.8.45,1.13.71h.01c.36.27.61.64.89.99h.01c.85.81,2.06,1.24,3.34,1.24,1.36,0,2.6-.52,3.5-1.37.23-.22.46-.44.63-.7v-.03c.55-.68,1.51-.9,2.44-.9s1.84.37,2.5.97c.17.22.34.42.53.6,0,0,0,.01.02.01.91.88,2.16,1.42,3.54,1.42s2.61-.53,3.53-1.4c0-.01.02-.02.02-.03.21-.19.39-.39.56-.62,0-.01.01-.02.02-.04.66-.57,1.51-.91,2.45-.91.15,0,.29.01.42.02h1.48s13.17-13.16,13.17-13.16l.06-2.33h-1.49ZM29.12,35.13c-.94,0-1.58-.65-1.58-1.44s.64-1.41,1.58-1.41,1.58.61,1.58,1.41-.64,1.44-1.58,1.44ZM30.35,31.8h-2.47c0-1.45,1.55-1.89,1.55-2.62,0-.37-.36-.56-.8-.56-.52,0-1,.31-1.25.81l-2.13-1.06c.61-1.15,1.82-1.95,3.74-1.95s3.28.8,3.28,2.3c0,1.83-1.92,2.15-1.92,3.08Z"/>
      <rect class="cls-1" width="60" height="60"/>
    </g>
  </g>
</svg>