<?xml version="1.0" encoding="UTF-8"?>
<svg id="Réteg_2" xmlns="http://www.w3.org/2000/svg" viewBox="0 0 60 60">
  <defs>
    <style>
      .cls-1, .cls-2 {
        fill: none;
      }

      .cls-2 {
        stroke: #fff;
        stroke-linecap: round;
        stroke-linejoin: round;
        stroke-width: .5px;
      }
    </style>
  </defs>
  <g id="Layer_3">
    <g>
      <path class="cls-2" d="M6.55,39.84c.12-.17.27-.31.44-.44.46-.35,1.03-.58,1.66-.58s1.25.24,1.71.61c.13.11.26.24.37.37l.04.04c.46.38,1.05.6,1.7.6s1.27-.2,1.7-.6c.11-.09.3-.31.4-.4.44-.4,1.05-.61,1.7-.61s1.28.21,1.71.61c.11.09.3.31.4.4.44.4,1.05.6,1.7.6s1.27-.2,1.7-.6c.11-.09.3-.31.4-.4.44-.4,1.06-.61,1.7-.61s1.28.21,1.71.61c.11.09.3.31.4.4.44.4,1.05.6,1.7.6s1.27-.2,1.7-.6l.04-.04c.12-.13.24-.26.37-.37.46-.38,1.05-.61,1.7-.61,1.14,0,2.1.7,2.49,1.69"/>
      <path class="cls-2" d="M25.9,20.49c.13-.17.28-.32.45-.45.46-.35,1.03-.58,1.66-.58s1.25.24,1.71.61c.13.11.26.24.37.37l.04.04c.46.38,1.05.6,1.7.6s1.23-.2,1.66-.57l.45-.44c.45-.4,1.05-.61,1.7-.61s1.28.21,1.71.61c.11.09.31.3.4.4.45.39,1.05.6,1.7.6s1.23-.2,1.67-.58l.44-.43c.45-.4,1.06-.61,1.7-.61s1.28.21,1.71.61c.11.09.31.3.4.4.45.39,1.05.6,1.7.6s1.23-.2,1.66-.57l.45-.44c.46-.38,1.05-.61,1.7-.61,1.14,0,2.1.7,2.49,1.69"/>
      <polyline class="cls-2" points="53.45 21.08 53.38 21.15 34.01 40.52 33.99 40.54"/>
      <polyline class="cls-2" points="26.53 19.86 26.35 20.04 25.9 20.49 6.99 39.41 6.55 39.84"/>
      <polyline class="cls-2" points="33.93 20.06 33.93 20.07 33.48 20.51 14.56 39.44"/>
      <polyline class="cls-2" points="41.56 20.06 41.56 20.07 41.12 20.5 22.19 39.44"/>
      <polyline class="cls-2" points="49.18 20.06 49.18 20.07 48.73 20.51 29.82 39.44"/>
    </g>
    <rect class="cls-1" width="60" height="60"/>
  </g>
</svg>