<?xml version="1.0" encoding="UTF-8"?>
<svg id="Réteg_2" xmlns="http://www.w3.org/2000/svg" viewBox="0 0 60 60">
  <defs>
    <style>
      .cls-1, .cls-2 {
        fill: none;
      }

      .cls-2 {
        stroke: #fff;
        stroke-linecap: round;
        stroke-linejoin: round;
        stroke-width: .5px;
      }
    </style>
  </defs>
  <g id="Layer_3">
    <g>
      <line class="cls-2" x1="18.36" y1="40.12" x2="12.59" y2="40.12"/>
      <line class="cls-2" x1="32.21" y1="40.12" x2="26.45" y2="40.12"/>
      <polyline class="cls-2" points="38.65 20.85 43.93 20.85 43.94 20.85"/>
      <polyline class="cls-2" points="31.72 20.85 37 20.85 37.02 20.85"/>
      <polyline class="cls-2" points="30.08 20.85 30.07 20.85 25.75 20.85 6.48 40.12 11.43 40.12"/>
      <polyline class="cls-2" points="45.58 20.85 50.86 20.85 50.87 20.85"/>
      <line class="cls-2" x1="25.3" y1="40.12" x2="19.52" y2="40.12"/>
      <polyline class="cls-2" points="11.43 40.12 11.89 39.05 12.26 39.05 12.59 40.12 31.76 20.95 31.72 20.85 31.42 19.89 31.04 19.89"/>
      <polyline class="cls-2" points="18.36 40.12 18.81 39.05 19.18 39.05 19.52 40.12 38.68 20.95 38.65 20.85 38.35 19.89 37.98 19.89"/>
      <polyline class="cls-2" points="44.9 19.89 45.28 19.89 45.58 20.85 45.62 20.95 26.46 40.12 26.12 39.05 25.74 39.05 25.3 40.12"/>
      <line class="cls-2" x1="32.22" y1="40.12" x2="32.67" y2="39.04"/>
      <polyline class="cls-2" points="50.87 20.85 51.83 19.88 53.52 19.89 34.28 39.05 32.66 39.05 50.86 20.85 50.87 20.85"/>
      <polyline class="cls-2" points="44.9 19.88 44.9 19.89 43.94 20.85 43.93 20.85 25.74 39.05"/>
      <polyline class="cls-2" points="37.98 19.88 37.98 19.89 37.02 20.85 37 20.85 18.81 39.05"/>
      <polyline class="cls-2" points="31.04 19.88 31.04 19.89 30.08 20.85 30.07 20.85 11.89 39.05"/>
    </g>
    <rect class="cls-1" width="60" height="60"/>
  </g>
</svg>