<?xml version="1.0" encoding="UTF-8"?>
<svg id="Réteg_2" xmlns="http://www.w3.org/2000/svg" viewBox="0 0 60 60">
  <defs>
    <style>
      .cls-1, .cls-2 {
        fill: none;
      }

      .cls-3 {
        fill: #f7c82a;
      }

      .cls-2 {
        stroke: #000;
        stroke-linecap: round;
        stroke-linejoin: round;
        stroke-width: .5px;
      }
    </style>
  </defs>
  <g id="Layer_3">
    <g>
      <path class="cls-3" d="M48.41,23.77c-3.16.11-3.35-1.62-3.35-1.62h-.04l.02-.03h-1.64c-.29.33-.63.62-1.02.86l-.42.43h-.01c-.5.21-1.2.36-2.16.36-2.19,0-2.95-.78-3.21-1.25-.14-.13-.27-.26-.39-.4h-1.11c-.42.49-.96.89-1.6,1.16l-.14.14h-.01c-.5.2-1.19.35-2.14.35-3.16,0-3.36-1.62-3.36-1.62h-.04l.02-.03h-1.27c-.54.65-1.26,1.16-2.17,1.43-.46.15-1.05.27-1.79.22-3.14-.19-3.19-1.13-3.28-1.51-.05-.06-.1-.12-.15-.18-.41-.21-.94-.16-1.3-.08-.1.39-.25.77-.43,1.13v.1l-.13.13c-.38.64-.9,1.19-1.57,1.58l-3.42,3.45h1.82s.19,1.63,3.35,1.63,3.45-1.63,3.45-1.63h1.82s.19,1.63,3.35,1.63,3.44-1.63,3.44-1.63h1.82s.2,1.63,3.35,1.63,3.45-1.63,3.45-1.63h1.82s.19,1.63,3.35,1.63,3.45-1.63,3.45-1.63l5.69-4.31c.25-.35.48-.71.64-1.09.11-.27.24-.53.38-.78-.53-.96-2.78,1.48-5.04,1.57Z"/>
      <path class="cls-3" d="M11.61,38.06c-3.16,0-3.35-1.62-3.35-1.62h-1.82v-1.11l5.83-5.83v-1.11s1.82.02,1.83.05c.06.28.51,1.58,3.34,1.58,1.06,0,1.79-.18,2.3-.43l1.12-1.11v-.02s.03-.07.03-.07h1.82s0,.02,0,.05c.06.28.51,1.58,3.34,1.58,1.06,0,1.79-.18,2.3-.43l1.11-1.1c.02-.06.03-.1.03-.1h1.82s0,.02.01.06c.08.29.55,1.57,3.34,1.57,1.06,0,1.79-.18,2.3-.43l1.12-1.11v-.02s.03-.07.03-.07h1.82s0,.02.01.05c.06.28.51,1.58,3.34,1.58,1.06,0,1.79-.18,2.3-.43l1.12-1.11,5.13-5.28s1.71.03,1.71.03l-5.12,5.16v1.18l-5.83,5.76v1.11h-1.69s-.29,1.62-3.45,1.62-3.35-1.62-3.35-1.62h-1.82s-.28,1.62-3.44,1.62-3.36-1.62-3.36-1.62h-1.81s-.29,1.62-3.45,1.62-3.35-1.62-3.35-1.62h-1.82s-.29,1.62-3.45,1.62Z"/>
      <g>
        <path class="cls-2" d="M42.61,35.33v1.11h-1.69s-.29,1.62-3.45,1.62-3.35-1.62-3.35-1.62h-1.82s-.28,1.62-3.44,1.62-3.36-1.62-3.36-1.62h-1.81s-.29,1.62-3.45,1.62-3.35-1.62-3.35-1.62h-1.82s-.29,1.62-3.45,1.62-3.35-1.62-3.35-1.62h-1.82v-1.11"/>
        <path class="cls-2" d="M36.98,30.7c-.51.25-1.24.43-2.3.43-2.79,0-3.26-1.28-3.34-1.57,0-.04,0-.06,0-.06h-1.82s-.01.04-.03.1"/>
        <path class="cls-2" d="M45.6,30.7c-.51.25-1.24.43-2.3.43-2.83,0-3.28-1.3-3.34-1.58-.01-.03-.01-.05-.01-.05h-1.82s0,.03-.02.07v.02"/>
        <path class="cls-2" d="M19.74,30.7c-.51.25-1.24.43-2.3.43-2.83,0-3.28-1.3-3.34-1.58-.01-.03-.01-.05-.01-.05h-1.82l-5.83,5.83h1.82s.19,1.63,3.35,1.63,3.45-1.63,3.45-1.63h1.82s.19,1.63,3.35,1.63,3.45-1.63,3.45-1.63h1.81s.2,1.63,3.36,1.63,3.44-1.63,3.44-1.63h1.82s.19,1.63,3.35,1.63,3.45-1.63,3.45-1.63h1.69l5.83-5.76v-.07h-1.69s0,.03-.02.07v.02"/>
        <path class="cls-2" d="M28.36,30.7c-.51.25-1.24.43-2.3.43-2.83,0-3.28-1.3-3.34-1.58-.01-.03-.01-.05-.01-.05h-1.82s0,.03-.02.07v.02"/>
        <line class="cls-2" x1="12.28" y1="29.5" x2="12.28" y2="28.4"/>
        <path class="cls-2" d="M24.74,24.49h-.01c-.5.21-1.2.36-2.16.36-3.16,0-3.35-1.62-3.35-1.62h-1.82l-5.12,5.16h1.82s.19,1.63,3.35,1.63,3.45-1.63,3.45-1.63h1.82s.19,1.63,3.35,1.63,3.44-1.63,3.44-1.63h1.82s.2,1.63,3.35,1.63,3.45-1.63,3.45-1.63h1.82s.19,1.63,3.35,1.63,3.45-1.63,3.45-1.63h1.69"/>
        <path class="cls-2" d="M41.97,24.49h-.01c-.5.21-1.2.36-2.16.36-3.16,0-3.35-1.62-3.35-1.62h-.04"/>
        <polyline class="cls-2" points="53.56 23.23 48.44 28.44 48.44 29.5 48.44 29.57"/>
        <path class="cls-2" d="M50.58,24.49h0c-.5.21-1.2.36-2.16.36-3.16,0-3.35-1.62-3.35-1.62h-.04"/>
        <path class="cls-2" d="M33.33,24.5h0c-.5.2-1.19.35-2.14.35-3.16,0-3.36-1.62-3.36-1.62h-.04"/>
        <line class="cls-2" x1="8.27" y1="35.34" x2="14.13" y2="29.54"/>
        <polyline class="cls-2" points="20.92 29.53 20.88 29.57 20.86 29.59 19.74 30.7 15.07 35.33"/>
        <line class="cls-2" x1="16.88" y1="35.34" x2="22.75" y2="29.54"/>
        <polyline class="cls-2" points="29.55 29.53 29.48 29.6 28.36 30.7 23.69 35.33"/>
        <line class="cls-2" x1="25.5" y1="35.34" x2="31.36" y2="29.54"/>
        <polyline class="cls-2" points="32.3 35.33 36.98 30.7 38.1 29.59 38.11 29.57 38.15 29.53"/>
        <polyline class="cls-2" points="39.98 29.53 39.96 29.55 34.12 35.33"/>
        <polyline class="cls-2" points="46.78 29.53 46.73 29.57 46.72 29.59 45.6 30.7 40.92 35.33"/>
        <path class="cls-2" d="M17.4,23.22v-1.1h1.82s.19,1.63,3.35,1.63,3.45-1.63,3.45-1.63h1.81s.2,1.63,3.36,1.63,3.44-1.63,3.44-1.63h1.82s.19,1.63,3.35,1.63,3.45-1.63,3.45-1.63h1.82s.19,1.63,3.35,1.63,3.45-1.63,3.45-1.63h1.69v1.1l-1.71-.02-1.26,1.29h0s-3.83,3.9-3.83,3.9"/>
        <polyline class="cls-2" points="39.94 28.39 45.03 23.23 45.05 23.2 43.23 23.2 41.97 24.49 41.95 24.5 38.12 28.39"/>
        <polyline class="cls-2" points="31.33 28.39 36.4 23.23 36.42 23.2 34.61 23.2 33.33 24.5 33.33 24.5 29.51 28.39"/>
        <polyline class="cls-2" points="22.72 28.39 27.78 23.23 27.81 23.2 25.99 23.2 24.74 24.49 24.73 24.5 20.9 28.39"/>
        <polyline class="cls-2" points="19.19 23.2 19.17 23.23 19.17 23.23 14.1 28.39"/>
      </g>
      <g>
        <path d="M13.88,30.23c-.2,0-.37.16-.38.36.06-.04.13-.06.21-.07.03-.06.1-.1.17-.1.1,0,.18.07.19.17h0c.07.03.12.08.17.14,0-.04,0-.08,0-.12,0-.2-.16-.37-.36-.38Z"/>
        <path d="M15.47,29.39c-.21,0-.38.17-.38.38h0c0,.09.03.17.09.24.06-.04.12-.07.19-.07-.06-.03-.1-.1-.1-.16,0-.1.08-.19.18-.19,0,0,.01,0,.02,0,.11,0,.19.09.19.19h0c0,.08-.05.16-.13.18.07.02.13.06.18.1.08-.07.13-.17.13-.28,0-.21-.17-.38-.38-.38Z"/>
        <path d="M19.73,27.77c-.15,0-.27.13-.28.28,0,.15.13.27.28.27.15,0,.27-.12.27-.27h0c0-.15-.12-.27-.27-.28ZM19.73,28.19c-.08,0-.14-.06-.15-.13,0-.08.06-.14.13-.15.08,0,.14.06.15.13,0,0,0,0,0,0,0,.08-.06.14-.13.14Z"/>
        <path d="M19.68,31.04c-.17,0-.31.15-.31.32,0,.03,0,.06,0,.08.04-.03.09-.05.14-.06h0c0-.09.07-.16.16-.16s.16.07.16.16h0c.05.02.1.04.14.07,0-.03,0-.07,0-.1,0-.17-.13-.3-.3-.31Z"/>
        <path d="M17.7,30.85c-.19,0-.34.16-.34.34,0,.03,0,.06,0,.08.05-.03.1-.05.16-.06h0c0-.09.08-.17.17-.17,0,0,0,0,0,0,.09,0,.17.08.17.17h0c.06.02.11.05.16.08,0-.04,0-.07,0-.11,0-.18-.14-.32-.32-.34Z"/>
        <path d="M13.88,35.17c-.21,0-.38.17-.38.38h0s0,.04,0,.07c.05-.03.12-.05.18-.05h0c0-.11.09-.19.19-.19h0c.11,0,.19.09.19.19h0s0,.04,0,.07h0c.06.03.11.06.15.1.04-.05.05-.12.05-.18,0-.21-.16-.38-.37-.39,0,0-.01,0-.02,0Z"/>
        <path d="M13.28,37.07c-.11,0-.19.09-.19.2,0,.02,0,.04,0,.05h.08c0-.05.04-.1.09-.1,0,0,0,0,0,0,.06,0,.1.05.1.1h0l.08.04s0-.03,0-.04c.03-.1-.03-.21-.13-.24-.01,0-.02,0-.04,0Z"/>
        <path d="M24.85,28.99c-.11,0-.19.09-.19.2,0,.02,0,.03,0,.05.03,0,.06,0,.09,0h0c0-.05.04-.1.1-.1s.1.04.1.1h0s.06,0,.09,0v-.03c.02-.11-.06-.2-.16-.22,0,0-.01,0-.02,0Z"/>
        <path d="M15.09,35.95c-.11,0-.2.09-.2.19-.01.03-.01.06,0,.09.02-.03.04-.06.07-.07h0c0-.05.04-.1.1-.1,0,0,0,0,0,0,.05,0,.1.04.1.1,0,.01,0,.03,0,.04h0s.04.04.05.07c.03-.03.05-.07.05-.11,0-.11-.07-.2-.18-.21,0,0,0,0,0,0Z"/>
        <path d="M12.24,31.74c-.11,0-.2.09-.2.2h0s0,.03,0,.04h.09c0-.06.05-.1.1-.1h0c.05,0,.1.04.1.1,0,0,0,0,0,0h0l.09.04s0-.03,0-.05c.01-.11-.07-.21-.18-.22,0,0,0,0,0,0Z"/>
        <path d="M18.42,32.75c-.11.02-.18.13-.16.24.02.08.08.14.16.16.11-.02.18-.13.16-.24-.02-.08-.08-.14-.16-.16ZM18.42,33.04c-.06,0-.1-.05-.1-.1,0-.05.04-.1.1-.1,0,0,0,0,0,0,.05,0,.1.04.1.1,0,.05-.04.1-.09.1,0,0,0,0,0,0Z"/>
        <path d="M16.25,28.16c-.11,0-.19.09-.19.19h.09c0-.05.04-.1.1-.1,0,0,0,0,0,0,.05,0,.1.04.1.1h0l.09.04s0-.04,0-.07c-.01-.1-.09-.17-.19-.17Z"/>
        <path d="M10.23,33.21c-.11,0-.2.09-.2.19,0,.01,0,.03,0,.04.02-.02.06-.04.09-.04h0c0-.05.04-.1.1-.1,0,0,0,0,0,0,.05,0,.1.04.1.1,0,.02,0,.03,0,.05.03.02.05.04.07.07.03-.03.05-.08.04-.13,0-.11-.08-.2-.19-.2,0,0-.01,0-.02,0Z"/>
        <path d="M23.49,26.89s-.09-.07-.15-.07c-.05,0-.1.02-.14.06h.04s.05,0,.07,0c.05-.02.11.01.12.06,0,.01,0,.03,0,.04,0,.05-.04.1-.09.1,0,0,0,0,0,0,0,.03,0,.06,0,.1h0c.11,0,.19-.09.19-.19,0,0,0,0,0,0,0-.03-.02-.06-.04-.09Z"/>
        <path d="M16.05,34.29c-.21,0-.39.17-.39.39h0c0,.07.02.13.06.19.03-.06.08-.1.13-.13,0-.02,0-.03,0-.05-.02-.11.05-.21.16-.24.11-.02.21.05.24.16,0,.03,0,.05,0,.08,0,.02,0,.03,0,.05.06.03.11.08.14.13.04-.06.05-.12.05-.19,0-.21-.16-.38-.37-.39,0,0-.02,0-.02,0Z"/>
        <path d="M9.57,34.99c-.19,0-.34.15-.34.34h0s-.01.09,0,.13c.05-.03.1-.05.16-.05,0-.03,0-.06,0-.08,0-.09.08-.17.17-.17s.17.08.17.17c0,.05-.02.1-.07.13.05.02.1.06.13.11.06-.06.1-.15.1-.24,0-.18-.15-.33-.33-.34Z"/>
        <path d="M9.22,36.31c-.21,0-.38.16-.39.37,0,0,0,0,0,0h0c.06-.01.12-.01.19,0,.02-.11.13-.18.24-.16.08.02.14.08.16.16.01.03.01.07,0,.1.05.03.1.07.15.12.04-.06.07-.14.07-.22,0-.21-.17-.38-.38-.38-.01,0-.02,0-.03,0Z"/>
        <path d="M14.55,31.6c-.16,0-.29.13-.29.29h0s0,.05,0,.07c.03-.02.06-.04.1-.04h0c0-.1.08-.19.19-.19s.19.08.19.19h0s.07.04.1.07c0-.03,0-.06,0-.1,0-.15-.12-.28-.28-.28Z"/>
        <path d="M18.45,25.37c-.15,0-.26.12-.27.26,0,.05.01.09.04.13.03-.02.06-.04.09-.04-.01-.03-.01-.06,0-.09-.02-.09.04-.18.13-.2s.18.04.2.13c0,.02,0,.05,0,.07,0,.02,0,.04,0,.06l.09.04s0-.06,0-.1c0-.14-.12-.26-.26-.26,0,0-.02,0-.02,0Z"/>
        <path d="M20.14,23.44c-.15,0-.26.12-.26.27,0,.01,0,.03,0,.04h.08c0-.09.08-.17.17-.17.09,0,.17.08.17.17,0,.01,0,.03,0,.04l.08.04c.05-.14-.02-.28-.16-.33-.03-.01-.06-.02-.09-.02v-.04Z"/>
        <path d="M21.07,25.24c-.13,0-.24.09-.26.22.04-.04.09-.06.14-.07.03-.03.07-.05.12-.05.05,0,.1.02.13.07h0s.09.05.12.1c0-.14-.11-.25-.25-.25Z"/>
        <path d="M23.7,25.05s.03,0,.05,0c-.01-.07,0-.14.06-.19.09-.09.23-.09.32,0,.06.05.08.13.05.21h0s.05.06.06.09c.09-.13.08-.31-.02-.42-.08-.09-.19-.13-.31-.1-.03,0-.07,0-.1,0h0s-.03,0-.05,0c-.02.02-.04.05-.06.07-.05.1-.05.21,0,.31,0,.01,0,.02,0,.04Z"/>
        <path d="M26.28,23.44c-.28,0-.52.22-.53.51.06-.04.14-.06.21-.06h0c.03-.15.17-.25.32-.25.19,0,.34.16.34.34,0,.1-.05.19-.13.25.02.06.04.12.04.18h0c.15-.08.25-.24.27-.41.02-.29-.2-.54-.48-.56-.01,0-.03,0-.04,0Z"/>
        <path d="M25.78,24.97c-.17,0-.31.14-.31.31h0s.07,0,.1,0c0-.11.1-.19.2-.19.11,0,.2.09.2.2h0s.1.06.1.06c0-.03,0-.05,0-.08,0-.16-.13-.3-.29-.31Z"/>
        <path d="M29.56,24.06c-.19,0-.34.14-.34.33,0,0,0,0,0,0,0,.04,0,.07,0,.11.03-.03.07-.05.1-.07,0-.01,0-.03,0-.04.02-.12.14-.2.26-.18.09.02.16.09.18.18,0,.02,0,.04,0,.06.04.02.07.04.1.07.01-.04.01-.09,0-.13,0-.17-.13-.32-.3-.34Z"/>
        <path d="M27.7,25.69c-.15,0-.27.13-.27.28-.01.04-.01.08,0,.12l.08-.06s0-.04,0-.06c0-.09.07-.17.16-.18,0,0,0,0,0,0,.1,0,.18.08.18.18h0s.09,0,.09,0c0-.01,0-.03,0-.04-.02-.13-.13-.22-.25-.23Z"/>
        <path d="M29.22,25.28c-.12,0-.22.1-.22.22-.01.03-.01.07,0,.1,0-.03.03-.05.06-.07,0-.01,0-.03,0-.04,0-.07.05-.14.13-.14,0,0,.01,0,.02,0,.08,0,.14.06.14.14,0,.02,0,.05,0,.07.02.02.04.05.04.07.04-.04.05-.1.05-.16,0-.11-.1-.2-.22-.21Z"/>
        <path d="M25.73,29.57c-.2,0-.36.15-.36.35,0,0,0,0,0,0,0,.2.16.36.36.36.2,0,.36-.16.36-.36,0,0,0,0,0,0,0-.19-.15-.35-.34-.36,0,0-.01,0-.02,0ZM25.73,30.17c-.13,0-.24-.11-.24-.24.02-.13.15-.22.28-.19.1.02.18.09.19.19,0,.13-.1.23-.23.24Z"/>
        <path d="M21.88,29.21c-.29,0-.53.24-.53.53,0,.05,0,.09,0,.14.05-.05.11-.09.17-.11h0c0-.19.16-.34.34-.34.19,0,.34.15.34.34h0c.07.02.13.05.18.1,0-.03,0-.06,0-.09.02-.29-.2-.54-.48-.56,0,0-.01,0-.02,0Z"/>
        <path d="M20.42,34.91c-.21,0-.38.16-.38.36,0,0,0,0,0,0,0,.21.17.38.38.38h0c.21,0,.37-.17.37-.37,0,0,0,0,0,0,0-.21-.17-.37-.37-.37ZM20.42,35.52c-.14,0-.25-.11-.25-.25,0-.14.11-.25.25-.25.14,0,.25.11.25.25,0,.14-.11.25-.25.25Z"/>
        <path d="M17.9,35.4c-.18,0-.32.15-.32.32,0,.03,0,.05,0,.08.03-.03.06-.06.1-.08,0-.11.09-.2.21-.21.11,0,.2.09.21.2.04.02.07.05.1.08,0-.02,0-.05,0-.07,0-.17-.13-.31-.3-.32Z"/>
        <path d="M22.69,31.26c-.18,0-.32.15-.32.32,0,.03,0,.05,0,.08.03-.03.06-.06.1-.08,0-.11.09-.2.21-.21.11,0,.2.09.21.2.04.02.07.05.1.08,0-.02,0-.05,0-.07,0-.17-.13-.31-.3-.32Z"/>
        <path d="M20.42,32.62c-.12,0-.22.1-.22.22s.1.22.22.22.22-.1.22-.22h0c0-.12-.09-.22-.21-.22,0,0-.01,0-.02,0ZM20.42,32.93s-.09-.03-.1-.08c0,0,0,0,0,0,0-.05.04-.1.1-.1.05,0,.09.04.09.09,0,0,0,0,0,0,0,.05-.04.09-.09.09h0Z"/>
      </g>
      <g>
        <path d="M17.99,29.77c-.2,0-.37.16-.38.36.06-.04.13-.06.21-.07.03-.06.1-.1.17-.1.1,0,.18.07.19.17h0c.07.03.12.08.17.14,0-.04,0-.08,0-.12,0-.2-.16-.37-.36-.38Z"/>
        <path d="M19.59,28.93c-.21,0-.38.17-.38.38h0c0,.09.03.17.09.24.06-.04.12-.07.19-.07-.06-.03-.1-.1-.1-.16,0-.1.08-.19.18-.19,0,0,.01,0,.02,0,.11,0,.19.09.19.19h0c0,.08-.05.16-.13.18.07.02.13.06.18.1.08-.07.13-.17.13-.28,0-.21-.17-.38-.38-.38Z"/>
        <path d="M23.85,27.31c-.15,0-.27.13-.28.28,0,.15.13.27.28.27.15,0,.27-.12.27-.27h0c0-.15-.12-.27-.27-.28ZM23.85,27.73c-.08,0-.14-.06-.15-.13,0-.08.06-.14.13-.15.08,0,.14.06.15.13,0,0,0,0,0,0,0,.08-.06.14-.13.14Z"/>
        <path d="M23.8,30.58c-.17,0-.31.15-.31.32,0,.03,0,.06,0,.08.04-.03.09-.05.14-.06h0c0-.09.07-.16.16-.16s.16.07.16.16h0c.05.02.1.04.14.07,0-.03,0-.07,0-.1,0-.17-.13-.3-.3-.31Z"/>
        <path d="M21.81,30.39c-.19,0-.34.16-.34.34,0,.03,0,.06,0,.08.05-.03.1-.05.16-.06h0c0-.09.08-.17.17-.17,0,0,0,0,0,0,.09,0,.17.08.17.17h0c.06.02.11.05.16.08,0-.04,0-.07,0-.11,0-.18-.14-.32-.32-.34Z"/>
        <path d="M17.99,34.71c-.21,0-.38.17-.38.38h0s0,.04,0,.07c.05-.03.12-.05.18-.05h0c0-.11.09-.19.19-.19h0c.11,0,.19.09.19.19h0s0,.04,0,.07h0c.06.03.11.06.15.1.04-.05.05-.12.05-.18,0-.21-.16-.38-.37-.39,0,0-.01,0-.02,0Z"/>
        <path d="M17.4,36.61c-.11,0-.19.09-.19.2,0,.02,0,.04,0,.05h.08c0-.05.04-.1.09-.1,0,0,0,0,0,0,.06,0,.1.05.1.1h0l.08.04s0-.03,0-.04c.03-.1-.03-.21-.13-.24-.01,0-.02,0-.04,0Z"/>
        <path d="M28.97,28.52c-.11,0-.19.09-.19.2,0,.02,0,.03,0,.05.03,0,.06,0,.09,0h0c0-.05.04-.1.1-.1s.1.04.1.1h0s.06,0,.09,0v-.03c.02-.11-.06-.2-.16-.22,0,0-.01,0-.02,0Z"/>
        <path d="M19.21,35.49c-.11,0-.2.09-.2.19-.01.03-.01.06,0,.09.02-.03.04-.06.07-.07h0c0-.05.04-.1.1-.1,0,0,0,0,0,0,.05,0,.1.04.1.1,0,.01,0,.03,0,.04h0s.04.04.05.07c.03-.03.05-.07.05-.11,0-.11-.07-.2-.18-.21,0,0,0,0,0,0Z"/>
        <path d="M16.36,31.28c-.11,0-.2.09-.2.2h0s0,.03,0,.04h.09c0-.06.05-.1.1-.1h0c.05,0,.1.04.1.1,0,0,0,0,0,0h0l.09.04s0-.03,0-.05c.01-.11-.07-.21-.18-.22,0,0,0,0,0,0Z"/>
        <path d="M22.54,32.29c-.11.02-.18.13-.16.24.02.08.08.14.16.16.11-.02.18-.13.16-.24-.02-.08-.08-.14-.16-.16ZM22.54,32.58c-.06,0-.1-.05-.1-.1,0-.05.04-.1.1-.1,0,0,0,0,0,0,.05,0,.1.04.1.1,0,.05-.04.1-.09.1,0,0,0,0,0,0Z"/>
        <path d="M20.36,27.7c-.11,0-.19.09-.19.19h.09c0-.05.04-.1.1-.1,0,0,0,0,0,0,.05,0,.1.04.1.1h0l.09.04s0-.04,0-.07c-.01-.1-.09-.17-.19-.17Z"/>
        <path d="M14.35,32.75c-.11,0-.2.09-.2.19,0,.01,0,.03,0,.04.02-.02.06-.04.09-.04h0c0-.05.04-.1.1-.1,0,0,0,0,0,0,.05,0,.1.04.1.1,0,.02,0,.03,0,.05.03.02.05.04.07.07.03-.03.05-.08.04-.13,0-.11-.08-.2-.19-.2,0,0-.01,0-.02,0Z"/>
        <path d="M27.61,26.42s-.09-.07-.15-.07c-.05,0-.1.02-.14.06h.04s.05,0,.07,0c.05-.02.11.01.12.06,0,.01,0,.03,0,.04,0,.05-.04.1-.09.1,0,0,0,0,0,0,0,.03,0,.06,0,.1h0c.11,0,.19-.09.19-.19,0,0,0,0,0,0,0-.03-.02-.06-.04-.09Z"/>
        <path d="M20.17,33.83c-.21,0-.39.17-.39.39h0c0,.07.02.13.06.19.03-.06.08-.1.13-.13,0-.02,0-.03,0-.05-.02-.11.05-.21.16-.24.11-.02.21.05.24.16,0,.03,0,.05,0,.08,0,.02,0,.03,0,.05.06.03.11.08.14.13.04-.06.05-.12.05-.19,0-.21-.16-.38-.37-.39,0,0-.02,0-.02,0Z"/>
        <path d="M13.69,34.53c-.19,0-.34.15-.34.34h0s-.01.09,0,.13c.05-.03.1-.05.16-.05,0-.03,0-.06,0-.08,0-.09.08-.17.17-.17s.17.08.17.17c0,.05-.02.1-.07.13.05.02.1.06.13.11.06-.06.1-.15.1-.24,0-.18-.15-.33-.33-.34Z"/>
        <path d="M11.29,36.43c-.2,0-.37.15-.39.35.06-.03.13-.05.19-.06.04-.06.11-.1.18-.1.1,0,.18.08.19.18.07.03.13.08.17.14,0-.04,0-.08,0-.12,0-.2-.14-.37-.34-.39Z"/>
        <path d="M13.33,35.85c-.21,0-.38.16-.39.37,0,0,0,0,0,0h0c.06-.01.12-.01.19,0,.02-.11.13-.18.24-.16.08.02.14.08.16.16.01.03.01.07,0,.1.05.03.1.07.15.12.04-.06.07-.14.07-.22,0-.21-.17-.38-.38-.38-.01,0-.02,0-.03,0Z"/>
        <path d="M18.66,31.14c-.16,0-.29.13-.29.29h0s0,.05,0,.07c.03-.02.06-.04.1-.04h0c0-.1.08-.19.19-.19s.19.08.19.19h0s.07.04.1.07c0-.03,0-.06,0-.1,0-.15-.12-.28-.28-.28Z"/>
        <path d="M22.57,24.91c-.15,0-.26.12-.27.26,0,.05.01.09.04.13.03-.02.06-.04.09-.04-.01-.03-.01-.06,0-.09-.02-.09.04-.18.13-.2s.18.04.2.13c0,.02,0,.05,0,.07,0,.02,0,.04,0,.06l.09.04s0-.06,0-.1c0-.14-.12-.26-.26-.26,0,0-.02,0-.02,0Z"/>
        <path d="M25.19,24.78c-.13,0-.24.09-.26.22.04-.04.09-.06.14-.07.03-.03.07-.05.12-.05.05,0,.1.02.13.07h0s.09.05.12.1c0-.14-.11-.25-.25-.25Z"/>
        <path d="M27.82,24.59s.03,0,.05,0c-.01-.07,0-.14.06-.19.09-.09.23-.09.32,0,.06.05.08.13.05.21h0s.05.06.06.09c.09-.13.08-.31-.02-.42-.08-.09-.19-.13-.31-.1-.03,0-.07,0-.1,0h0s-.03,0-.05,0c-.02.02-.04.05-.06.07-.05.1-.05.21,0,.31,0,.01,0,.02,0,.04Z"/>
        <path d="M29.89,24.5c-.17,0-.31.14-.31.31h0s.07,0,.1,0c0-.11.1-.19.2-.19.11,0,.2.09.2.2h0s.1.06.1.06c0-.03,0-.05,0-.08,0-.16-.13-.3-.29-.31Z"/>
        <path d="M33.68,23.6c-.19,0-.34.14-.34.33,0,0,0,0,0,0,0,.04,0,.07,0,.11.03-.03.07-.05.1-.07,0-.01,0-.03,0-.04.02-.12.14-.2.26-.18.09.02.16.09.18.18,0,.02,0,.04,0,.06.04.02.07.04.1.07.01-.04.01-.09,0-.13,0-.17-.13-.32-.3-.34Z"/>
        <path d="M31.82,25.23c-.15,0-.27.13-.27.28-.01.04-.01.08,0,.12l.08-.06s0-.04,0-.06c0-.09.07-.17.16-.18,0,0,0,0,0,0,.1,0,.18.08.18.18h0s.09,0,.09,0c0-.01,0-.03,0-.04-.02-.13-.13-.22-.25-.23Z"/>
        <path d="M33.33,24.82c-.12,0-.22.1-.22.22-.01.03-.01.07,0,.1,0-.03.03-.05.06-.07,0-.01,0-.03,0-.04,0-.07.05-.14.13-.14,0,0,.01,0,.02,0,.08,0,.14.06.14.14,0,.02,0,.05,0,.07.02.02.04.05.04.07.04-.04.05-.1.05-.16,0-.11-.1-.2-.22-.21Z"/>
        <path d="M29.84,29.11c-.2,0-.36.15-.36.35,0,0,0,0,0,0,0,.2.16.36.36.36.2,0,.36-.16.36-.36,0,0,0,0,0,0,0-.19-.15-.35-.34-.36,0,0-.01,0-.02,0ZM29.84,29.71c-.13,0-.24-.11-.24-.24.02-.13.15-.22.28-.19.1.02.18.09.19.19,0,.13-.1.23-.23.24Z"/>
        <path d="M25.99,28.75c-.29,0-.53.24-.53.53,0,.05,0,.09,0,.14.05-.05.11-.09.17-.11h0c0-.19.16-.34.34-.34.19,0,.34.15.34.34h0c.07.02.13.05.18.1,0-.03,0-.06,0-.09.02-.29-.2-.54-.48-.56,0,0-.01,0-.02,0Z"/>
        <path d="M24.54,34.44c-.21,0-.38.16-.38.36,0,0,0,0,0,0,0,.21.17.38.38.38h0c.21,0,.37-.17.37-.37,0,0,0,0,0,0,0-.21-.17-.37-.37-.37ZM24.54,35.06c-.14,0-.25-.11-.25-.25,0-.14.11-.25.25-.25.14,0,.25.11.25.25,0,.14-.11.25-.25.25Z"/>
        <path d="M22.02,34.94c-.18,0-.32.15-.32.32,0,.03,0,.05,0,.08.03-.03.06-.06.1-.08,0-.11.09-.2.21-.21.11,0,.2.09.21.2.04.02.07.05.1.08,0-.02,0-.05,0-.07,0-.17-.13-.31-.3-.32Z"/>
        <path d="M26.81,30.8c-.18,0-.32.15-.32.32,0,.03,0,.05,0,.08.03-.03.06-.06.1-.08,0-.11.09-.2.21-.21.11,0,.2.09.21.2.04.02.07.05.1.08,0-.02,0-.05,0-.07,0-.17-.13-.31-.3-.32Z"/>
        <path d="M24.54,32.16c-.12,0-.22.1-.22.22s.1.22.22.22.22-.1.22-.22h0c0-.12-.09-.22-.21-.22,0,0-.01,0-.02,0ZM24.54,32.47s-.09-.03-.1-.08c0,0,0,0,0,0,0-.05.04-.1.1-.1.05,0,.09.04.09.09,0,0,0,0,0,0,0,.05-.04.09-.09.09h0Z"/>
      </g>
      <g>
        <path d="M28.36,29.86c-.2,0-.37.16-.38.36.06-.04.13-.06.21-.07.03-.06.1-.1.17-.1.1,0,.18.07.19.17h0c.07.03.12.08.17.14,0-.04,0-.08,0-.12,0-.2-.16-.37-.36-.38Z"/>
        <path d="M29.95,29.02c-.21,0-.38.17-.38.38h0c0,.09.03.17.09.24.06-.04.12-.07.19-.07-.06-.03-.1-.1-.1-.16,0-.1.08-.19.18-.19,0,0,.01,0,.02,0,.11,0,.19.09.19.19h0c0,.08-.05.16-.13.18.07.02.13.06.18.1.08-.07.13-.17.13-.28,0-.21-.17-.38-.38-.38Z"/>
        <path d="M34.21,27.4c-.15,0-.27.13-.28.28,0,.15.13.27.28.27.15,0,.27-.12.27-.27h0c0-.15-.12-.27-.27-.28ZM34.21,27.82c-.08,0-.14-.06-.15-.13,0-.08.06-.14.13-.15.08,0,.14.06.15.13,0,0,0,0,0,0,0,.08-.06.14-.13.14Z"/>
        <path d="M34.16,30.67c-.17,0-.31.15-.31.32,0,.03,0,.06,0,.08.04-.03.09-.05.14-.06h0c0-.09.07-.16.16-.16s.16.07.16.16h0c.05.02.1.04.14.07,0-.03,0-.07,0-.1,0-.17-.13-.3-.3-.31Z"/>
        <path d="M32.18,30.48c-.19,0-.34.16-.34.34,0,.03,0,.06,0,.08.05-.03.1-.05.16-.06h0c0-.09.08-.17.17-.17,0,0,0,0,0,0,.09,0,.17.08.17.17h0c.06.02.11.05.16.08,0-.04,0-.07,0-.11,0-.18-.14-.32-.32-.34Z"/>
        <path d="M28.36,34.79c-.21,0-.38.17-.38.38h0s0,.04,0,.07c.05-.03.12-.05.18-.05h0c0-.11.09-.19.19-.19h0c.11,0,.19.09.19.19h0s0,.04,0,.07h0c.06.03.11.06.15.1.04-.05.05-.12.05-.18,0-.21-.16-.38-.37-.39,0,0-.01,0-.02,0Z"/>
        <path d="M27.76,36.7c-.11,0-.19.09-.19.2,0,.02,0,.04,0,.05h.08c0-.05.04-.1.09-.1,0,0,0,0,0,0,.06,0,.1.05.1.1h0l.08.04s0-.03,0-.04c.03-.1-.03-.21-.13-.24-.01,0-.02,0-.04,0Z"/>
        <path d="M39.33,28.61c-.11,0-.19.09-.19.2,0,.02,0,.03,0,.05.03,0,.06,0,.09,0h0c0-.05.04-.1.1-.1s.1.04.1.1h0s.06,0,.09,0v-.03c.02-.11-.06-.2-.16-.22,0,0-.01,0-.02,0Z"/>
        <path d="M29.57,35.58c-.11,0-.2.09-.2.19-.01.03-.01.06,0,.09.02-.03.04-.06.07-.07h0c0-.05.04-.1.1-.1,0,0,0,0,0,0,.05,0,.1.04.1.1,0,.01,0,.03,0,.04h0s.04.04.05.07c.03-.03.05-.07.05-.11,0-.11-.07-.2-.18-.21,0,0,0,0,0,0Z"/>
        <path d="M26.72,31.37c-.11,0-.2.09-.2.2h0s0,.03,0,.04h.09c0-.06.05-.1.1-.1h0c.05,0,.1.04.1.1,0,0,0,0,0,0h0l.09.04s0-.03,0-.05c.01-.11-.07-.21-.18-.22,0,0,0,0,0,0Z"/>
        <path d="M32.9,32.37c-.11.02-.18.13-.16.24.02.08.08.14.16.16.11-.02.18-.13.16-.24-.02-.08-.08-.14-.16-.16ZM32.9,32.67c-.06,0-.1-.05-.1-.1,0-.05.04-.1.1-.1,0,0,0,0,0,0,.05,0,.1.04.1.1,0,.05-.04.1-.09.1,0,0,0,0,0,0Z"/>
        <path d="M30.72,27.79c-.11,0-.19.09-.19.19h.09c0-.05.04-.1.1-.1,0,0,0,0,0,0,.05,0,.1.04.1.1h0l.09.04s0-.04,0-.07c-.01-.1-.09-.17-.19-.17Z"/>
        <path d="M24.71,32.84c-.11,0-.2.09-.2.19,0,.01,0,.03,0,.04.02-.02.06-.04.09-.04h0c0-.05.04-.1.1-.1,0,0,0,0,0,0,.05,0,.1.04.1.1,0,.02,0,.03,0,.05.03.02.05.04.07.07.03-.03.05-.08.04-.13,0-.11-.08-.2-.19-.2,0,0-.01,0-.02,0Z"/>
        <path d="M37.97,26.51s-.09-.07-.15-.07c-.05,0-.1.02-.14.06h.04s.05,0,.07,0c.05-.02.11.01.12.06,0,.01,0,.03,0,.04,0,.05-.04.1-.09.1,0,0,0,0,0,0,0,.03,0,.06,0,.1h0c.11,0,.19-.09.19-.19,0,0,0,0,0,0,0-.03-.02-.06-.04-.09Z"/>
        <path d="M30.53,33.92c-.21,0-.39.17-.39.39h0c0,.07.02.13.06.19.03-.06.08-.1.13-.13,0-.02,0-.03,0-.05-.02-.11.05-.21.16-.24.11-.02.21.05.24.16,0,.03,0,.05,0,.08,0,.02,0,.03,0,.05.06.03.11.08.14.13.04-.06.05-.12.05-.19,0-.21-.16-.38-.37-.39,0,0-.02,0-.02,0Z"/>
        <path d="M24.05,34.62c-.19,0-.34.15-.34.34h0s-.01.09,0,.13c.05-.03.1-.05.16-.05,0-.03,0-.06,0-.08,0-.09.08-.17.17-.17s.17.08.17.17c0,.05-.02.1-.07.13.05.02.1.06.13.11.06-.06.1-.15.1-.24,0-.18-.15-.33-.33-.34Z"/>
        <path d="M21.65,36.51c-.2,0-.37.15-.39.35.06-.03.13-.05.19-.06.04-.06.11-.1.18-.1.1,0,.18.08.19.18.07.03.13.08.17.14,0-.04,0-.08,0-.12,0-.2-.14-.37-.34-.39Z"/>
        <path d="M23.69,35.94c-.21,0-.38.16-.39.37,0,0,0,0,0,0h0c.06-.01.12-.01.19,0,.02-.11.13-.18.24-.16.08.02.14.08.16.16.01.03.01.07,0,.1.05.03.1.07.15.12.04-.06.07-.14.07-.22,0-.21-.17-.38-.38-.38-.01,0-.02,0-.03,0Z"/>
        <path d="M29.03,31.23c-.16,0-.29.13-.29.29h0s0,.05,0,.07c.03-.02.06-.04.1-.04h0c0-.1.08-.19.19-.19s.19.08.19.19h0s.07.04.1.07c0-.03,0-.06,0-.1,0-.15-.12-.28-.28-.28Z"/>
        <path d="M32.93,24.99c-.15,0-.26.12-.27.26,0,.05.01.09.04.13.03-.02.06-.04.09-.04-.01-.03-.01-.06,0-.09-.02-.09.04-.18.13-.2s.18.04.2.13c0,.02,0,.05,0,.07,0,.02,0,.04,0,.06l.09.04s0-.06,0-.1c0-.14-.12-.26-.26-.26,0,0-.02,0-.02,0Z"/>
        <path d="M34.62,23.07c-.15,0-.26.12-.26.27,0,.01,0,.03,0,.04h.08c0-.09.08-.17.17-.17.09,0,.17.08.17.17,0,.01,0,.03,0,.04l.08.04c.05-.14-.02-.28-.16-.33-.03-.01-.06-.02-.09-.02v-.04Z"/>
        <path d="M35.55,24.87c-.13,0-.24.09-.26.22.04-.04.09-.06.14-.07.03-.03.07-.05.12-.05.05,0,.1.02.13.07h0s.09.05.12.1c0-.14-.11-.25-.25-.25Z"/>
        <path d="M38.18,24.68s.03,0,.05,0c-.01-.07,0-.14.06-.19.09-.09.23-.09.32,0,.06.05.08.13.05.21h0s.05.06.06.09c.09-.13.08-.31-.02-.42-.08-.09-.19-.13-.31-.1-.03,0-.07,0-.1,0h0s-.03,0-.05,0c-.02.02-.04.05-.06.07-.05.1-.05.21,0,.31,0,.01,0,.02,0,.04Z"/>
        <path d="M40.26,24.59c-.17,0-.31.14-.31.31h0s.07,0,.1,0c0-.11.1-.19.2-.19.11,0,.2.09.2.2h0s.1.06.1.06c0-.03,0-.05,0-.08,0-.16-.13-.3-.29-.31Z"/>
        <path d="M44.04,23.69c-.19,0-.34.14-.34.33,0,0,0,0,0,0,0,.04,0,.07,0,.11.03-.03.07-.05.1-.07,0-.01,0-.03,0-.04.02-.12.14-.2.26-.18.09.02.16.09.18.18,0,.02,0,.04,0,.06.04.02.07.04.1.07.01-.04.01-.09,0-.13,0-.17-.13-.32-.3-.34Z"/>
        <path d="M42.18,25.32c-.15,0-.27.13-.27.28-.01.04-.01.08,0,.12l.08-.06s0-.04,0-.06c0-.09.07-.17.16-.18,0,0,0,0,0,0,.1,0,.18.08.18.18h0s.09,0,.09,0c0-.01,0-.03,0-.04-.02-.13-.13-.22-.25-.23Z"/>
        <path d="M43.7,24.91c-.12,0-.22.1-.22.22-.01.03-.01.07,0,.1,0-.03.03-.05.06-.07,0-.01,0-.03,0-.04,0-.07.05-.14.13-.14,0,0,.01,0,.02,0,.08,0,.14.06.14.14,0,.02,0,.05,0,.07.02.02.04.05.04.07.04-.04.05-.1.05-.16,0-.11-.1-.2-.22-.21Z"/>
        <path d="M40.2,29.2c-.2,0-.36.15-.36.35,0,0,0,0,0,0,0,.2.16.36.36.36.2,0,.36-.16.36-.36,0,0,0,0,0,0,0-.19-.15-.35-.34-.36,0,0-.01,0-.02,0ZM40.2,29.8c-.13,0-.24-.11-.24-.24.02-.13.15-.22.28-.19.1.02.18.09.19.19,0,.13-.1.23-.23.24Z"/>
        <path d="M36.35,28.84c-.29,0-.53.24-.53.53,0,.05,0,.09,0,.14.05-.05.11-.09.17-.11h0c0-.19.16-.34.34-.34.19,0,.34.15.34.34h0c.07.02.13.05.18.1,0-.03,0-.06,0-.09.02-.29-.2-.54-.48-.56,0,0-.01,0-.02,0Z"/>
        <path d="M34.9,34.53c-.21,0-.38.16-.38.36,0,0,0,0,0,0,0,.21.17.38.38.38h0c.21,0,.37-.17.37-.37,0,0,0,0,0,0,0-.21-.17-.37-.37-.37ZM34.9,35.15c-.14,0-.25-.11-.25-.25,0-.14.11-.25.25-.25.14,0,.25.11.25.25,0,.14-.11.25-.25.25Z"/>
        <path d="M32.38,35.03c-.18,0-.32.15-.32.32,0,.03,0,.05,0,.08.03-.03.06-.06.1-.08,0-.11.09-.2.21-.21.11,0,.2.09.21.2.04.02.07.05.1.08,0-.02,0-.05,0-.07,0-.17-.13-.31-.3-.32Z"/>
        <path d="M37.17,30.89c-.18,0-.32.15-.32.32,0,.03,0,.05,0,.08.03-.03.06-.06.1-.08,0-.11.09-.2.21-.21.11,0,.2.09.21.2.04.02.07.05.1.08,0-.02,0-.05,0-.07,0-.17-.13-.31-.3-.32Z"/>
        <path d="M34.9,32.25c-.12,0-.22.1-.22.22s.1.22.22.22.22-.1.22-.22h0c0-.12-.09-.22-.21-.22,0,0-.01,0-.02,0ZM34.9,32.56s-.09-.03-.1-.08c0,0,0,0,0,0,0-.05.04-.1.1-.1.05,0,.09.04.09.09,0,0,0,0,0,0,0,.05-.04.09-.09.09h0Z"/>
      </g>
      <g>
        <path d="M34.22,30.39c-.2,0-.37.16-.38.36.06-.04.13-.06.21-.07.03-.06.1-.1.17-.1.1,0,.18.07.19.17h0c.07.03.12.08.17.14,0-.04,0-.08,0-.12,0-.2-.16-.37-.36-.38Z"/>
        <path d="M35.81,29.55c-.21,0-.38.17-.38.38h0c0,.09.03.17.09.24.06-.04.12-.07.19-.07-.06-.03-.1-.1-.1-.16,0-.1.08-.19.18-.19,0,0,.01,0,.02,0,.11,0,.19.09.19.19h0c0,.08-.05.16-.13.18.07.02.13.06.18.1.08-.07.13-.17.13-.28,0-.21-.17-.38-.38-.38Z"/>
        <path d="M40.07,27.94c-.15,0-.27.13-.28.28,0,.15.13.27.28.27.15,0,.27-.12.27-.27h0c0-.15-.12-.27-.27-.28Z"/>
        <path d="M40.07,28.35c-.08,0-.14-.06-.15-.13,0-.08.06-.14.13-.15.08,0,.14.06.15.13,0,0,0,0,0,0,0,.08-.06.14-.13.14Z"/>
        <path d="M40.02,31.21c-.17,0-.31.15-.31.32,0,.03,0,.06,0,.08.04-.03.09-.05.14-.06h0c0-.09.07-.16.16-.16s.16.07.16.16h0c.05.02.1.04.14.07,0-.03,0-.07,0-.1,0-.17-.13-.3-.3-.31Z"/>
        <path d="M38.04,31.01c-.19,0-.34.16-.34.34,0,.03,0,.06,0,.08.05-.03.1-.05.16-.06h0c0-.09.08-.17.17-.17,0,0,0,0,0,0,.09,0,.17.08.17.17h0c.06.02.11.05.16.08,0-.04,0-.07,0-.11,0-.18-.14-.32-.32-.34Z"/>
        <path d="M34.22,35.33c-.21,0-.38.17-.38.38h0s0,.04,0,.07c.05-.03.12-.05.18-.05h0c0-.11.09-.19.19-.19h0c.11,0,.19.09.19.19h0s0,.04,0,.07h0c.06.03.11.06.15.1.04-.05.05-.12.05-.18,0-.21-.16-.38-.37-.39,0,0-.01,0-.02,0Z"/>
        <path d="M45.2,29.15c-.11,0-.19.09-.19.2,0,.02,0,.03,0,.05.03,0,.06,0,.09,0h0c0-.05.04-.1.1-.1s.1.04.1.1h0s.06,0,.09,0v-.03c.02-.11-.06-.2-.16-.22,0,0-.01,0-.02,0Z"/>
        <path d="M35.43,36.11c-.11,0-.2.09-.2.19-.01.03-.01.06,0,.09.02-.03.04-.06.07-.07h0c0-.05.04-.1.1-.1,0,0,0,0,0,0,.05,0,.1.04.1.1,0,.01,0,.03,0,.04h0s.04.04.05.07c.03-.03.05-.07.05-.11,0-.11-.07-.2-.18-.21,0,0,0,0,0,0Z"/>
        <path d="M32.58,31.91c-.11,0-.2.09-.2.2h0s0,.03,0,.04h.09c0-.06.05-.1.1-.1h0c.05,0,.1.04.1.1,0,0,0,0,0,0h0l.09.04s0-.03,0-.05c.01-.11-.07-.21-.18-.22,0,0,0,0,0,0Z"/>
        <path d="M38.76,32.91c-.11.02-.18.13-.16.24.02.08.08.14.16.16.11-.02.18-.13.16-.24-.02-.08-.08-.14-.16-.16Z"/>
        <path d="M38.76,33.21c-.06,0-.1-.05-.1-.1,0-.05.04-.1.1-.1,0,0,0,0,0,0,.05,0,.1.04.1.1,0,.05-.04.1-.09.1,0,0,0,0,0,0Z"/>
        <path d="M36.59,28.32c-.11,0-.19.09-.19.19h.09c0-.05.04-.1.1-.1,0,0,0,0,0,0,.05,0,.1.04.1.1h0l.09.04s0-.04,0-.07c-.01-.1-.09-.17-.19-.17Z"/>
        <path d="M30.57,33.37c-.11,0-.2.09-.2.19,0,.01,0,.03,0,.04.02-.02.06-.04.09-.04h0c0-.05.04-.1.1-.1,0,0,0,0,0,0,.05,0,.1.04.1.1,0,.02,0,.03,0,.05.03.02.05.04.07.07.03-.03.05-.08.04-.13,0-.11-.08-.2-.19-.2,0,0-.01,0-.02,0Z"/>
        <path d="M43.83,27.05s-.09-.07-.15-.07c-.05,0-.1.02-.14.06h.04s.05,0,.07,0c.05-.02.11.01.12.06,0,.01,0,.03,0,.04,0,.05-.04.1-.09.1,0,0,0,0,0,0,0,.03,0,.06,0,.1h0c.11,0,.19-.09.19-.19,0,0,0,0,0,0,0-.03-.02-.06-.04-.09Z"/>
        <path d="M36.39,34.45c-.21,0-.39.17-.39.39h0c0,.07.02.13.06.19.03-.06.08-.1.13-.13,0-.02,0-.03,0-.05-.02-.11.05-.21.16-.24.11-.02.21.05.24.16,0,.03,0,.05,0,.08,0,.02,0,.03,0,.05.06.03.11.08.14.13.04-.06.05-.12.05-.19,0-.21-.16-.38-.37-.39,0,0-.02,0-.02,0Z"/>
        <path d="M29.92,35.15c-.19,0-.34.15-.34.34h0s-.01.09,0,.13c.05-.03.1-.05.16-.05,0-.03,0-.06,0-.08,0-.09.08-.17.17-.17s.17.08.17.17c0,.05-.02.1-.07.13.05.02.1.06.13.11.06-.06.1-.15.1-.24,0-.18-.15-.33-.33-.34Z"/>
        <path d="M29.56,36.48c-.21,0-.38.16-.39.37,0,0,0,0,0,0h0c.06-.01.12-.01.19,0,.02-.11.13-.18.24-.16.08.02.14.08.16.16.01.03.01.07,0,.1.05.03.1.07.15.12.04-.06.07-.14.07-.22,0-.21-.17-.38-.38-.38-.01,0-.02,0-.03,0Z"/>
        <path d="M34.89,31.76c-.16,0-.29.13-.29.29h0s0,.05,0,.07c.03-.02.06-.04.1-.04h0c0-.1.08-.19.19-.19s.19.08.19.19h0s.07.04.1.07c0-.03,0-.06,0-.1,0-.15-.12-.28-.28-.28Z"/>
        <path d="M38.79,25.53c-.15,0-.26.12-.27.26,0,.05.01.09.04.13.03-.02.06-.04.09-.04-.01-.03-.01-.06,0-.09-.02-.09.04-.18.13-.2s.18.04.2.13c0,.02,0,.05,0,.07,0,.02,0,.04,0,.06l.09.04s0-.06,0-.1c0-.14-.12-.26-.26-.26,0,0-.02,0-.02,0Z"/>
        <path d="M41.41,25.4c-.13,0-.24.09-.26.22.04-.04.09-.06.14-.07.03-.03.07-.05.12-.05.05,0,.1.02.13.07h0s.09.05.12.1c0-.14-.11-.25-.25-.25Z"/>
        <path d="M44.04,25.22s.03,0,.05,0c-.01-.07,0-.14.06-.19.09-.09.23-.09.32,0,.06.05.08.13.05.21h0s.05.06.06.09c.09-.13.08-.31-.02-.42-.08-.09-.19-.13-.31-.1-.03,0-.07,0-.1,0h0s-.03,0-.05,0c-.02.02-.04.05-.06.07-.05.1-.05.21,0,.31,0,.01,0,.02,0,.04Z"/>
        <path d="M46.63,23.6c-.28,0-.52.22-.53.51.06-.04.14-.06.21-.06h0c.03-.15.17-.25.32-.25.19,0,.34.16.34.34,0,.1-.05.19-.13.25.02.06.04.12.04.18h0c.15-.08.25-.24.27-.41.02-.29-.2-.54-.48-.56-.01,0-.03,0-.04,0Z"/>
        <path d="M46.12,25.13c-.17,0-.31.14-.31.31h0s.07,0,.1,0c0-.11.1-.19.2-.19.11,0,.2.09.2.2h0s.1.06.1.06c0-.03,0-.05,0-.08,0-.16-.13-.3-.29-.31Z"/>
        <path d="M49.9,24.23c-.19,0-.34.14-.34.33,0,0,0,0,0,0,0,.04,0,.07,0,.11.03-.03.07-.05.1-.07,0-.01,0-.03,0-.04.02-.12.14-.2.26-.18.09.02.16.09.18.18,0,.02,0,.04,0,.06.04.02.07.04.1.07.01-.04.01-.09,0-.13,0-.17-.13-.32-.3-.34Z"/>
        <path d="M48.04,25.85c-.15,0-.27.13-.27.28-.01.04-.01.08,0,.12l.08-.06s0-.04,0-.06c0-.09.07-.17.16-.18,0,0,0,0,0,0,.1,0,.18.08.18.18h0s.09,0,.09,0c0-.01,0-.03,0-.04-.02-.13-.13-.22-.25-.23Z"/>
        <path d="M49.56,25.44c-.12,0-.22.1-.22.22-.01.03-.01.07,0,.1,0-.03.03-.05.06-.07,0-.01,0-.03,0-.04,0-.07.05-.14.13-.14,0,0,.01,0,.02,0,.08,0,.14.06.14.14,0,.02,0,.05,0,.07.02.02.04.05.04.07.04-.04.05-.1.05-.16,0-.11-.1-.2-.22-.21Z"/>
        <path d="M46.07,29.74c-.2,0-.36.15-.36.35,0,0,0,0,0,0,0,.2.16.36.36.36.2,0,.36-.16.36-.36,0,0,0,0,0,0,0-.19-.15-.35-.34-.36,0,0-.01,0-.02,0ZM46.07,30.33c-.13,0-.24-.11-.24-.24.02-.13.15-.22.28-.19.1.02.18.09.19.19,0,.13-.1.23-.23.24Z"/>
        <path d="M42.22,29.37c-.29,0-.53.24-.53.53,0,.05,0,.09,0,.14.05-.05.11-.09.17-.11h0c0-.19.16-.34.34-.34.19,0,.34.15.34.34h0c.07.02.13.05.18.1,0-.03,0-.06,0-.09.02-.29-.2-.54-.48-.56,0,0-.01,0-.02,0Z"/>
        <path d="M40.77,35.07c-.21,0-.38.16-.38.36,0,0,0,0,0,0,0,.21.17.38.38.38h0c.21,0,.37-.17.37-.37,0,0,0,0,0,0,0-.21-.17-.37-.37-.37ZM40.77,35.69c-.14,0-.25-.11-.25-.25,0-.14.11-.25.25-.25.14,0,.25.11.25.25,0,.14-.11.25-.25.25Z"/>
        <path d="M38.24,35.56c-.18,0-.32.15-.32.32,0,.03,0,.05,0,.08.03-.03.06-.06.1-.08,0-.11.09-.2.21-.21.11,0,.2.09.21.2.04.02.07.05.1.08,0-.02,0-.05,0-.07,0-.17-.13-.31-.3-.32Z"/>
        <path d="M43.04,31.43c-.18,0-.32.15-.32.32,0,.03,0,.05,0,.08.03-.03.06-.06.1-.08,0-.11.09-.2.21-.21.11,0,.2.09.21.2.04.02.07.05.1.08,0-.02,0-.05,0-.07,0-.17-.13-.31-.3-.32Z"/>
        <path d="M40.77,32.78c-.12,0-.22.1-.22.22s.1.22.22.22.22-.1.22-.22h0c0-.12-.09-.22-.21-.22,0,0-.01,0-.02,0Z"/>
        <path d="M40.77,33.1s-.09-.03-.1-.08c0,0,0,0,0,0,0-.05.04-.1.1-.1.05,0,.09.04.09.09,0,0,0,0,0,0,0,.05-.04.09-.09.09h0Z"/>
      </g>
      <g>
        <path d="M15.15,26.49c-.15,0-.27.13-.28.28,0,.15.13.27.28.27.15,0,.27-.12.27-.27h0c0-.15-.12-.27-.27-.28ZM15.15,26.9c-.08,0-.14-.06-.15-.13,0-.08.06-.14.13-.15.08,0,.14.06.15.13,0,0,0,0,0,0,0,.08-.06.14-.13.14Z"/>
        <path d="M15.09,29.76c-.17,0-.31.15-.31.32,0,.03,0,.06,0,.08.04-.03.09-.05.14-.06h0c0-.09.07-.16.16-.16s.16.07.16.16h0c.05.02.1.04.14.07,0-.03,0-.07,0-.1,0-.17-.13-.3-.3-.31Z"/>
        <path d="M13.11,29.56c-.19,0-.34.16-.34.34,0,.03,0,.06,0,.08.05-.03.1-.05.16-.06h0c0-.09.08-.17.17-.17,0,0,0,0,0,0,.09,0,.17.08.17.17h0c.06.02.11.05.16.08,0-.04,0-.07,0-.11,0-.18-.14-.32-.32-.34Z"/>
        <path d="M9.29,33.88c-.21,0-.38.17-.38.38h0s0,.04,0,.07c.05-.03.12-.05.18-.05h0c0-.11.09-.19.19-.19h0c.11,0,.19.09.19.19h0s0,.04,0,.07h0c.06.03.11.06.15.1.04-.05.05-.12.05-.18,0-.21-.16-.38-.37-.39,0,0-.01,0-.02,0Z"/>
        <path d="M8.7,35.79c-.11,0-.19.09-.19.2,0,.02,0,.04,0,.05h.08c0-.05.04-.1.09-.1,0,0,0,0,0,0,.06,0,.1.05.1.1h0l.08.04s0-.03,0-.04c.03-.1-.03-.21-.13-.24-.01,0-.02,0-.04,0Z"/>
        <path d="M20.27,27.7c-.11,0-.19.09-.19.2,0,.02,0,.03,0,.05.03,0,.06,0,.09,0h0c0-.05.04-.1.1-.1s.1.04.1.1h0s.06,0,.09,0v-.03c.02-.11-.06-.2-.16-.22,0,0-.01,0-.02,0Z"/>
        <path d="M10.51,34.66c-.11,0-.2.09-.2.19-.01.03-.01.06,0,.09.02-.03.04-.06.07-.07h0c0-.05.04-.1.1-.1,0,0,0,0,0,0,.05,0,.1.04.1.1,0,.01,0,.03,0,.04h0s.04.04.05.07c.03-.03.05-.07.05-.11,0-.11-.07-.2-.18-.21,0,0,0,0,0,0Z"/>
        <path d="M13.83,31.46c-.11.02-.18.13-.16.24.02.08.08.14.16.16.11-.02.18-.13.16-.24-.02-.08-.08-.14-.16-.16ZM13.83,31.76c-.06,0-.1-.05-.1-.1,0-.05.04-.1.1-.1,0,0,0,0,0,0,.05,0,.1.04.1.1,0,.05-.04.1-.09.1,0,0,0,0,0,0Z"/>
        <path d="M18.91,25.6s-.09-.07-.15-.07c-.05,0-.1.02-.14.06h.04s.05,0,.07,0c.05-.02.11.01.12.06,0,.01,0,.03,0,.04,0,.05-.04.1-.09.1,0,0,0,0,0,0,0,.03,0,.06,0,.1h0c.11,0,.19-.09.19-.19,0,0,0,0,0,0,0-.03-.02-.06-.04-.09Z"/>
        <path d="M11.47,33c-.21,0-.39.17-.39.39h0c0,.07.02.13.06.19.03-.06.08-.1.13-.13,0-.02,0-.03,0-.05-.02-.11.05-.21.16-.24.11-.02.21.05.24.16,0,.03,0,.05,0,.08,0,.02,0,.03,0,.05.06.03.11.08.14.13.04-.06.05-.12.05-.19,0-.21-.16-.38-.37-.39,0,0-.02,0-.02,0Z"/>
        <path d="M19.11,23.77s.03,0,.05,0c-.01-.07,0-.14.06-.19.09-.09.23-.09.32,0,.06.05.08.13.05.21h0s.05.06.06.09c.09-.13.08-.31-.02-.42-.08-.09-.19-.13-.31-.1-.03,0-.07,0-.1,0h0s-.03,0-.05,0c-.02.02-.04.05-.06.07-.05.1-.05.21,0,.31,0,.01,0,.02,0,.04Z"/>
        <path d="M23.11,24.4c-.15,0-.27.13-.27.28-.01.04-.01.08,0,.12l.08-.06s0-.04,0-.06c0-.09.07-.17.16-.18,0,0,0,0,0,0,.1,0,.18.08.18.18h0s.09,0,.09,0c0-.01,0-.03,0-.04-.02-.13-.13-.22-.25-.23Z"/>
        <path d="M24.63,23.99c-.12,0-.22.1-.22.22-.01.03-.01.07,0,.1,0-.03.03-.05.06-.07,0-.01,0-.03,0-.04,0-.07.05-.14.13-.14,0,0,.01,0,.02,0,.08,0,.14.06.14.14,0,.02,0,.05,0,.07.02.02.04.05.04.07.04-.04.05-.1.05-.16,0-.11-.1-.2-.22-.21Z"/>
        <path d="M21.14,28.29c-.2,0-.36.15-.36.35,0,0,0,0,0,0,0,.2.16.36.36.36.2,0,.36-.16.36-.36,0,0,0,0,0,0,0-.19-.15-.35-.34-.36,0,0-.01,0-.02,0ZM21.14,28.89c-.13,0-.24-.11-.24-.24.02-.13.15-.22.28-.19.1.02.18.09.19.19,0,.13-.1.23-.23.24Z"/>
        <path d="M17.29,27.93c-.29,0-.53.24-.53.53,0,.05,0,.09,0,.14.05-.05.11-.09.17-.11h0c0-.19.16-.34.34-.34.19,0,.34.15.34.34h0c.07.02.13.05.18.1,0-.03,0-.06,0-.09.02-.29-.2-.54-.48-.56,0,0-.01,0-.02,0Z"/>
        <path d="M15.84,33.62c-.21,0-.38.16-.38.36,0,0,0,0,0,0,0,.21.17.38.38.38h0c.21,0,.37-.17.37-.37,0,0,0,0,0,0,0-.21-.17-.37-.37-.37ZM15.84,34.24c-.14,0-.25-.11-.25-.25,0-.14.11-.25.25-.25.14,0,.25.11.25.25,0,.14-.11.25-.25.25Z"/>
        <path d="M13.31,34.11c-.18,0-.32.15-.32.32,0,.03,0,.05,0,.08.03-.03.06-.06.1-.08,0-.11.09-.2.21-.21.11,0,.2.09.21.2.04.02.07.05.1.08,0-.02,0-.05,0-.07,0-.17-.13-.31-.3-.32Z"/>
        <path d="M18.11,29.98c-.18,0-.32.15-.32.32,0,.03,0,.05,0,.08.03-.03.06-.06.1-.08,0-.11.09-.2.21-.21.11,0,.2.09.21.2.04.02.07.05.1.08,0-.02,0-.05,0-.07,0-.17-.13-.31-.3-.32Z"/>
        <path d="M15.84,31.34c-.12,0-.22.1-.22.22s.1.22.22.22.22-.1.22-.22h0c0-.12-.09-.22-.21-.22,0,0-.01,0-.02,0ZM15.84,31.65s-.09-.03-.1-.08c0,0,0,0,0,0,0-.05.04-.1.1-.1.05,0,.09.04.09.09,0,0,0,0,0,0,0,.05-.04.09-.09.09h0Z"/>
        <path d="M12.65,36.4c-.14,0-.26.12-.26.26h0s.01.1.04.13c0-.03.03-.06.06-.07,0-.02,0-.04,0-.07,0-.09.08-.17.17-.17s.17.08.17.17c0,.02,0,.04,0,.05.03,0,.05.03.07.06.03-.03.04-.07.04-.11,0-.14-.1-.26-.24-.26-.02,0-.03,0-.05,0Z"/>
      </g>
      <g>
        <path d="M23.49,32.17c-.2,0-.37.16-.38.36.06-.04.13-.06.21-.07.03-.06.1-.1.17-.1.1,0,.18.07.19.17h0c.07.03.12.08.17.14,0-.04,0-.08,0-.12,0-.2-.16-.37-.36-.38Z"/>
        <path d="M25.08,31.32c-.21,0-.38.17-.38.38h0c0,.09.03.17.09.24.06-.04.12-.07.19-.07-.06-.03-.1-.1-.1-.16,0-.1.08-.19.18-.19,0,0,.01,0,.02,0,.11,0,.19.09.19.19h0c0,.08-.05.16-.13.18.07.02.13.06.18.1.08-.07.13-.17.13-.28,0-.21-.17-.38-.38-.38Z"/>
        <path d="M29.34,29.71c-.15,0-.27.13-.28.28,0,.15.13.27.28.27.15,0,.27-.12.27-.27h0c0-.15-.12-.27-.27-.28ZM29.34,30.13c-.08,0-.14-.06-.15-.13,0-.08.06-.14.13-.15.08,0,.14.06.15.13,0,0,0,0,0,0,0,.08-.06.14-.13.14Z"/>
        <path d="M29.29,32.98c-.17,0-.31.15-.31.32,0,.03,0,.06,0,.08.04-.03.09-.05.14-.06h0c0-.09.07-.16.16-.16s.16.07.16.16h0c.05.02.1.04.14.07,0-.03,0-.07,0-.1,0-.17-.13-.3-.3-.31Z"/>
        <path d="M27.31,32.78c-.19,0-.34.16-.34.34,0,.03,0,.06,0,.08.05-.03.1-.05.16-.06h0c0-.09.08-.17.17-.17,0,0,0,0,0,0,.09,0,.17.08.17.17h0c.06.02.11.05.16.08,0-.04,0-.07,0-.11,0-.18-.14-.32-.32-.34Z"/>
        <path d="M34.47,30.92c-.11,0-.19.09-.19.2,0,.02,0,.03,0,.05.03,0,.06,0,.09,0h0c0-.05.04-.1.1-.1s.1.04.1.1h0s.06,0,.09,0v-.03c.02-.11-.06-.2-.16-.22,0,0-.01,0-.02,0Z"/>
        <path d="M21.85,33.68c-.11,0-.2.09-.2.2h0s0,.03,0,.04h.09c0-.06.05-.1.1-.1h0c.05,0,.1.04.1.1,0,0,0,0,0,0h0l.09.04s0-.03,0-.05c.01-.11-.07-.21-.18-.22,0,0,0,0,0,0Z"/>
        <path d="M28.03,34.68c-.11.02-.18.13-.16.24.02.08.08.14.16.16.11-.02.18-.13.16-.24-.02-.08-.08-.14-.16-.16ZM28.03,34.98c-.06,0-.1-.05-.1-.1,0-.05.04-.1.1-.1,0,0,0,0,0,0,.05,0,.1.04.1.1,0,.05-.04.1-.09.1,0,0,0,0,0,0Z"/>
        <path d="M25.86,30.1c-.11,0-.19.09-.19.19h.09c0-.05.04-.1.1-.1,0,0,0,0,0,0,.05,0,.1.04.1.1h0l.09.04s0-.04,0-.07c-.01-.1-.09-.17-.19-.17Z"/>
        <path d="M19.84,35.14c-.11,0-.2.09-.2.19,0,.01,0,.03,0,.04.02-.02.06-.04.09-.04h0c0-.05.04-.1.1-.1,0,0,0,0,0,0,.05,0,.1.04.1.1,0,.02,0,.03,0,.05.03.02.05.04.07.07.03-.03.05-.08.04-.13,0-.11-.08-.2-.19-.2,0,0-.01,0-.02,0Z"/>
        <path d="M33.1,28.82s-.09-.07-.15-.07c-.05,0-.1.02-.14.06h.04s.05,0,.07,0c.05-.02.11.01.12.06,0,.01,0,.03,0,.04,0,.05-.04.1-.09.1,0,0,0,0,0,0,0,.03,0,.06,0,.1h0c.11,0,.19-.09.19-.19,0,0,0,0,0,0,0-.03-.02-.06-.04-.09Z"/>
        <path d="M25.66,36.22c-.21,0-.39.17-.39.39h0c0,.07.02.13.06.19.03-.06.08-.1.13-.13,0-.02,0-.03,0-.05-.02-.11.05-.21.16-.24.11-.02.21.05.24.16,0,.03,0,.05,0,.08,0,.02,0,.03,0,.05.06.03.11.08.14.13.04-.06.05-.12.05-.19,0-.21-.16-.38-.37-.39,0,0-.02,0-.02,0Z"/>
        <path d="M19.18,36.92c-.19,0-.34.15-.34.34h0s-.01.09,0,.13c.05-.03.1-.05.16-.05,0-.03,0-.06,0-.08,0-.09.08-.17.17-.17s.17.08.17.17c0,.05-.02.1-.07.13.05.02.1.06.13.11.06-.06.1-.15.1-.24,0-.18-.15-.33-.33-.34Z"/>
        <path d="M24.16,33.54c-.16,0-.29.13-.29.29h0s0,.05,0,.07c.03-.02.06-.04.1-.04h0c0-.1.08-.19.19-.19s.19.08.19.19h0s.07.04.1.07c0-.03,0-.06,0-.1,0-.15-.12-.28-.28-.28Z"/>
        <path d="M28.06,27.3c-.15,0-.26.12-.27.26,0,.05.01.09.04.13.03-.02.06-.04.09-.04-.01-.03-.01-.06,0-.09-.02-.09.04-.18.13-.2s.18.04.2.13c0,.02,0,.05,0,.07,0,.02,0,.04,0,.06l.09.04s0-.06,0-.1c0-.14-.12-.26-.26-.26,0,0-.02,0-.02,0Z"/>
        <path d="M29.75,25.37c-.15,0-.26.12-.26.27,0,.01,0,.03,0,.04h.08c0-.09.08-.17.17-.17.09,0,.17.08.17.17,0,.01,0,.03,0,.04l.08.04c.05-.14-.02-.28-.16-.33-.03-.01-.06-.02-.09-.02v-.04Z"/>
        <path d="M30.68,27.18c-.13,0-.24.09-.26.22.04-.04.09-.06.14-.07.03-.03.07-.05.12-.05.05,0,.1.02.13.07h0s.09.05.12.1c0-.14-.11-.25-.25-.25Z"/>
        <path d="M33.31,26.99s.03,0,.05,0c-.01-.07,0-.14.06-.19.09-.09.23-.09.32,0,.06.05.08.13.05.21h0s.05.06.06.09c.09-.13.08-.31-.02-.42-.08-.09-.19-.13-.31-.1-.03,0-.07,0-.1,0h0s-.03,0-.05,0c-.02.02-.04.05-.06.07-.05.1-.05.21,0,.31,0,.01,0,.02,0,.04Z"/>
        <path d="M35.89,25.37c-.28,0-.52.22-.53.51.06-.04.14-.06.21-.06h0c.03-.15.17-.25.32-.25.19,0,.34.16.34.34,0,.1-.05.19-.13.25.02.06.04.12.04.18h0c.15-.08.25-.24.27-.41.02-.29-.2-.54-.48-.56-.01,0-.03,0-.04,0Z"/>
        <path d="M35.39,26.9c-.17,0-.31.14-.31.31h0s.07,0,.1,0c0-.11.1-.19.2-.19.11,0,.2.09.2.2h0s.1.06.1.06c0-.03,0-.05,0-.08,0-.16-.13-.3-.29-.31Z"/>
        <path d="M39.17,26c-.19,0-.34.14-.34.33,0,0,0,0,0,0,0,.04,0,.07,0,.11.03-.03.07-.05.1-.07,0-.01,0-.03,0-.04.02-.12.14-.2.26-.18.09.02.16.09.18.18,0,.02,0,.04,0,.06.04.02.07.04.1.07.01-.04.01-.09,0-.13,0-.17-.13-.32-.3-.34Z"/>
        <path d="M37.31,27.62c-.15,0-.27.13-.27.28-.01.04-.01.08,0,.12l.08-.06s0-.04,0-.06c0-.09.07-.17.16-.18,0,0,0,0,0,0,.1,0,.18.08.18.18h0s.09,0,.09,0c0-.01,0-.03,0-.04-.02-.13-.13-.22-.25-.23Z"/>
        <path d="M38.83,27.21c-.12,0-.22.1-.22.22-.01.03-.01.07,0,.1,0-.03.03-.05.06-.07,0-.01,0-.03,0-.04,0-.07.05-.14.13-.14,0,0,.01,0,.02,0,.08,0,.14.06.14.14,0,.02,0,.05,0,.07.02.02.04.05.04.07.04-.04.05-.1.05-.16,0-.11-.1-.2-.22-.21Z"/>
        <path d="M35.34,31.51c-.2,0-.36.15-.36.35,0,0,0,0,0,0,0,.2.16.36.36.36.2,0,.36-.16.36-.36,0,0,0,0,0,0,0-.19-.15-.35-.34-.36,0,0-.01,0-.02,0ZM35.34,32.11c-.13,0-.24-.11-.24-.24.02-.13.15-.22.28-.19.1.02.18.09.19.19,0,.13-.1.23-.23.24Z"/>
        <path d="M31.49,31.15c-.29,0-.53.24-.53.53,0,.05,0,.09,0,.14.05-.05.11-.09.17-.11h0c0-.19.16-.34.34-.34.19,0,.34.15.34.34h0c.07.02.13.05.18.1,0-.03,0-.06,0-.09.02-.29-.2-.54-.48-.56,0,0-.01,0-.02,0Z"/>
        <path d="M30.03,36.84c-.21,0-.38.16-.38.36,0,0,0,0,0,0,0,.21.17.38.38.38h0c.21,0,.37-.17.37-.37,0,0,0,0,0,0,0-.21-.17-.37-.37-.37ZM30.03,37.46c-.14,0-.25-.11-.25-.25,0-.14.11-.25.25-.25.14,0,.25.11.25.25,0,.14-.11.25-.25.25Z"/>
        <path d="M32.31,33.2c-.18,0-.32.15-.32.32,0,.03,0,.05,0,.08.03-.03.06-.06.1-.08,0-.11.09-.2.21-.21.11,0,.2.09.21.2.04.02.07.05.1.08,0-.02,0-.05,0-.07,0-.17-.13-.31-.3-.32Z"/>
        <path d="M30.03,34.56c-.12,0-.22.1-.22.22s.1.22.22.22.22-.1.22-.22h0c0-.12-.09-.22-.21-.22,0,0-.01,0-.02,0ZM30.03,34.87s-.09-.03-.1-.08c0,0,0,0,0,0,0-.05.04-.1.1-.1.05,0,.09.04.09.09,0,0,0,0,0,0,0,.05-.04.09-.09.09h0Z"/>
      </g>
      <g>
        <path d="M39.88,32.68c-.2,0-.37.16-.38.36.06-.04.13-.06.21-.07.03-.06.1-.1.17-.1.1,0,.18.07.19.17h0c.07.03.12.08.17.14,0-.04,0-.08,0-.12,0-.2-.16-.37-.36-.38Z"/>
        <path d="M41.48,31.84c-.21,0-.38.17-.38.38h0c0,.09.03.17.09.24.06-.04.12-.07.19-.07-.06-.03-.1-.1-.1-.16,0-.1.08-.19.18-.19,0,0,.01,0,.02,0,.11,0,.19.09.19.19h0c0,.08-.05.16-.13.18.07.02.13.06.18.1.08-.07.13-.17.13-.28,0-.21-.17-.38-.38-.38Z"/>
        <path d="M45.74,30.22c-.15,0-.27.13-.28.28,0,.15.13.27.28.27.15,0,.27-.12.27-.27h0c0-.15-.12-.27-.27-.28Z"/>
        <path d="M45.74,30.64c-.08,0-.14-.06-.15-.13,0-.08.06-.14.13-.15.08,0,.14.06.15.13,0,0,0,0,0,0,0,.08-.06.14-.13.14Z"/>
        <path d="M38.24,34.19c-.11,0-.2.09-.2.2h0s0,.03,0,.04h.09c0-.06.05-.1.1-.1h0c.05,0,.1.04.1.1,0,0,0,0,0,0h0l.09.04s0-.03,0-.05c.01-.11-.07-.21-.18-.22,0,0,0,0,0,0Z"/>
        <path d="M42.25,30.61c-.11,0-.19.09-.19.19h.09c0-.05.04-.1.1-.1,0,0,0,0,0,0,.05,0,.1.04.1.1h0l.09.04s0-.04,0-.07c-.01-.1-.09-.17-.19-.17Z"/>
        <path d="M36.23,35.66c-.11,0-.2.09-.2.19,0,.01,0,.03,0,.04.02-.02.06-.04.09-.04h0c0-.05.04-.1.1-.1,0,0,0,0,0,0,.05,0,.1.04.1.1,0,.02,0,.03,0,.05.03.02.05.04.07.07.03-.03.05-.08.04-.13,0-.11-.08-.2-.19-.2,0,0-.01,0-.02,0Z"/>
        <path d="M40.55,34.05c-.16,0-.29.13-.29.29h0s0,.05,0,.07c.03-.02.06-.04.1-.04h0c0-.1.08-.19.19-.19s.19.08.19.19h0s.07.04.1.07c0-.03,0-.06,0-.1,0-.15-.12-.28-.28-.28Z"/>
        <path d="M44.45,27.82c-.15,0-.26.12-.27.26,0,.05.01.09.04.13.03-.02.06-.04.09-.04-.01-.03-.01-.06,0-.09-.02-.09.04-.18.13-.2s.18.04.2.13c0,.02,0,.05,0,.07,0,.02,0,.04,0,.06l.09.04s0-.06,0-.1c0-.14-.12-.26-.26-.26,0,0-.02,0-.02,0Z"/>
        <path d="M46.15,25.89c-.15,0-.26.12-.26.27,0,.01,0,.03,0,.04h.08c0-.09.08-.17.17-.17.09,0,.17.08.17.17,0,.01,0,.03,0,.04l.08.04c.05-.14-.02-.28-.16-.33-.03-.01-.06-.02-.09-.02v-.04Z"/>
        <path d="M47.08,27.69c-.13,0-.24.09-.26.22.04-.04.09-.06.14-.07.03-.03.07-.05.12-.05.05,0,.1.02.13.07h0s.09.05.12.1c0-.14-.11-.25-.25-.25Z"/>
      </g>
    </g>
    <rect class="cls-1" width="60" height="60"/>
  </g>
</svg>