<?xml version="1.0" encoding="UTF-8"?>
<svg id="Réteg_2" xmlns="http://www.w3.org/2000/svg" viewBox="0 0 60 60">
  <defs>
    <style>
      .cls-1, .cls-2 {
        fill: none;
      }

      .cls-2 {
        stroke: #fff;
        stroke-linecap: round;
        stroke-linejoin: round;
        stroke-width: .5px;
      }
    </style>
  </defs>
  <g id="Layer_3">
    <g>
      <path class="cls-2" d="M26.04,36.73c-.92-1.87-2.84-3.15-5.06-3.15-1.34,0-2.57.47-3.53,1.25-.25.2-.48.43-.68.68-.35.37-.63.78-.84,1.23"/>
      <path class="cls-2" d="M17.5,38.94c.06-.86.43-1.63,1-2.21.64-.63,1.51-1.02,2.48-1.02s1.85.39,2.48,1.02c.59.57.96,1.35,1.02,2.21"/>
      <path class="cls-2" d="M8.52,33.58h.09c2.22,0,4.13,1.28,5.04,3.15"/>
      <path class="cls-2" d="M8.52,35.72s.06-.01.09-.01c1.85,0,3.35,1.42,3.49,3.23"/>
      <path class="cls-2" d="M28.38,36.73c.23-.45.5-.86.82-1.23l.08-.08c.12-.15.27-.3.44-.44l.14-.12c.97-.8,2.22-1.28,3.58-1.28,2.73,0,5.02,1.96,5.53,4.55"/>
      <path class="cls-2" d="M29.96,38.94c0-.11.01-.24.03-.35.29-1.64,1.72-2.88,3.44-2.88,1.63,0,3,1.11,3.39,2.63"/>
      <path class="cls-2" d="M29.88,22.39c.98-.83,2.24-1.33,3.61-1.33,2.19,0,4.1,1.26,5.03,3.11"/>
      <path class="cls-2" d="M20.9,21.08c.07-.01.15-.01.21-.01,2.21,0,4.11,1.26,5.03,3.11h.01"/>
      <path class="cls-2" d="M42.23,22.48l.09-.09c.98-.83,2.24-1.33,3.64-1.33,2.73,0,5.01,1.95,5.53,4.55"/>
      <polyline class="cls-2" points="24.48 38.94 26.61 38.94 27.82 38.94 29.96 38.94 29.99 38.94 29.99 38.59"/>
      <line class="cls-2" x1="15.93" y1="36.73" x2="13.65" y2="36.73"/>
      <polyline class="cls-2" points="13.7 38.94 14.23 38.94 15.36 38.94 17.5 38.94"/>
      <line class="cls-2" x1="28.38" y1="36.73" x2="26.04" y2="36.73"/>
      <line class="cls-2" x1="40.54" y1="24.17" x2="38.53" y2="24.17"/>
      <polyline class="cls-2" points="26.15 24.17 26.16 24.17 28.1 24.17"/>
      <polyline class="cls-2" points="42.32 22.39 42.23 22.48 41.73 22.98 40.54 24.17 29.86 34.86 29.72 34.99 29.29 35.42 29.21 35.5"/>
      <polyline class="cls-2" points="29.88 22.39 28.1 24.17 17.45 34.83 17.33 34.93 16.87 35.39 16.77 35.49"/>
      <polyline class="cls-2" points="20.91 21.06 20.9 21.08 8.52 33.46"/>
      <polyline class="cls-2" points="8.52 33.46 8.52 33.58 8.52 35.72"/>
      <line class="cls-2" x1="13.7" y1="38.94" x2="12.1" y2="38.94"/>
      <polyline class="cls-2" points="36.83 38.34 38.75 38.34 38.96 38.13 51.48 25.61"/>
    </g>
    <rect class="cls-1" width="60" height="60"/>
  </g>
</svg>