<?xml version="1.0" encoding="UTF-8"?>
<svg id="Réteg_2" xmlns="http://www.w3.org/2000/svg" viewBox="0 0 60 60">
  <defs>
    <style>
      .cls-1, .cls-2 {
        fill: none;
      }

      .cls-3 {
        fill: #f7c82a;
      }

      .cls-2 {
        stroke: #000;
        stroke-linecap: round;
        stroke-linejoin: round;
        stroke-width: .5px;
      }
    </style>
  </defs>
  <g id="Layer_3">
    <g>
      <polygon class="cls-3" points="47.56 20.92 47.56 20.96 47.56 22.33 43.21 26.46 43.01 26.66 43.01 26.66 37.29 32.39 36.96 32.72 30.63 39.08 8.52 39.08 8.52 37.84 14.49 31.87 19.49 26.88 20.13 26.23 25.13 21.24 25.45 20.92 47.56 20.92"/>
      <polygon class="cls-3" points="47.56 20.96 51.48 24.88 51.48 26.23 43.48 26.23 47.56 22.15 47.56 20.96"/>
      <g>
        <polygon class="cls-2" points="25.13 32.21 25.13 29.38 19.48 32.21 19.48 35.03 25.13 32.21"/>
        <polyline class="cls-2" points="19.48 37.84 19.48 35.04 25.13 32.21 25.13 35.04 19.52 37.84"/>
        <polyline class="cls-2" points="13.87 37.84 19.48 35.04 19.48 32.22 13.83 35.04 13.83 37.84"/>
        <polyline class="cls-2" points="13.83 32.53 13.83 33.77 13.83 35.04 19.48 32.21 19.48 29.38 16.95 30.65 14.49 31.88"/>
        <polyline class="cls-2" points="36.11 32.37 30.78 35.04 30.78 32.21 36.44 29.38 36.44 32.04"/>
        <line class="cls-2" x1="32.93" y1="36.79" x2="32.92" y2="36.8"/>
        <polyline class="cls-2" points="41.82 26.65 36.44 29.36 36.37 29.38 36.37 26.59 36.37 26.55 36.44 26.53 42.02 23.73 42.02 26.46 42.02 26.47"/>
        <polyline class="cls-2" points="42.02 20.92 42.02 20.96 42.02 23.73 45.18 22.15 47.48 20.99 47.56 20.96"/>
        <polyline class="cls-2" points="36.44 20.92 36.44 23.74 36.44 23.74 39.63 22.15 42.02 20.96 42.08 20.92"/>
        <polygon class="cls-2" points="30.78 29.38 30.78 26.56 25.13 29.38 25.13 32.21 30.78 29.38"/>
        <polygon class="cls-2" points="30.78 26.56 30.78 23.73 25.13 26.56 25.13 29.38 30.78 26.56"/>
        <polygon class="cls-2" points="36.44 26.56 36.44 23.73 30.78 26.56 30.78 29.38 36.44 26.56"/>
        <polyline class="cls-2" points="36.44 20.92 36.44 23.74 30.78 26.56 30.78 23.74 36.4 20.92"/>
        <polyline class="cls-2" points="30.78 20.92 30.78 23.74 25.13 26.56 25.13 23.74 30.74 20.92"/>
        <polygon class="cls-2" points="25.13 21.24 25.13 23.73 22.6 25.01 20.13 26.23 25.13 21.24"/>
        <polygon class="cls-2" points="25.13 29.38 25.13 26.56 19.48 29.38 19.48 32.21 25.13 29.38"/>
        <polygon class="cls-2" points="19.49 26.88 19.49 29.38 19.48 29.39 16.95 30.65 14.49 31.87 19.49 26.88"/>
        <polygon class="cls-2" points="36.44 29.38 36.44 26.56 30.78 29.38 30.78 32.21 36.44 29.38"/>
        <polygon class="cls-2" points="47.56 20.92 47.48 20.99 42.02 26.46 42.02 26.47 41.82 26.65 36.44 32.04 36.11 32.37 30.63 37.84 8.52 37.84 13.83 32.53 14.49 31.87 19.49 26.88 20.13 26.23 25.13 21.24 25.45 20.92 47.56 20.92"/>
        <polyline class="cls-2" points="8.52 39.08 30.63 39.08 32.92 36.8 32.93 36.79 36.44 33.28 43.48 26.23 47.56 22.15"/>
        <line class="cls-2" x1="8.52" y1="37.85" x2="8.52" y2="39.08"/>
        <line class="cls-2" x1="30.63" y1="37.85" x2="30.63" y2="39.08"/>
        <line class="cls-2" x1="47.56" y1="20.96" x2="47.56" y2="20.92"/>
        <polyline class="cls-2" points="47.56 22.15 47.56 20.96 51.48 24.88 51.48 26.23 47.56 22.15"/>
        <line class="cls-2" x1="51.48" y1="26.23" x2="43.48" y2="26.23"/>
      </g>
    </g>
    <rect class="cls-1" width="60" height="60"/>
  </g>
</svg>