<?xml version="1.0" encoding="UTF-8"?>
<svg id="Réteg_2" xmlns="http://www.w3.org/2000/svg" viewBox="0 0 60 60">
  <defs>
    <style>
      .cls-1, .cls-2 {
        fill: none;
      }

      .cls-2 {
        stroke: #fff;
        stroke-linecap: round;
        stroke-linejoin: round;
        stroke-width: .5px;
      }
    </style>
  </defs>
  <g id="Layer_3">
    <g>
      <polygon class="cls-2" points="52.78 21.22 33.8 40.22 32.31 38.73 29.98 38.73 28.48 40.23 26.18 40.23 24.7 38.74 22.4 38.74 20.89 40.25 18.6 40.25 17.11 38.76 14.81 38.76 13.31 40.26 11.01 40.26 9.52 38.79 7.22 38.79 26.2 19.8 28.51 19.8 29.99 21.27 32.3 21.27 33.8 19.77 36.1 19.77 37.59 21.26 39.88 21.26 41.39 19.75 43.69 19.75 45.17 21.24 47.47 21.24 48.98 19.74 51.31 19.74 52.78 21.22"/>
      <line class="cls-2" x1="9.52" y1="38.78" x2="28.51" y2="19.79"/>
      <polyline class="cls-2" points="33.8 19.77 32.3 21.27 14.81 38.76"/>
      <line class="cls-2" x1="17.11" y1="38.76" x2="36.1" y2="19.77"/>
      <polyline class="cls-2" points="41.39 19.75 39.88 21.26 22.4 38.74"/>
      <line class="cls-2" x1="24.7" y1="38.74" x2="43.69" y2="19.76"/>
      <line class="cls-2" x1="30.01" y1="38.73" x2="48.99" y2="19.75"/>
      <line class="cls-2" x1="32.31" y1="38.73" x2="51.3" y2="19.74"/>
    </g>
    <rect class="cls-1" width="60" height="60"/>
  </g>
</svg>