<?xml version="1.0" encoding="UTF-8"?>
<svg id="Réteg_2" xmlns="http://www.w3.org/2000/svg" viewBox="0 0 152 135.45">
  <defs>
    <style>
      .cls-1 {
        fill: none;
      }

      .cls-1, .cls-2 {
        stroke: #fff;
        stroke-linecap: round;
        stroke-linejoin: round;
        stroke-width: 2px;
      }

      .cls-2 {
        fill: #f7c82a;
      }
    </style>
  </defs>
  <g id="Réteg_1">
    <g>
      <g>
        <g>
          <g>
            <polyline class="cls-1" points="74.96 91.42 74.96 134.43 8.86 96.81 8.86 54.26"/>
            <polyline class="cls-1" points="120.42 108.17 140.05 96.81 140.05 49.32"/>
            <polyline class="cls-1" points="102.46 118.54 74.97 134.45 74.97 91.42"/>
          </g>
          <g>
            <g>
              <polygon class="cls-2" points="1 44.4 73.74 86.18 112.15 42.87 39.41 1.09 1 44.4"/>
              <polyline class="cls-2" points="151 42.87 112.15 42.87 39.41 1.09"/>
            </g>
            <g>
              <polygon class="cls-2" points="145.56 46.22 151 42.87 112.15 42.87 112.42 49.54 145.56 46.22"/>
              <polyline class="cls-2" points="151 42.87 78.26 1 39.41 1"/>
              <polygon class="cls-2" points="79.7 83.33 73.74 86.18 112.15 42.87 112.42 49.54 79.7 83.33"/>
            </g>
          </g>
        </g>
        <g>
          <g>
            <polyline class="cls-1" points="18.53 60.51 18.53 82.22 29.66 88.58 29.66 66.87"/>
            <polyline class="cls-1" points="35.46 70.13 35.46 91.84 46.59 98.19 46.59 76.49"/>
            <polyline class="cls-1" points="52.33 79.69 52.33 101.4 63.46 107.76 63.46 86.05"/>
          </g>
          <g>
            <g>
              <polyline class="cls-1" points="132.49 59.29 132.49 80.78 121.36 87.14 121.36 65.66"/>
              <polyline class="cls-1" points="97.16 79.81 97.16 101.29 86.03 107.65 86.03 86.17"/>
            </g>
            <g>
              <g>
                <polygon class="cls-1" points="111.24 123.53 124.54 115.86 124.54 110.28 111.24 117.95 111.24 123.53"/>
                <polygon class="cls-1" points="106.86 115.69 120.15 108.02 120.15 102.45 106.86 110.12 106.86 115.69"/>
                <polygon class="cls-1" points="106.86 115.69 120.15 108.02 124.54 110.28 111.24 117.95 106.86 115.69"/>
                <polygon class="cls-1" points="102.46 107.86 115.75 100.19 120.15 102.45 106.86 110.12 102.46 107.86"/>
                <polygon class="cls-1" points="102.46 107.86 102.46 118.66 111.24 123.53 111.24 117.95 106.86 115.69 106.86 110.12 102.46 107.86"/>
              </g>
              <g>
                <polygon class="cls-1" points="102.46 107.86 115.75 100.19 115.75 69.48 102.46 77.15 102.46 107.86"/>
                <path class="cls-1" d="M104.71,90.36c0,.58.47,1.06,1.06,1.06s1.06-.47,1.06-1.06c0-.58-.47-1.06-1.06-1.06s-1.06.47-1.06,1.06Z"/>
              </g>
            </g>
          </g>
        </g>
      </g>
      <line class="cls-1" x1="128.67" y1="50.33" x2="96.67" y2="68.27"/>
    </g>
  </g>
</svg>