<?xml version="1.0" encoding="UTF-8"?>
<svg id="Réteg_2" xmlns="http://www.w3.org/2000/svg" viewBox="0 0 152 140.64">
  <defs>
    <style>
      .cls-1 {
        fill: none;
      }

      .cls-1, .cls-2 {
        stroke: #fff;
        stroke-linecap: round;
        stroke-linejoin: round;
        stroke-width: 2px;
      }

      .cls-2 {
        fill: #f7c82a;
      }
    </style>
  </defs>
  <g id="Réteg_1">
    <g>
      <g>
        <g>
          <g>
            <polyline class="cls-1" points="74.96 96.62 74.96 139.63 8.86 102.01 8.86 59.46"/>
            <polyline class="cls-1" points="120.42 113.36 140.05 102.01 140.05 54.52"/>
            <polyline class="cls-1" points="102.46 123.73 74.97 139.64 74.97 96.62"/>
          </g>
          <g>
            <g>
              <polygon class="cls-2" points="1 49.59 73.74 91.38 112.15 42.79 39.41 1 1 49.59"/>
              <polyline class="cls-2" points="151 48.07 112.15 42.79 39.41 1"/>
            </g>
            <g>
              <polygon class="cls-2" points="145.56 51.41 151 48.07 112.15 42.79 112.42 49.46 145.56 51.41"/>
              <polyline class="cls-2" points="151 48.07 78.26 6.28 39.41 1"/>
              <polygon class="cls-2" points="79.7 88.53 73.74 91.38 112.15 42.79 112.42 49.46 79.7 88.53"/>
            </g>
          </g>
        </g>
        <g>
          <g>
            <polyline class="cls-1" points="18.53 65.71 18.53 87.42 29.66 93.78 29.66 72.07"/>
            <polyline class="cls-1" points="35.46 75.32 35.46 97.03 46.59 103.39 46.59 81.68"/>
            <polyline class="cls-1" points="52.33 84.89 52.33 106.6 63.46 112.96 63.46 91.25"/>
          </g>
          <g>
            <g>
              <polyline class="cls-1" points="132.49 64.49 132.49 85.98 121.36 92.34 121.36 70.85"/>
              <polyline class="cls-1" points="97.16 85 97.16 106.49 86.03 112.84 86.03 91.36"/>
            </g>
            <g>
              <g>
                <polygon class="cls-1" points="111.24 128.72 124.54 121.05 124.54 115.47 111.24 123.15 111.24 128.72"/>
                <polygon class="cls-1" points="106.86 120.89 120.15 113.22 120.15 107.65 106.86 115.31 106.86 120.89"/>
                <polygon class="cls-1" points="106.86 120.89 120.15 113.22 124.54 115.47 111.24 123.15 106.86 120.89"/>
                <polygon class="cls-1" points="102.46 113.06 115.75 105.39 120.15 107.65 106.86 115.31 102.46 113.06"/>
                <polygon class="cls-1" points="102.46 113.06 102.46 123.86 111.24 128.72 111.24 123.15 106.86 120.89 106.86 115.31 102.46 113.06"/>
              </g>
              <g>
                <polygon class="cls-1" points="102.46 113.06 115.75 105.39 115.75 74.67 102.46 82.34 102.46 113.06"/>
                <path class="cls-1" d="M104.71,95.56c0,.58.47,1.06,1.06,1.06s1.06-.47,1.06-1.06c0-.58-.47-1.06-1.06-1.06s-1.06.47-1.06,1.06Z"/>
              </g>
            </g>
          </g>
        </g>
      </g>
      <line class="cls-1" x1="136.91" y1="50.9" x2="87.84" y2="78.41"/>
    </g>
  </g>
</svg>