<?xml version="1.0" encoding="UTF-8"?>
<svg id="Réteg_2" xmlns="http://www.w3.org/2000/svg" viewBox="0 0 152 145.66">
  <defs>
    <style>
      .cls-1 {
        fill: none;
      }

      .cls-1, .cls-2 {
        stroke: #fff;
        stroke-linecap: round;
        stroke-linejoin: round;
        stroke-width: 2px;
      }

      .cls-2 {
        fill: #f7c82a;
      }
    </style>
  </defs>
  <g id="Réteg_1">
    <g>
      <g>
        <g>
          <g>
            <polyline class="cls-1" points="74.96 101.63 74.96 144.64 8.86 107.02 8.86 64.47"/>
            <polyline class="cls-1" points="120.42 118.38 140.05 107.02 140.05 59.53"/>
            <polyline class="cls-1" points="102.46 128.74 74.97 144.66 74.97 101.63"/>
          </g>
          <g>
            <g>
              <polygon class="cls-2" points="1 54.6 73.74 96.39 112.15 42.79 39.41 1 1 54.6"/>
              <polyline class="cls-2" points="151 53.08 112.15 42.79 39.41 1"/>
            </g>
            <g>
              <polygon class="cls-2" points="145.56 56.43 151 53.08 112.15 42.79 112.42 49.46 145.56 56.43"/>
              <polyline class="cls-2" points="151 53.08 78.26 11.3 39.41 1"/>
              <polygon class="cls-2" points="79.7 93.54 73.74 96.39 112.15 42.79 112.42 49.46 79.7 93.54"/>
            </g>
          </g>
        </g>
        <g>
          <g>
            <polyline class="cls-1" points="18.53 70.72 18.53 92.43 29.66 98.79 29.66 77.08"/>
            <polyline class="cls-1" points="35.46 80.33 35.46 102.04 46.59 108.4 46.59 86.7"/>
            <polyline class="cls-1" points="52.33 89.9 52.33 111.61 63.46 117.97 63.46 96.26"/>
          </g>
          <g>
            <g>
              <polyline class="cls-1" points="132.49 69.5 132.49 90.99 121.36 97.35 121.36 75.86"/>
              <polyline class="cls-1" points="97.16 90.01 97.16 111.5 86.03 117.86 86.03 96.38"/>
            </g>
            <g>
              <g>
                <polygon class="cls-1" points="111.24 133.73 124.54 126.06 124.54 120.49 111.24 128.16 111.24 133.73"/>
                <polygon class="cls-1" points="106.86 125.9 120.15 118.23 120.15 112.66 106.86 120.33 106.86 125.9"/>
                <polygon class="cls-1" points="106.86 125.9 120.15 118.23 124.54 120.49 111.24 128.16 106.86 125.9"/>
                <polygon class="cls-1" points="102.46 118.07 115.75 110.4 120.15 112.66 106.86 120.33 102.46 118.07"/>
                <polygon class="cls-1" points="102.46 118.07 102.46 128.87 111.24 133.73 111.24 128.16 106.86 125.9 106.86 120.33 102.46 118.07"/>
              </g>
              <g>
                <polygon class="cls-1" points="102.46 118.07 115.75 110.4 115.75 79.68 102.46 87.35 102.46 118.07"/>
                <path class="cls-1" d="M104.71,100.57c0,.58.47,1.06,1.06,1.06s1.06-.47,1.06-1.06c0-.58-.47-1.06-1.06-1.06s-1.06.47-1.06,1.06Z"/>
              </g>
            </g>
          </g>
        </g>
      </g>
      <line class="cls-1" x1="138.61" y1="54.96" x2="86.76" y2="84.03"/>
    </g>
  </g>
</svg>