<?xml version="1.0" encoding="UTF-8"?>
<svg id="Réteg_2" xmlns="http://www.w3.org/2000/svg" viewBox="0 0 152 151.01">
  <defs>
    <style>
      .cls-1 {
        fill: none;
      }

      .cls-1, .cls-2 {
        stroke: #fff;
        stroke-linecap: round;
        stroke-linejoin: round;
        stroke-width: 2px;
      }

      .cls-2 {
        fill: #f7c82a;
      }
    </style>
  </defs>
  <g id="Réteg_1">
    <g>
      <g>
        <g>
          <g>
            <polyline class="cls-1" points="74.96 106.98 74.96 149.99 8.86 112.37 8.86 69.82"/>
            <polyline class="cls-1" points="120.42 123.73 140.05 112.38 140.05 64.88"/>
            <polyline class="cls-1" points="102.46 134.1 74.97 150.01 74.97 106.98"/>
          </g>
          <g>
            <g>
              <polygon class="cls-2" points="1 59.96 73.74 101.74 112.15 42.79 39.41 1 1 59.96"/>
              <polyline class="cls-2" points="151 58.43 112.15 42.79 39.41 1"/>
            </g>
            <g>
              <polygon class="cls-2" points="145.56 61.78 151 58.43 112.15 42.79 112.42 49.46 145.56 61.78"/>
              <polyline class="cls-2" points="151 58.43 78.26 16.65 39.41 1"/>
              <polygon class="cls-2" points="79.7 98.89 73.74 101.74 112.15 42.79 112.42 49.46 79.7 98.89"/>
            </g>
          </g>
        </g>
        <g>
          <g>
            <polyline class="cls-1" points="18.53 76.07 18.53 97.78 29.66 104.14 29.66 82.43"/>
            <polyline class="cls-1" points="35.46 85.69 35.46 107.4 46.59 113.76 46.59 92.05"/>
            <polyline class="cls-1" points="52.33 95.25 52.33 116.96 63.46 123.32 63.46 101.62"/>
          </g>
          <g>
            <g>
              <polyline class="cls-1" points="132.49 74.86 132.49 96.34 121.36 102.7 121.36 81.22"/>
              <polyline class="cls-1" points="97.16 95.37 97.16 116.85 86.03 123.21 86.03 101.73"/>
            </g>
            <g>
              <g>
                <polygon class="cls-1" points="111.24 139.09 124.54 131.42 124.54 125.84 111.24 133.51 111.24 139.09"/>
                <polygon class="cls-1" points="106.86 131.25 120.15 123.58 120.15 118.01 106.86 125.68 106.86 131.25"/>
                <polygon class="cls-1" points="106.86 131.25 120.15 123.58 124.54 125.84 111.24 133.51 106.86 131.25"/>
                <polygon class="cls-1" points="102.46 123.42 115.75 115.76 120.15 118.01 106.86 125.68 102.46 123.42"/>
                <polygon class="cls-1" points="102.46 123.42 102.46 134.22 111.24 139.09 111.24 133.51 106.86 131.25 106.86 125.68 102.46 123.42"/>
              </g>
              <g>
                <polygon class="cls-1" points="102.46 123.42 115.75 115.76 115.75 85.04 102.46 92.71 102.46 123.42"/>
                <path class="cls-1" d="M104.71,105.92c0,.58.47,1.06,1.06,1.06s1.06-.47,1.06-1.06c0-.58-.47-1.06-1.06-1.06s-1.06.47-1.06,1.06Z"/>
              </g>
            </g>
          </g>
        </g>
      </g>
      <line class="cls-1" x1="139.81" y1="59.64" x2="85.54" y2="90.06"/>
    </g>
  </g>
</svg>