<?xml version="1.0" encoding="UTF-8"?>
<svg id="Réteg_2" xmlns="http://www.w3.org/2000/svg" viewBox="0 0 152 155.68">
  <defs>
    <style>
      .cls-1 {
        fill: none;
      }

      .cls-1, .cls-2 {
        stroke: #fff;
        stroke-linecap: round;
        stroke-linejoin: round;
        stroke-width: 2px;
      }

      .cls-2 {
        fill: #f7c82a;
      }
    </style>
  </defs>
  <g id="Réteg_1">
    <g>
      <g>
        <g>
          <g>
            <polyline class="cls-1" points="74.96 111.65 74.96 154.66 8.86 117.04 8.86 74.49"/>
            <polyline class="cls-1" points="120.42 128.4 140.05 117.05 140.05 69.55"/>
            <polyline class="cls-1" points="102.46 138.77 74.97 154.68 74.97 111.65"/>
          </g>
          <g>
            <g>
              <polygon class="cls-2" points="1 64.63 73.74 106.41 112.15 42.79 39.41 1 1 64.63"/>
              <polyline class="cls-2" points="151 63.1 112.15 42.79 39.41 1"/>
            </g>
            <g>
              <polygon class="cls-2" points="145.56 66.45 151 63.1 112.15 42.79 112.42 49.46 145.56 66.45"/>
              <polyline class="cls-2" points="151 63.1 78.26 21.32 39.41 1"/>
              <polygon class="cls-2" points="79.7 103.56 73.74 106.41 112.15 42.79 112.42 49.46 79.7 103.56"/>
            </g>
          </g>
        </g>
        <g>
          <g>
            <polyline class="cls-1" points="18.53 80.74 18.53 102.45 29.66 108.81 29.66 87.1"/>
            <polyline class="cls-1" points="35.46 90.36 35.46 112.07 46.59 118.43 46.59 96.72"/>
            <polyline class="cls-1" points="52.33 99.93 52.33 121.63 63.46 127.99 63.46 106.29"/>
          </g>
          <g>
            <g>
              <polyline class="cls-1" points="132.49 79.53 132.49 101.01 121.36 107.37 121.36 85.89"/>
              <polyline class="cls-1" points="97.16 100.04 97.16 121.52 86.03 127.88 86.03 106.4"/>
            </g>
            <g>
              <g>
                <polygon class="cls-1" points="111.24 143.76 124.54 136.09 124.54 130.51 111.24 138.18 111.24 143.76"/>
                <polygon class="cls-1" points="106.86 135.92 120.15 128.25 120.15 122.68 106.86 130.35 106.86 135.92"/>
                <polygon class="cls-1" points="106.86 135.92 120.15 128.25 124.54 130.51 111.24 138.18 106.86 135.92"/>
                <polygon class="cls-1" points="102.46 128.09 115.75 120.43 120.15 122.68 106.86 130.35 102.46 128.09"/>
                <polygon class="cls-1" points="102.46 128.09 102.46 138.89 111.24 143.76 111.24 138.18 106.86 135.92 106.86 130.35 102.46 128.09"/>
              </g>
              <g>
                <polygon class="cls-1" points="102.46 128.09 115.75 120.43 115.75 89.71 102.46 97.38 102.46 128.09"/>
                <path class="cls-1" d="M104.71,110.59c0,.58.47,1.06,1.06,1.06s1.06-.47,1.06-1.06c0-.58-.47-1.06-1.06-1.06s-1.06.47-1.06,1.06Z"/>
              </g>
            </g>
          </g>
        </g>
      </g>
      <line class="cls-1" x1="140.6" y1="63.87" x2="84.75" y2="95.18"/>
    </g>
  </g>
</svg>