<?xml version="1.0" encoding="UTF-8"?>
<svg id="Réteg_2" xmlns="http://www.w3.org/2000/svg" viewBox="0 0 152 160.69">
  <defs>
    <style>
      .cls-1 {
        fill: none;
      }

      .cls-1, .cls-2 {
        stroke: #fff;
        stroke-linecap: round;
        stroke-linejoin: round;
        stroke-width: 2px;
      }

      .cls-2 {
        fill: #f7c82a;
      }
    </style>
  </defs>
  <g id="Réteg_1">
    <g>
      <g>
        <g>
          <g>
            <polyline class="cls-1" points="74.96 116.66 74.96 159.67 8.86 122.05 8.86 79.5"/>
            <polyline class="cls-1" points="120.42 133.41 140.05 122.06 140.05 74.56"/>
            <polyline class="cls-1" points="102.46 143.78 74.97 159.69 74.97 116.66"/>
          </g>
          <g>
            <g>
              <polygon class="cls-2" points="1 69.64 73.74 111.42 112.15 42.79 39.41 1 1 69.64"/>
              <polyline class="cls-2" points="151 68.12 112.15 42.79 39.41 1"/>
            </g>
            <g>
              <polygon class="cls-2" points="145.56 71.46 151 68.12 112.15 42.79 112.42 49.46 145.56 71.46"/>
              <polygon class="cls-2" points="79.7 108.58 73.74 111.42 112.15 42.79 112.42 49.46 79.7 108.58"/>
            </g>
          </g>
        </g>
        <g>
          <g>
            <polyline class="cls-1" points="18.53 85.75 18.53 107.46 29.66 113.82 29.66 92.11"/>
            <polyline class="cls-1" points="35.46 95.37 35.46 117.08 46.59 123.44 46.59 101.73"/>
            <polyline class="cls-1" points="52.33 104.94 52.33 126.65 63.46 133 63.46 111.3"/>
          </g>
          <g>
            <g>
              <polyline class="cls-1" points="132.49 84.54 132.49 106.03 121.36 112.38 121.36 90.9"/>
              <polyline class="cls-1" points="97.16 105.05 97.16 126.53 86.03 132.89 86.03 111.41"/>
            </g>
            <g>
              <g>
                <polygon class="cls-1" points="111.24 148.77 124.54 141.1 124.54 135.52 111.24 143.19 111.24 148.77"/>
                <polygon class="cls-1" points="106.86 140.94 120.15 133.27 120.15 127.69 106.86 135.36 106.86 140.94"/>
                <polygon class="cls-1" points="106.86 140.94 120.15 133.27 124.54 135.52 111.24 143.19 106.86 140.94"/>
                <polygon class="cls-1" points="102.46 133.11 115.75 125.44 120.15 127.69 106.86 135.36 102.46 133.11"/>
                <polygon class="cls-1" points="102.46 133.11 102.46 143.9 111.24 148.77 111.24 143.19 106.86 140.94 106.86 135.36 102.46 133.11"/>
              </g>
              <g>
                <polygon class="cls-1" points="102.46 133.11 115.75 125.44 115.75 94.72 102.46 102.39 102.46 133.11"/>
                <path class="cls-1" d="M104.71,115.61c0,.58.47,1.06,1.06,1.06s1.06-.47,1.06-1.06c0-.58-.47-1.06-1.06-1.06s-1.06.47-1.06,1.06Z"/>
              </g>
            </g>
          </g>
        </g>
      </g>
      <line class="cls-1" x1="140.6" y1="68.88" x2="84.75" y2="100.19"/>
    </g>
  </g>
</svg>