<?xml version="1.0" encoding="UTF-8"?>
<svg id="Réteg_2" xmlns="http://www.w3.org/2000/svg" viewBox="0 0 152 166.04">
  <defs>
    <style>
      .cls-1 {
        fill: none;
      }

      .cls-1, .cls-2 {
        stroke: #fff;
        stroke-linecap: round;
        stroke-linejoin: round;
        stroke-width: 2px;
      }

      .cls-2 {
        fill: #f7c82a;
      }
    </style>
  </defs>
  <g id="Réteg_1">
    <g>
      <g>
        <g>
          <g>
            <polyline class="cls-1" points="74.96 122.01 74.96 165.02 8.86 127.4 8.86 84.85"/>
            <polyline class="cls-1" points="120.42 138.76 140.05 127.4 140.05 79.91"/>
            <polyline class="cls-1" points="102.46 149.13 74.97 165.04 74.97 122.01"/>
          </g>
          <g>
            <g>
              <polygon class="cls-2" points="1 74.99 73.74 116.77 112.15 42.79 39.41 1 1 74.99"/>
              <polyline class="cls-2" points="151 73.46 112.15 42.79 39.41 1"/>
            </g>
            <g>
              <polygon class="cls-2" points="145.56 76.81 151 73.46 112.15 42.79 112.42 49.46 145.56 76.81"/>
              <polygon class="cls-2" points="79.7 113.92 73.74 116.77 112.15 42.79 112.42 49.46 79.7 113.92"/>
            </g>
          </g>
        </g>
        <g>
          <g>
            <polyline class="cls-1" points="18.53 91.1 18.53 112.81 29.66 119.17 29.66 97.46"/>
            <polyline class="cls-1" points="35.46 100.72 35.46 122.43 46.59 128.79 46.59 107.08"/>
            <polyline class="cls-1" points="52.33 110.28 52.33 131.99 63.46 138.35 63.46 116.65"/>
          </g>
          <g>
            <g>
              <polyline class="cls-1" points="132.49 89.88 132.49 111.37 121.36 117.73 121.36 96.25"/>
              <polyline class="cls-1" points="97.16 110.4 97.16 131.88 86.03 138.24 86.03 116.76"/>
            </g>
            <g>
              <g>
                <polygon class="cls-1" points="111.24 154.12 124.54 146.45 124.54 140.87 111.24 148.54 111.24 154.12"/>
                <polygon class="cls-1" points="106.86 146.28 120.15 138.61 120.15 133.04 106.86 140.71 106.86 146.28"/>
                <polygon class="cls-1" points="106.86 146.28 120.15 138.61 124.54 140.87 111.24 148.54 106.86 146.28"/>
                <polygon class="cls-1" points="102.46 138.45 115.75 130.78 120.15 133.04 106.86 140.71 102.46 138.45"/>
                <polygon class="cls-1" points="102.46 138.45 102.46 149.25 111.24 154.12 111.24 148.54 106.86 146.28 106.86 140.71 102.46 138.45"/>
              </g>
              <g>
                <polygon class="cls-1" points="102.46 138.45 115.75 130.78 115.75 100.07 102.46 107.74 102.46 138.45"/>
                <path class="cls-1" d="M104.71,120.95c0,.58.47,1.06,1.06,1.06s1.06-.47,1.06-1.06c0-.58-.47-1.06-1.06-1.06s-1.06.47-1.06,1.06Z"/>
              </g>
            </g>
          </g>
        </g>
      </g>
      <line class="cls-1" x1="140.6" y1="74.23" x2="84.75" y2="105.54"/>
    </g>
  </g>
</svg>