<?xml version="1.0" encoding="UTF-8"?>
<svg id="Réteg_2" xmlns="http://www.w3.org/2000/svg" viewBox="0 0 152 170.71">
  <defs>
    <style>
      .cls-1 {
        fill: none;
      }

      .cls-1, .cls-2 {
        stroke: #fff;
        stroke-linecap: round;
        stroke-linejoin: round;
        stroke-width: 2px;
      }

      .cls-2 {
        fill: #f7c82a;
      }
    </style>
  </defs>
  <g id="Réteg_1">
    <g>
      <g>
        <g>
          <g>
            <polyline class="cls-1" points="74.96 126.69 74.96 169.7 8.86 132.08 8.86 89.53"/>
            <polyline class="cls-1" points="120.42 143.44 140.05 132.08 140.05 84.59"/>
            <polyline class="cls-1" points="102.46 153.8 74.97 169.71 74.97 126.69"/>
          </g>
          <g>
            <g>
              <polygon class="cls-2" points="1 79.66 73.74 121.45 112.15 42.79 39.41 1 1 79.66"/>
              <polyline class="cls-2" points="151 78.14 112.15 42.79 39.41 1"/>
            </g>
            <g>
              <polygon class="cls-2" points="145.56 81.48 151 78.14 112.15 42.79 112.42 49.46 145.56 81.48"/>
              <polygon class="cls-2" points="79.7 118.6 73.74 121.45 112.15 42.79 112.42 49.46 79.7 118.6"/>
            </g>
          </g>
        </g>
        <g>
          <g>
            <polyline class="cls-1" points="18.53 95.78 18.53 117.49 29.66 123.85 29.66 102.14"/>
            <polyline class="cls-1" points="35.46 105.39 35.46 127.1 46.59 133.46 46.59 111.76"/>
            <polyline class="cls-1" points="52.33 114.96 52.33 136.67 63.46 143.03 63.46 121.32"/>
          </g>
          <g>
            <g>
              <polyline class="cls-1" points="132.49 94.56 132.49 116.05 121.36 122.41 121.36 100.92"/>
              <polyline class="cls-1" points="97.16 115.07 97.16 136.56 86.03 142.92 86.03 121.43"/>
            </g>
            <g>
              <g>
                <polygon class="cls-1" points="111.24 158.79 124.54 151.12 124.54 145.54 111.24 153.22 111.24 158.79"/>
                <polygon class="cls-1" points="106.86 150.96 120.15 143.29 120.15 137.72 106.86 145.38 106.86 150.96"/>
                <polygon class="cls-1" points="106.86 150.96 120.15 143.29 124.54 145.54 111.24 153.22 106.86 150.96"/>
                <polygon class="cls-1" points="102.46 143.13 115.75 135.46 120.15 137.72 106.86 145.38 102.46 143.13"/>
                <polygon class="cls-1" points="102.46 143.13 102.46 153.93 111.24 158.79 111.24 153.22 106.86 150.96 106.86 145.38 102.46 143.13"/>
              </g>
              <g>
                <polygon class="cls-1" points="102.46 143.13 115.75 135.46 115.75 104.74 102.46 112.41 102.46 143.13"/>
                <path class="cls-1" d="M104.71,125.63c0,.58.47,1.06,1.06,1.06s1.06-.47,1.06-1.06c0-.58-.47-1.06-1.06-1.06s-1.06.47-1.06,1.06Z"/>
              </g>
            </g>
          </g>
        </g>
      </g>
      <line class="cls-1" x1="140.6" y1="78.91" x2="84.75" y2="110.21"/>
    </g>
  </g>
</svg>