<?xml version="1.0" encoding="UTF-8"?>
<svg id="Réteg_2" xmlns="http://www.w3.org/2000/svg" viewBox="0 0 152 175.73">
  <defs>
    <style>
      .cls-1 {
        fill: none;
      }

      .cls-1, .cls-2 {
        stroke: #fff;
        stroke-linecap: round;
        stroke-linejoin: round;
        stroke-width: 2px;
      }

      .cls-2 {
        fill: #f7c82a;
      }
    </style>
  </defs>
  <g id="Réteg_1">
    <g>
      <g>
        <g>
          <g>
            <polyline class="cls-1" points="74.96 131.7 74.96 174.71 8.86 137.09 8.86 94.54"/>
            <polyline class="cls-1" points="120.42 148.45 140.05 137.09 140.05 89.6"/>
            <polyline class="cls-1" points="102.46 158.81 74.97 174.73 74.97 131.7"/>
          </g>
          <g>
            <g>
              <polygon class="cls-2" points="1 84.67 73.74 126.46 112.15 42.79 39.41 1 1 84.67"/>
              <polyline class="cls-2" points="151 83.15 112.15 42.79 39.41 1"/>
            </g>
            <g>
              <polygon class="cls-2" points="145.56 86.5 151 83.15 112.15 42.79 112.42 49.46 145.56 86.5"/>
              <polygon class="cls-2" points="79.7 123.61 73.74 126.46 112.15 42.79 112.42 49.46 79.7 123.61"/>
            </g>
          </g>
        </g>
        <g>
          <g>
            <polyline class="cls-1" points="18.53 100.79 18.53 122.5 29.66 128.86 29.66 107.15"/>
            <polyline class="cls-1" points="35.46 110.4 35.46 132.11 46.59 138.47 46.59 116.77"/>
            <polyline class="cls-1" points="52.33 119.97 52.33 141.68 63.46 148.04 63.46 126.33"/>
          </g>
          <g>
            <g>
              <polyline class="cls-1" points="132.49 99.57 132.49 121.06 121.36 127.42 121.36 105.94"/>
              <polyline class="cls-1" points="97.16 120.08 97.16 141.57 86.03 147.93 86.03 126.45"/>
            </g>
            <g>
              <g>
                <polygon class="cls-1" points="111.24 163.81 124.54 156.13 124.54 150.56 111.24 158.23 111.24 163.81"/>
                <polygon class="cls-1" points="106.86 155.97 120.15 148.3 120.15 142.73 106.86 150.4 106.86 155.97"/>
                <polygon class="cls-1" points="106.86 155.97 120.15 148.3 124.54 150.56 111.24 158.23 106.86 155.97"/>
                <polygon class="cls-1" points="102.46 148.14 115.75 140.47 120.15 142.73 106.86 150.4 102.46 148.14"/>
                <polygon class="cls-1" points="102.46 148.14 102.46 158.94 111.24 163.81 111.24 158.23 106.86 155.97 106.86 150.4 102.46 148.14"/>
              </g>
              <g>
                <polygon class="cls-1" points="102.46 148.14 115.75 140.47 115.75 109.75 102.46 117.42 102.46 148.14"/>
                <path class="cls-1" d="M104.71,130.64c0,.58.47,1.06,1.06,1.06s1.06-.47,1.06-1.06c0-.58-.47-1.06-1.06-1.06s-1.06.47-1.06,1.06Z"/>
              </g>
            </g>
          </g>
        </g>
      </g>
      <line class="cls-1" x1="140.6" y1="83.92" x2="84.75" y2="115.23"/>
    </g>
  </g>
</svg>