<?xml version="1.0" encoding="UTF-8"?>
<svg id="Réteg_2" xmlns="http://www.w3.org/2000/svg" viewBox="0 0 129.61 129.61">
  <defs>
    <style>
      .cls-1, .cls-2 {
        fill: none;
      }

      .cls-3 {
        fill: #f7c82a;
      }

      .cls-2 {
        stroke: #000;
        stroke-linecap: round;
        stroke-linejoin: round;
        stroke-width: 2px;
      }
    </style>
  </defs>
  <g id="Réteg_1">
    <g>
      <g>
        <line class="cls-2" x1="82.14" y1="76.69" x2="45.61" y2="76.69"/>
        <path class="cls-2" d="M28.06,76.69h-3.2c-3.12,0-5.65-2.53-5.65-5.65v-8.91c0-3.12,2.53-5.65,5.65-5.65h2.53c1.5,0,2.94-.6,4-1.66l9.02-9.02c1.06-1.06,2.5-1.66,4-1.66h23.97c1.3,0,2.57.45,3.58,1.28l16.99,13.9c.87.71,1.94,1.15,3.06,1.25l13.24,1.21c3.18.29,5.48,3.15,5.1,6.32l-.45,3.61c-.34,2.84-2.75,4.97-5.61,4.97h-4.61"/>
        <path class="cls-2" d="M28.06,76.69c0,4.85,3.93,8.78,8.78,8.78s8.78-3.93,8.78-8.78"/>
        <path class="cls-2" d="M82.14,76.69c0,4.85,3.93,8.78,8.78,8.78s8.78-3.93,8.78-8.78"/>
        <path class="cls-3" d="M53.79,72.75l2.42-9.27h-7.91c-.2,0-.32-.23-.21-.39l10.52-15.21c.16-.23.52-.07.45.21l-2.43,9.32h7.92c.2,0,.32.23.21.39l-10.52,15.16c-.16.23-.52.06-.45-.21Z"/>
      </g>
      <rect class="cls-1" width="129.61" height="129.61"/>
    </g>
  </g>
</svg>