<?xml version="1.0" encoding="UTF-8"?>
<svg id="Réteg_2" xmlns="http://www.w3.org/2000/svg" viewBox="0 0 129.61 129.61">
  <defs>
    <style>
      .cls-1 {
        fill: #fff;
      }

      .cls-2, .cls-3, .cls-4 {
        fill: none;
      }

      .cls-3 {
        stroke: #000;
        stroke-linejoin: round;
      }

      .cls-3, .cls-4 {
        stroke-linecap: round;
        stroke-width: 2px;
      }

      .cls-4 {
        stroke: #f7c82a;
        stroke-miterlimit: 10;
      }
    </style>
  </defs>
  <g id="Réteg_1">
    <g>
      <g>
        <rect class="cls-3" x="25.48" y="43.46" width="78.64" height="47.08"/>
        <circle class="cls-3" cx="50.06" cy="67" r="14.75"/>
        <circle class="cls-1" cx="50.06" cy="67" r="3.55"/>
        <path d="M53.6,67h-7.09l-1.3-8.81c-.43-2.9,1.82-5.5,4.75-5.5h0c2.89,0,5.12,2.53,4.76,5.39l-1.11,8.92Z"/>
        <path d="M48.46,64.15l3.61,6.1-6.92,5.61c-2.28,1.84-5.66,1.24-7.15-1.28h0c-1.47-2.48-.43-5.69,2.22-6.84l8.24-3.58Z"/>
        <path d="M51.59,64.15l-3.61,6.1,6.92,5.61c2.28,1.84,5.66,1.24,7.15-1.28h0c1.47-2.48.43-5.69-2.22-6.84l-8.24-3.58Z"/>
        <line class="cls-4" x1="31.98" y1="50.82" x2="68.13" y2="50.82"/>
        <line class="cls-4" x1="31.98" y1="57.29" x2="68.13" y2="57.29"/>
        <line class="cls-4" x1="31.98" y1="63.76" x2="68.13" y2="63.76"/>
        <line class="cls-4" x1="31.98" y1="70.24" x2="68.13" y2="70.24"/>
        <line class="cls-4" x1="31.98" y1="76.71" x2="68.13" y2="76.71"/>
        <line class="cls-4" x1="31.98" y1="83.18" x2="68.13" y2="83.18"/>
        <rect class="cls-3" x="79.13" y="50.82" width="16.66" height="32.37"/>
        <path class="cls-3" d="M38.26,39.07h53.08c2.43,0,4.39,1.97,4.39,4.39h-61.87c0-2.43,1.97-4.39,4.39-4.39Z"/>
      </g>
      <rect class="cls-2" width="129.61" height="129.61"/>
    </g>
  </g>
</svg>