<?xml version="1.0" encoding="UTF-8"?>
<svg id="Réteg_2" xmlns="http://www.w3.org/2000/svg" viewBox="0 0 129.61 129.61">
  <defs>
    <style>
      .cls-1, .cls-2 {
        fill: none;
      }

      .cls-2 {
        stroke: #fff;
        stroke-linecap: round;
        stroke-linejoin: round;
        stroke-width: 2px;
      }
    </style>
  </defs>
  <g id="Réteg_1">
    <g>
      <g>
        <ellipse class="cls-2" cx="64.8" cy="64.8" rx="7.11" ry="7.02"/>
        <polyline class="cls-2" points="64.81 71.82 64.81 80.85 64.81 87.2 64.81 91.77"/>
        <polyline class="cls-2" points="64.81 57.78 64.81 49.03 64.81 42.42 64.81 37.84"/>
        <polyline class="cls-2" points="59.78 69.77 53.64 75.83 49.09 80.32 45.51 83.86"/>
        <polyline class="cls-2" points="69.83 59.84 75.83 53.91 80.47 49.32 84.1 45.74"/>
        <polyline class="cls-2" points="69.83 69.77 75.85 75.71 80.71 80.51 84.1 83.86"/>
        <polyline class="cls-2" points="59.78 59.84 53.91 54.04 49.04 49.22 45.51 45.74"/>
        <polyline class="cls-2" points="92.09 64.8 87.48 64.8 80.59 64.8 71.91 64.8"/>
        <polyline class="cls-2" points="37.52 64.8 42.7 64.8 49.43 64.8 57.7 64.8"/>
        <polyline class="cls-2" points="43.73 49.22 49.36 49.22 49.36 43.66"/>
        <polyline class="cls-2" points="53.91 43.87 53.91 54.04 43.66 53.99"/>
        <polyline class="cls-2" points="80.46 43.85 80.46 49.42 86.09 49.42"/>
        <polyline class="cls-2" points="85.88 53.91 75.59 53.91 75.64 43.79"/>
        <polyline class="cls-2" points="60.96 38.61 64.94 42.54 68.92 38.61"/>
        <polyline class="cls-2" points="71.99 41.93 64.71 49.12 57.5 41.93"/>
        <polyline class="cls-2" points="86.02 80.51 80.4 80.51 80.4 86.08"/>
        <polyline class="cls-2" points="75.85 85.87 75.85 75.7 86.09 75.75"/>
        <polyline class="cls-2" points="38.86 68.58 42.84 64.65 38.86 60.71"/>
        <polyline class="cls-2" points="42.23 57.68 49.5 64.87 42.23 72"/>
        <polyline class="cls-2" points="91.16 61.16 87.18 65.09 91.16 69.02"/>
        <polyline class="cls-2" points="87.8 72.05 80.52 64.86 87.8 57.74"/>
        <polyline class="cls-2" points="49.29 85.88 49.29 80.32 43.66 80.32"/>
        <polyline class="cls-2" points="43.87 75.83 54.17 75.83 54.12 85.95"/>
        <polyline class="cls-2" points="68.8 91.13 64.82 87.19 60.84 91.13"/>
        <polyline class="cls-2" points="57.77 87.8 65.04 80.61 72.26 87.8"/>
      </g>
      <rect class="cls-1" width="129.61" height="129.61"/>
    </g>
  </g>
</svg>