<?xml version="1.0" encoding="UTF-8"?>
<svg id="Réteg_2" xmlns="http://www.w3.org/2000/svg" viewBox="0 0 431 295.47">
  <defs>
    <style>
      .cls-1 {
        fill: #fff;
      }

      .cls-2 {
        fill: #f7c82a;
      }

      .cls-3 {
        fill: none;
        stroke: #fff;
        stroke-linecap: round;
        stroke-linejoin: round;
        stroke-width: 2px;
      }

      .cls-4 {
        fill: #8dc046;
      }
    </style>
  </defs>
  <g id="Réteg_1">
    <g>
      <g>
        <g>
          <g>
            <g>
              <g>
                <polyline class="cls-3" points="217.83 154.63 217.83 197.64 283.93 160.02 283.93 117.47"/>
                <polyline class="cls-3" points="172.37 171.38 152.74 160.02 152.74 112.53"/>
                <polyline class="cls-3" points="190.33 181.74 217.83 197.66 217.83 154.63"/>
              </g>
              <g>
                <g>
                  <polygon class="cls-3" points="291.79 107.61 219.05 149.39 180.64 64.12 253.38 22.34 291.79 107.61"/>
                  <polyline class="cls-3" points="141.79 106.08 180.64 64.12 253.38 22.34"/>
                </g>
                <g>
                  <polygon class="cls-3" points="147.23 109.43 141.79 106.08 180.64 64.12 180.37 70.79 147.23 109.43"/>
                  <polygon class="cls-3" points="213.09 146.54 219.05 149.39 180.64 64.12 180.37 70.79 213.09 146.54"/>
                </g>
              </g>
            </g>
            <g>
              <g>
                <polyline class="cls-3" points="274.26 123.72 274.26 145.43 263.13 151.79 263.13 130.08"/>
                <polyline class="cls-3" points="257.33 133.33 257.33 155.04 246.21 161.4 246.21 139.7"/>
                <polyline class="cls-3" points="240.46 142.9 240.46 164.61 229.33 170.97 229.33 149.26"/>
              </g>
              <g>
                <g>
                  <polyline class="cls-3" points="160.31 122.5 160.31 143.99 171.43 150.35 171.43 128.87"/>
                  <polyline class="cls-3" points="195.63 143.01 195.63 164.5 206.76 170.86 206.76 149.38"/>
                </g>
                <g>
                  <g>
                    <polygon class="cls-3" points="181.55 186.74 168.26 179.06 168.26 173.49 181.55 181.16 181.55 186.74"/>
                    <polygon class="cls-3" points="185.94 178.9 172.65 171.23 172.65 165.66 185.94 173.33 185.94 178.9"/>
                    <polygon class="cls-3" points="185.94 178.9 172.65 171.23 168.26 173.49 181.55 181.16 185.94 178.9"/>
                    <polygon class="cls-3" points="190.33 171.07 177.04 163.4 172.65 165.66 185.94 173.33 190.33 171.07"/>
                    <polygon class="cls-3" points="190.33 171.07 190.33 181.87 181.55 186.74 181.55 181.16 185.94 178.9 185.94 173.33 190.33 171.07"/>
                  </g>
                  <g>
                    <polygon class="cls-3" points="190.33 171.07 177.04 163.4 177.04 132.68 190.33 140.36 190.33 171.07"/>
                    <path class="cls-3" d="M188.09,153.57c0,.58-.47,1.06-1.06,1.06s-1.06-.47-1.06-1.06.47-1.06,1.06-1.06,1.06.47,1.06,1.06Z"/>
                  </g>
                </g>
              </g>
            </g>
          </g>
          <line class="cls-3" x1="152.19" y1="106.85" x2="208.04" y2="138.16"/>
        </g>
        <g>
          <polygon class="cls-2" points="215.13 82.43 199.44 91.44 188.41 66.96 204.23 57.88 215.13 82.43"/>
          <polygon class="cls-2" points="226 106.92 210.44 115.85 199.85 92.36 215.54 83.35 226 106.92"/>
          <polygon class="cls-2" points="237.1 131.93 221.67 140.79 210.85 116.77 226.41 107.84 237.1 131.93"/>
          <polygon class="cls-2" points="262.43 55.28 247.3 63.96 236.4 39.39 251.39 30.78 262.43 55.28"/>
          <polygon class="cls-2" points="273.42 79.69 258.17 88.45 247.71 64.88 262.84 56.2 273.42 79.69"/>
          <polygon class="cls-2" points="284.65 104.61 269.27 113.45 258.58 89.37 273.84 80.61 284.65 104.61"/>
          <polygon class="cls-2" points="230.91 73.37 216 81.93 205.1 57.37 220.01 48.81 230.91 73.37"/>
          <polygon class="cls-2" points="241.78 97.86 226.87 106.42 216.41 82.85 231.32 74.29 241.78 97.86"/>
          <polygon class="cls-2" points="252.88 122.86 237.97 131.43 227.28 107.34 242.19 98.78 252.88 122.86"/>
          <polygon class="cls-2" points="246.43 64.46 231.79 72.87 220.89 48.31 235.53 39.89 246.43 64.46"/>
          <polygon class="cls-2" points="257.3 88.94 242.66 97.35 232.2 73.79 246.84 65.38 257.3 88.94"/>
          <polygon class="cls-2" points="268.4 113.95 253.76 122.36 243.07 98.27 257.71 89.87 268.4 113.95"/>
        </g>
      </g>
      <g>
        <path class="cls-4" d="M370.94,242.14l-2.65-1.83-7.21,4.95-1.58,1.09c-5.96,4.1-6.67,9.24-1.14,13.04,5.52,3.8,13.01,3.31,18.97-.79l8.78-6.03-15.17-10.43ZM372.9,255.21c-2.52,1.73-5.76,1.89-8.48.02-2.73-1.88-2.5-4.1.02-5.83l2.52-1.74,8.46,5.82-2.52,1.73Z"/>
        <path class="cls-1" d="M80.16,46.74l-8.91,6.13-2.35-1.61,7.54-5.18-4.33-2.98-7.53,5.18-2.09-1.43,8.58-5.9-4.53-3.12-14.49,9.96,17.82,12.26,14.82-10.19-4.53-3.12ZM54.47,38.53l.71,5.11,3.82-2.62.94-6.25-5.47,3.76Z"/>
        <g>
          <path class="cls-1" d="M206.39,12.95v-3.19h8.11v-1.76h-8.11v-3h9.14v-1.8h-12.26v11.54h12.6v-1.79h-9.48ZM210.66,0l-3.24,2.26h2.59l4.18-2.26h-3.53Z"/>
          <path class="cls-1" d="M227.22,8.36l7.06-5.16h-3.51l-8.3,5.92V3.2h-3.12v11.54h3.12v-2.95l2.66-1.88,5.93,4.83h3.65l-7.49-6.38Z"/>
        </g>
        <g>
          <path class="cls-1" d="M0,158.36v2.42l3.29,2.23v-1.78l-3.29-2.87ZM18.84,157.2v6.52h-4.63v-5.58h-2.57v5.58h-4.37v-6.29h-2.62v8.43h16.81v-8.66h-2.62Z"/>
          <path class="cls-1" d="M21.46,144.55H4.65v2.12h11.38l-11.38,6.37v1.77h16.81v-2.13h-11.38l11.38-6.37v-1.76Z"/>
          <path class="cls-1" d="M15.53,136.46l-10.88-4.52v2.11l8.19,3.42-8.19,3.38v2.29l10.93-4.54h5.88v-2.14h-5.93Z"/>
        </g>
        <g>
          <path class="cls-1" d="M236.38,283.93c-5.44,0-9.16,2.31-9.16,5.77s3.72,5.77,9.16,5.77h7.35v-11.54h-7.35ZM240.61,293.66h-4.08c-3.75,0-6.17-1.57-6.17-3.96s2.42-3.96,6.17-3.96h4.08v7.92Z"/>
          <path class="cls-1" d="M220.81,283.93v7.82l-9.27-7.82h-2.56v11.54h3.09v-7.82l9.27,7.82h2.57v-11.54h-3.1Z"/>
          <path class="cls-1" d="M200.34,287.97v-4.04h-3.12v4.07l-6.58,7.47h3.07l4.97-5.62,4.92,5.62h3.34l-6.6-7.5Z"/>
        </g>
        <g>
          <path class="cls-1" d="M414.2,138.45v5.05c0,3.74,3.36,6.3,8.4,6.3s8.4-2.56,8.4-6.3v-5.05h-16.8ZM428.36,143.4c0,2.57-2.28,4.24-5.76,4.24s-5.76-1.67-5.76-4.24v-2.81h11.52v2.81Z"/>
          <path class="cls-1" d="M431,152.08h-16.8v2.15h4.3l2.73,1.83-7.03,4.07v2.51l9.29-5.15,7.51,4.85v-2.41l-8.61-5.7h8.61v-2.15Z"/>
        </g>
        <g>
          <path class="cls-1" d="M80.05,260.81l-8.09,5.56,1.32-10.22-4.94-3.4-17.82,12.26,5.85,4.02,8.1-5.56-1.32,10.22,4.94,3.4,17.82-12.26-5.86-4.02Z"/>
          <path class="cls-1" d="M54.85,243.48l-6.47,4.44-18.07,3.19,5.8,3.99,9.83-1.71-2.52,6.74,6.34,4.36,4.56-12.38,6.54-4.5-6.01-4.13Z"/>
        </g>
        <path class="cls-1" d="M380.13,41.89l-12.32.42,6.47-4.44-5.91-4.06-17.82,12.25,5.9,4.06,4.41-3.03,2.85-.1-1.45,7.12,6.95,4.78,2.49-12.01,14.98-.49-6.55-4.5Z"/>
        <path class="cls-1" d="M342.47,65.26c-.59-.41-1.18-.83-1.78-1.24-.29-.2-.57-.39-.86-.58-23.09-15.66-51.01-25.97-80.47-30.93l1.46,3.26c27.89,4.94,54.31,14.77,76.35,29.5.61.39,1.22.81,1.82,1.22.29.2.56.39.84.59h.01c31.44,21.91,48.84,50.8,49.09,81.49v.66c0,.45,0,.9,0,1.34-.33,20.49-8.32,40.15-23.01,57.45-7.14,8.41-15.87,16.26-26.07,23.37-.28.2-.56.39-.85.59-.6.41-1.21.83-1.82,1.22-9.34,6.25-19.46,11.61-30.15,16.08-27.02,11.34-57.65,17.07-88.31,17.18-.67.01-1.34.01-2,0-42.8-.16-85.52-11.25-118.47-33.26-.61-.39-1.22-.81-1.82-1.22-.29-.2-.56-.39-.84-.59h-.01c-31.2-21.76-48.58-50.37-49.08-80.82-.01-.44-.01-.89-.01-1.34v-.66c.25-30.69,17.65-59.58,49.09-81.49.28-.2.56-.39.85-.59.6-.41,1.21-.83,1.82-1.22,32.95-22.01,75.67-33.1,118.47-33.26.33-.01.67-.01,1-.01s.67,0,1,.01c5.03.02,10.05.19,15.06.51l4.53-2.62c-6.5-.54-13.04-.81-19.59-.84-.67-.01-1.33-.01-2,0-43.83.16-87.58,11.63-121.13,34.38-.29.19-.57.38-.86.58-.6.41-1.19.83-1.78,1.24-31.69,22.42-49.22,51.91-49.46,83.31v.66c0,.45,0,.89.01,1.34.49,31.15,17.99,60.38,49.45,82.64.59.41,1.18.83,1.78,1.24.29.2.57.39.86.58,33.55,22.75,77.3,34.22,121.13,34.38.33.01.67.01,1,.01s.67,0,1-.01c31.85-.12,63.67-6.21,91.55-18.26,10.48-4.53,20.4-9.9,29.57-16.12.29-.19.57-.38.86-.58.6-.41,1.19-.83,1.78-1.24,10.2-7.21,18.93-15.16,26.08-23.66,14.94-17.74,23.04-37.92,23.37-58.98,0-.45,0-.89,0-1.34v-.66c-.24-31.4-17.77-60.89-49.46-83.31Z"/>
        <g>
          <path class="cls-1" d="M98.24,65.27l48.45,33.32-2.08,2.21-49.04-33.72-2.63-1.82-6.58-4.52c-.69-.47-.86-1.4-.39-2.09.47-.68,1.4-.85,2.09-.38l7.52,5.17,2.66,1.83Z"/>
          <polygon class="cls-1" points="220.35 149.24 222.29 150.57 218.71 150.57 218.71 151.75 217.71 151.05 217 150.57 216.71 150.37 215.06 149.24 214.09 148.57 216.03 148.57 216.71 148.1 216.71 146.73 217.7 147.42 217.71 147.42 218.71 148.11 219.38 148.57 220.35 149.24"/>
          <path class="cls-4" d="M349.44,239.81c-.29.43-.76.65-1.24.65-.29,0-.59-.08-.85-.26l-7.52-5.17-2.66-1.83-82.09-56.45,2.92-1.63,81.84,56.27,2.63,1.82,6.58,4.52c.69.47.86,1.4.39,2.08Z"/>
        </g>
        <g>
          <path class="cls-1" d="M169.28,180.71l3.09,1.52-74.13,50.97-2.66,1.83-7.52,5.17c-.26.18-.56.26-.85.26-.48,0-.95-.22-1.24-.65-.47-.68-.3-1.61.39-2.08l6.58-4.52,2.63-1.82h.01l73.7-50.68Z"/>
          <polygon class="cls-1" points="219.38 148.57 221.32 148.57 220.35 149.24 218.71 150.36 218.41 150.57 217.71 151.05 216.71 151.74 216.71 150.57 213.12 150.57 215.06 149.24 216.03 148.57 216.71 148.1 217.7 147.42 217.71 147.42 218.71 146.72 218.71 148.11 219.38 148.57"/>
          <path class="cls-1" d="M349.05,60.74l-6.58,4.52-2.63,1.82h-.01l-49.62,34.12-1.25-2.78,48.21-33.15,2.66-1.83,7.52-5.17c.69-.47,1.62-.3,2.09.38.47.69.3,1.62-.39,2.09Z"/>
        </g>
        <g>
          <path class="cls-1" d="M218.71,22.34v18.9l-2,1.16v-20.06c0-.56.44-1,1-1s1,.44,1,1Z"/>
          <polygon class="cls-1" points="217.71 147.42 218.71 146.72 218.71 151.75 217.71 151.05 216.71 151.74 216.71 146.73 217.7 147.42 217.71 147.42"/>
          <path class="cls-1" d="M217.83,197.64l.88-.49v78.98c0,.55-.45,1-1,1s-1-.45-1-1v-78.87l1.12.38Z"/>
        </g>
        <g>
          <path class="cls-1" d="M151.05,148.57l.27,2H33.63c-.55,0-1-.45-1-1s.45-1,1-1h117.42Z"/>
          <polygon class="cls-1" points="220.35 149.24 222.29 150.57 213.12 150.57 215.06 149.24 214.09 148.57 221.32 148.57 220.35 149.24"/>
          <path class="cls-1" d="M403.74,149.57c0,.55-.45,1-1,1h-118.63l.03-2h118.6c.55,0,1,.44,1,1Z"/>
        </g>
      </g>
      <polygon class="cls-1" points="222.29 150.57 218.71 150.57 218.71 151.75 217.71 151.05 216.71 151.74 216.71 150.57 213.12 150.57 215.06 149.24 214.09 148.57 216.03 148.57 216.71 148.1 216.71 146.73 217.7 147.42 217.71 147.42 218.71 146.72 218.71 148.11 219.38 148.57 221.32 148.57 220.35 149.24 222.29 150.57"/>
    </g>
  </g>
</svg>