<?xml version="1.0" encoding="UTF-8"?>
<svg id="Réteg_2" xmlns="http://www.w3.org/2000/svg" viewBox="0 0 431.01 295.48">
  <defs>
    <style>
      .cls-1 {
        fill: #fff;
      }

      .cls-2, .cls-3 {
        fill: none;
      }

      .cls-4 {
        fill: #f7c82a;
      }

      .cls-3 {
        stroke: #fff;
        stroke-linecap: round;
        stroke-linejoin: round;
        stroke-width: 2px;
      }

      .cls-5 {
        fill: #8dc046;
      }
    </style>
  </defs>
  <g id="Réteg_1">
    <g>
      <g>
        <g>
          <g>
            <g>
              <g>
                <polyline class="cls-3" points="208.38 196.14 175.43 196.13 174.98 153.57"/>
                <polyline class="cls-3" points="225.56 196.14 258.78 196.18 258.97 153.57"/>
              </g>
              <g>
                <polyline class="cls-3" points="166.01 148.96 215.25 85.19 215.25 20.79"/>
                <g>
                  <polygon class="cls-3" points="173.29 149.16 166.01 148.96 215.25 85.19 215.25 95.66 173.29 149.16"/>
                  <polygon class="cls-3" points="260.73 148.26 268.59 147.68 215.25 85.19 215.25 95.66 260.73 148.26"/>
                </g>
                <g>
                  <polyline class="cls-3" points="215.25 20.79 166.01 84.56 166.01 148.96"/>
                  <polyline class="cls-3" points="215.25 20.79 268.59 83.27 268.59 147.68"/>
                </g>
              </g>
            </g>
            <g>
              <g>
                <polyline class="cls-3" points="185.87 154.64 185.87 175.92 200.7 175.86 200.7 154.58"/>
                <polyline class="cls-3" points="233 154.75 233 176.03 247.82 175.97 247.82 154.69"/>
              </g>
              <g>
                <g>
                  <rect class="cls-3" x="208.5" y="200.59" width="17.72" height="5.52"/>
                  <polygon class="cls-3" points="226.1 195.84 208.38 195.84 208.5 190.32 226.22 190.32 226.1 195.84"/>
                  <rect class="cls-3" x="208.38" y="195.84" width="17.72" height="4.74"/>
                  <polygon class="cls-3" points="226.22 185.57 208.5 185.58 208.38 190.32 226.1 190.32 226.22 185.57"/>
                </g>
                <polygon class="cls-3" points="226.22 185.57 208.5 185.58 208.26 155.15 225.98 155.15 226.22 185.57"/>
              </g>
            </g>
          </g>
          <line class="cls-3" x1="178.52" y1="143.77" x2="256.01" y2="142.85"/>
          <ellipse class="cls-3" cx="222.6" cy="169.86" rx=".71" ry=".94"/>
        </g>
        <g>
          <polygon class="cls-4" points="234.62 90.6 234.83 104.97 219.7 87.39 219.5 72.94 234.62 90.6"/>
          <polygon class="cls-4" points="249.7 108.21 249.91 122.5 235.39 105.63 235.18 91.26 249.7 108.21"/>
          <polygon class="cls-4" points="265.1 126.19 265.31 140.42 250.47 123.16 250.27 108.87 265.1 126.19"/>
          <polygon class="cls-4" points="233.99 45.64 234.19 59.77 219.06 42.1 218.86 28.05 233.99 45.64"/>
          <polygon class="cls-4" points="249.07 63.18 249.28 77.38 234.76 60.43 234.56 46.3 249.07 63.18"/>
          <polygon class="cls-4" points="264.47 81.07 264.67 95.36 249.84 78.04 249.64 63.84 264.47 81.07"/>
          <polygon class="cls-4" points="234.41 75.74 234.61 89.47 219.48 71.81 219.28 58.08 234.41 75.74"/>
          <polygon class="cls-4" points="249.49 93.35 249.69 107.08 235.17 90.13 234.98 76.41 249.49 93.35"/>
          <polygon class="cls-4" points="264.89 111.33 265.09 125.06 250.26 107.74 250.06 94.02 264.89 111.33"/>
          <polygon class="cls-4" points="234.2 60.82 234.4 74.73 219.27 57.07 219.07 43.15 234.2 60.82"/>
          <polygon class="cls-4" points="249.28 78.42 249.48 92.33 234.97 75.39 234.77 61.48 249.28 78.42"/>
          <polygon class="cls-4" points="264.69 96.41 264.88 110.32 250.05 92.99 249.85 79.09 264.69 96.41"/>
        </g>
      </g>
      <g>
        <path class="cls-2" d="M223.91,206.11h-5.2v60.35c42.8-.17,85.52-11.26,118.46-33.26l-77.78-53.48-.42,1.73-35.06,24.66Z"/>
        <path class="cls-2" d="M339.83,231.39c31.21-21.76,48.58-50.38,49.08-80.82h-122.4l-6.36,26.03,79.68,54.79Z"/>
        <path class="cls-2" d="M207.77,32.21c-39.77,1.57-78.88,12.59-109.53,33.06l67.77,46.6v-1.55l41.76-78.11Z"/>
        <path class="cls-2" d="M224.34,32.1l44.25,57.37-.05,23,68.63-47.19c-31.5-21.04-71.93-32.09-112.83-33.17Z"/>
        <path class="cls-2" d="M177.8,178.5l-79.56,54.7c32.95,22,75.66,33.09,118.46,33.26v-60.35h-.84l-38.07-27.61Z"/>
        <path class="cls-2" d="M167.2,150.57H46.51c.49,30.44,17.86,59.06,49.08,80.82l79.64-54.76h0l-8.03-26.06Z"/>
        <path class="cls-2" d="M166.01,115.51l-70.43-48.43c-31.44,21.91-48.84,50.79-49.09,81.48h120.09l-.57-1.84v-31.21Z"/>
        <path class="cls-2" d="M416.84,143.4c0,2.57,2.28,4.24,5.76,4.24s5.76-1.67,5.76-4.24v-2.8h-11.52v2.8Z"/>
        <path class="cls-2" d="M230.36,289.7c0,2.39,2.42,3.96,6.17,3.96h4.08v-7.92h-4.08c-3.74,0-6.17,1.57-6.17,3.96Z"/>
        <path class="cls-2" d="M339.83,67.09l-71.36,49.06-1.47,32.42h121.92c-.25-30.69-17.65-59.57-49.09-81.48Z"/>
        <path class="cls-2" d="M364.44,249.4c-2.52,1.73-2.75,3.96-.03,5.83,2.72,1.87,5.96,1.72,8.48-.02l2.52-1.73-8.45-5.81-2.52,1.73Z"/>
        <path class="cls-1" d="M359.51,246.35c-5.96,4.1-6.67,9.24-1.15,13.04,5.53,3.8,13.01,3.31,18.97-.79l8.78-6.04-17.82-12.25-8.78,6.04ZM372.9,255.21c-2.52,1.73-5.75,1.89-8.48.02-2.72-1.87-2.5-4.1.03-5.83l2.52-1.73,8.45,5.81-2.52,1.73Z"/>
        <polygon class="cls-1" points="84.69 49.86 80.16 46.74 71.25 52.87 68.91 51.26 76.44 46.08 72.11 43.1 64.58 48.28 62.49 46.85 71.07 40.95 66.54 37.83 52.05 47.79 69.87 60.05 84.69 49.86"/>
        <polygon class="cls-1" points="59 41.02 59.94 34.77 54.47 38.53 55.18 43.65 59 41.02"/>
        <polygon class="cls-1" points="214.19 0 210.66 0 207.42 2.26 210.01 2.26 214.19 0"/>
        <polygon class="cls-1" points="215.87 12.95 206.39 12.95 206.39 9.76 214.5 9.76 214.5 8 206.39 8 206.39 5 215.53 5 215.53 3.2 203.27 3.2 203.27 14.75 215.87 14.75 215.87 12.95"/>
        <polygon class="cls-1" points="222.47 11.79 225.13 9.91 231.06 14.75 234.71 14.75 227.22 8.36 234.28 3.2 230.77 3.2 222.47 9.12 222.47 3.2 219.35 3.2 219.35 14.75 222.47 14.75 222.47 11.79"/>
        <polygon class="cls-1" points="18.84 163.72 14.21 163.72 14.21 158.15 11.64 158.15 11.64 163.72 7.27 163.72 7.27 157.44 4.66 157.44 4.66 165.87 21.46 165.87 21.46 157.21 18.84 157.21 18.84 163.72"/>
        <polygon class="cls-1" points="0 160.79 3.29 163.01 3.29 161.23 0 158.36 0 160.79"/>
        <polygon class="cls-1" points="4.66 146.68 16.03 146.68 4.66 153.04 4.66 154.81 21.46 154.81 21.46 152.68 10.08 152.68 21.46 146.31 21.46 144.55 4.66 144.55 4.66 146.68"/>
        <polygon class="cls-1" points="4.66 131.94 4.66 134.05 12.84 137.47 4.66 140.85 4.66 143.14 15.58 138.61 21.46 138.61 21.46 136.46 15.53 136.46 4.66 131.94"/>
        <path class="cls-1" d="M227.22,289.7c0,3.46,3.72,5.77,9.17,5.77h7.34v-11.55h-7.34c-5.45,0-9.17,2.31-9.17,5.77ZM240.61,285.74v7.92h-4.08c-3.74,0-6.17-1.57-6.17-3.96s2.42-3.96,6.17-3.96h4.08Z"/>
        <polygon class="cls-1" points="220.81 291.75 211.55 283.93 208.98 283.93 208.98 295.48 212.08 295.48 212.08 287.66 221.34 295.48 223.91 295.48 223.91 283.93 220.81 283.93 220.81 291.75"/>
        <polygon class="cls-1" points="200.34 283.93 197.22 283.93 197.22 288 190.64 295.48 193.72 295.48 198.68 289.85 203.6 295.48 206.94 295.48 200.34 287.97 200.34 283.93"/>
        <path class="cls-5" d="M414.2,138.45v5.05c0,3.74,3.36,6.3,8.4,6.3s8.4-2.56,8.4-6.3v-5.05h-16.8ZM428.37,143.4c0,2.57-2.28,4.24-5.76,4.24s-5.76-1.67-5.76-4.24v-2.8h11.52v2.8Z"/>
        <polygon class="cls-5" points="414.2 154.23 418.5 154.23 421.24 156.06 414.2 160.13 414.2 162.64 423.49 157.49 431.01 162.34 431.01 159.93 422.39 154.23 431.01 154.23 431.01 152.08 414.2 152.08 414.2 154.23"/>
        <polygon class="cls-1" points="71.96 266.38 73.28 256.15 68.34 252.75 50.52 265.01 56.38 269.04 64.47 263.47 63.15 273.69 68.09 277.09 85.91 264.83 80.06 260.81 71.96 266.38"/>
        <polygon class="cls-1" points="60.86 247.61 54.85 243.48 48.39 247.93 30.31 251.11 36.11 255.1 45.94 253.39 43.42 260.13 49.76 264.49 54.32 252.11 60.86 247.61"/>
        <polygon class="cls-1" points="360.86 47.1 363.71 46.99 362.26 54.12 369.21 58.9 371.71 46.89 386.68 46.4 380.13 41.9 367.81 42.32 374.28 37.87 368.37 33.81 350.55 46.06 356.46 50.12 360.86 47.1"/>
        <path class="cls-1" d="M218.71,266.46v2.96c43.83-.17,87.58-11.63,121.12-34.39l-2.66-1.83c-32.95,22-75.66,33.09-118.46,33.26Z"/>
        <path class="cls-1" d="M46.51,150.57h-3c.49,31.15,17.98,60.38,49.44,82.63l2.64-1.81c-31.21-21.76-48.58-50.38-49.08-80.82Z"/>
        <path class="cls-1" d="M95.58,67.09l-2.64-1.81c-31.69,22.41-49.21,51.9-49.45,83.29h3c.25-30.69,17.65-59.57,49.09-81.48Z"/>
        <path class="cls-1" d="M207.77,32.21l1.62-3.02c-41.35,1.35-82.13,12.77-113.8,34.26l2.66,1.83c30.65-20.47,69.76-31.49,109.53-33.06Z"/>
        <path class="cls-1" d="M337.17,65.27l2.66-1.83c-32.7-22.18-75.09-33.63-117.81-34.36l2.32,3.01c40.9,1.08,81.33,12.14,112.83,33.17Z"/>
        <path class="cls-1" d="M388.92,148.57h3c-.25-31.4-17.77-60.88-49.45-83.29l-2.64,1.81c31.44,21.91,48.84,50.79,49.09,81.48Z"/>
        <path class="cls-1" d="M98.24,233.2l-2.66,1.83c33.54,22.75,77.29,34.21,121.12,34.39v-2.96c-42.8-.17-85.52-11.26-118.46-33.26Z"/>
        <path class="cls-1" d="M339.83,231.39l2.64,1.81c31.46-22.26,48.95-51.48,49.44-82.63h-3c-.49,30.44-17.86,59.06-49.08,80.82Z"/>
        <path class="cls-1" d="M260.15,176.6l-.76,3.12,77.78,53.48,2.66,1.83,7.53,5.17c.26.18.56.26.85.26.48,0,.95-.23,1.24-.65.47-.68.3-1.62-.39-2.09l-6.59-4.53-2.64-1.81-79.68-54.79Z"/>
        <path class="cls-1" d="M166.01,115.51v-3.64l-67.77-46.6-2.66-1.83-7.53-5.17c-.68-.47-1.62-.3-2.09.39-.47.68-.3,1.62.39,2.09l6.59,4.53,2.64,1.81,70.43,48.43Z"/>
        <path class="cls-1" d="M177.8,178.5l-2.58-1.87-79.64,54.76-2.64,1.81-6.59,4.53c-.68.47-.86,1.4-.39,2.09.29.42.76.65,1.24.65.29,0,.59-.09.85-.26l7.53-5.17,2.66-1.83,79.56-54.7Z"/>
        <path class="cls-1" d="M268.54,112.47v2.43s-.06,1.26-.06,1.26l71.36-49.06,2.64-1.81,6.59-4.53c.68-.47.86-1.4.39-2.09-.47-.68-1.4-.85-2.09-.39l-7.53,5.17-2.66,1.83-68.63,47.19Z"/>
        <path class="cls-1" d="M218.71,206.11h-2v70.02c0,.55.45,1,1,1s1-.45,1-1v-70.02Z"/>
        <path class="cls-1" d="M218.71,22.34c0-.55-.45-1-1-1s-1,.45-1,1v3.29l2-.31v-2.98Z"/>
        <path class="cls-1" d="M167.2,150.57l-.62-2H33.64c-.55,0-1,.45-1,1s.45,1,1,1h133.56Z"/>
        <path class="cls-5" d="M402.74,148.57h-135.74l-.49,2h136.23c.55,0,1-.45,1-1s-.45-1-1-1Z"/>
      </g>
    </g>
  </g>
</svg>