<?xml version="1.0" encoding="UTF-8"?>
<svg id="Réteg_2" xmlns="http://www.w3.org/2000/svg" viewBox="0 0 431.01 295.48">
  <defs>
    <style>
      .cls-1 {
        fill: #fff;
      }

      .cls-2 {
        fill: none;
        stroke: #fff;
        stroke-linecap: round;
        stroke-linejoin: round;
        stroke-width: 2px;
      }
    </style>
  </defs>
  <g id="Réteg_1">
    <g>
      <rect class="cls-2" x="162.43" y="129.59" width="102.58" height="48.16"/>
      <g>
        <line class="cls-2" x1="190.07" y1="157.26" x2="190.07" y2="135.98"/>
        <line class="cls-2" x1="175.24" y1="157.32" x2="190.07" y2="157.26"/>
        <line class="cls-2" x1="175.24" y1="136.04" x2="175.24" y2="157.32"/>
      </g>
      <g>
        <line class="cls-2" x1="220.14" y1="157.26" x2="220.14" y2="135.98"/>
        <line class="cls-2" x1="205.31" y1="157.32" x2="220.14" y2="157.26"/>
        <line class="cls-2" x1="205.31" y1="136.04" x2="205.31" y2="157.32"/>
      </g>
      <g>
        <line class="cls-2" x1="250.21" y1="157.26" x2="250.21" y2="135.98"/>
        <line class="cls-2" x1="235.38" y1="157.32" x2="250.21" y2="157.26"/>
        <line class="cls-2" x1="235.38" y1="136.04" x2="235.38" y2="157.32"/>
      </g>
      <rect class="cls-2" x="155.25" y="44.49" width="116.94" height="85.11"/>
      <polyline class="cls-2" points="265 159.11 265 151.44 272.18 151.44 272.18 159.07"/>
      <rect class="cls-2" x="265" y="144.26" width="7.18" height="7.18"/>
      <rect class="cls-2" x="272.18" y="151.93" width="7.18" height="7.18"/>
      <polyline class="cls-2" points="279.36 159.11 279.36 166.74 265 166.77 265 159.11"/>
    </g>
    <g>
      <path class="cls-1" d="M386.11,252.57l-8.78,6.04c-5.96,4.1-13.44,4.59-18.97.79-5.52-3.8-4.81-8.95,1.15-13.04l8.78-6.04,17.82,12.25ZM364.45,249.4c-2.52,1.73-2.75,3.96-.03,5.83,2.72,1.87,5.96,1.72,8.48-.02l2.52-1.73-8.46-5.81-2.52,1.73Z"/>
      <path class="cls-1" d="M80.16,46.74l4.53,3.12-14.82,10.19-17.82-12.26,14.49-9.96,4.53,3.12-8.58,5.9,2.09,1.44,7.54-5.18,4.33,2.98-7.54,5.18,2.34,1.61,8.91-6.13ZM59,41.02l-3.82,2.63-.71-5.11,5.47-3.76-.94,6.25Z"/>
      <g>
        <path class="cls-1" d="M215.87,12.95v1.8h-12.6V3.2h12.26v1.8h-9.14v3h8.11v1.76h-8.11v3.18h9.48ZM210.01,2.26h-2.59l3.24-2.26h3.53l-4.18,2.26Z"/>
        <path class="cls-1" d="M225.13,9.91l-2.66,1.88v2.95h-3.12V3.2h3.12v5.92l8.3-5.92h3.5l-7.06,5.16,7.49,6.38h-3.65l-5.93-4.83Z"/>
      </g>
      <g>
        <path class="cls-1" d="M3.29,161.23v1.78l-3.29-2.23v-2.42l3.29,2.87ZM18.84,157.21h2.62v8.66H4.66v-8.43h2.62v6.29h4.37v-5.58h2.57v5.58h4.63v-6.52Z"/>
        <path class="cls-1" d="M4.66,144.55h16.8v1.77l-11.38,6.37h11.38v2.13H4.66v-1.76l11.38-6.37H4.66v-2.13Z"/>
        <path class="cls-1" d="M15.53,136.46h5.93v2.14h-5.88l-10.92,4.54v-2.29l8.19-3.38-8.19-3.42v-2.11l10.87,4.52Z"/>
      </g>
      <g>
        <path class="cls-1" d="M243.73,295.48h-7.35c-5.45,0-9.17-2.31-9.17-5.77s3.72-5.77,9.17-5.77h7.35v11.55ZM236.53,285.74c-3.74,0-6.17,1.57-6.17,3.96s2.42,3.96,6.17,3.96h4.08v-7.92h-4.08Z"/>
        <path class="cls-1" d="M208.98,295.48v-11.55h2.57l9.27,7.82v-7.82h3.1v11.55h-2.57l-9.26-7.82v7.82h-3.1Z"/>
        <path class="cls-1" d="M197.22,288v-4.07h3.12v4.04l6.6,7.5h-3.34l-4.92-5.62-4.97,5.62h-3.07l6.58-7.47Z"/>
      </g>
      <g>
        <path class="cls-1" d="M431.01,138.45v5.05c0,3.74-3.36,6.3-8.4,6.3s-8.4-2.56-8.4-6.3v-5.05h16.8ZM416.84,143.4c0,2.57,2.28,4.24,5.76,4.24s5.76-1.67,5.76-4.24v-2.8h-11.52v2.8Z"/>
        <path class="cls-1" d="M421.24,156.06l-2.74-1.83h-4.3v-2.14h16.8v2.14h-8.62l8.62,5.71v2.41l-7.51-4.85-9.29,5.15v-2.51l7.03-4.07Z"/>
      </g>
      <g>
        <path class="cls-1" d="M50.52,265.01l17.82-12.26,4.94,3.4-1.32,10.22,8.1-5.57,5.86,4.03-17.82,12.25-4.94-3.4,1.32-10.22-8.1,5.57-5.86-4.03Z"/>
        <path class="cls-1" d="M48.39,247.93l6.47-4.45,6.01,4.13-6.54,4.5-4.56,12.38-6.34-4.36,2.52-6.74-9.83,1.71-5.8-3.99,18.08-3.19Z"/>
      </g>
      <path class="cls-1" d="M363.71,46.99l-2.85.1-4.41,3.03-5.91-4.06,17.82-12.25,5.91,4.06-6.47,4.45,12.32-.42,6.54,4.5-14.97.49-2.5,12.01-6.95-4.78,1.45-7.12Z"/>
      <path class="cls-1" d="M217.71,269.42c-44.54,0-89.08-11.66-122.98-34.97-33.04-22.72-51.24-52.98-51.24-85.21s18.2-62.5,51.24-85.21c67.81-46.63,178.15-46.63,245.97,0h0c33.04,22.72,51.24,52.98,51.24,85.21s-18.2,62.5-51.24,85.21c-33.91,23.31-78.45,34.97-122.98,34.97ZM217.71,32.01c-43.92,0-87.85,11.5-121.28,34.49-32.2,22.14-49.94,51.53-49.94,82.74s17.74,60.6,49.94,82.74c66.88,45.98,175.69,45.98,242.57,0,32.2-22.14,49.94-51.53,49.94-82.74s-17.74-60.6-49.94-82.74c-33.44-22.99-77.36-34.49-121.28-34.49Z"/>
      <path class="cls-1" d="M348.21,240.47c-.29,0-.59-.09-.85-.26L86.36,60.74c-.68-.47-.86-1.4-.39-2.09.47-.68,1.4-.85,2.09-.39l261,179.46c.68.47.86,1.4.39,2.09-.29.42-.76.65-1.24.65Z"/>
      <path class="cls-1" d="M87.21,240.47c-.48,0-.95-.23-1.24-.65-.47-.68-.3-1.62.39-2.09L347.36,58.27c.68-.47,1.62-.3,2.09.39.47.68.3,1.62-.39,2.09L88.06,240.2c-.26.18-.56.26-.85.26Z"/>
      <path class="cls-1" d="M217.71,277.13c-.55,0-1-.45-1-1V22.34c0-.55.45-1,1-1s1,.45,1,1v253.79c0,.55-.45,1-1,1Z"/>
      <path class="cls-1" d="M402.74,150.57H33.64c-.55,0-1-.45-1-1s.45-1,1-1h369.11c.55,0,1,.45,1,1s-.45,1-1,1Z"/>
    </g>
  </g>
</svg>