<?xml version="1.0" encoding="UTF-8"?>
<svg id="Réteg_2" xmlns="http://www.w3.org/2000/svg" viewBox="0 0 431.01 295.48">
  <defs>
    <style>
      .cls-1 {
        fill: #fff;
      }

      .cls-2, .cls-3 {
        fill: none;
      }

      .cls-4 {
        fill: #f7c82a;
      }

      .cls-3 {
        stroke: #fff;
        stroke-linecap: round;
        stroke-linejoin: round;
        stroke-width: 2px;
      }

      .cls-5 {
        fill: #8dc046;
      }
    </style>
  </defs>
  <g id="Réteg_1">
    <g>
      <g>
        <g>
          <g>
            <g>
              <polyline class="cls-3" points="258.97 153.57 258.78 196.18 175.43 196.13 174.98 153.57"/>
              <g>
                <polyline class="cls-3" points="166.01 148.96 215.25 85.19 215.25 20.79"/>
                <g>
                  <polygon class="cls-3" points="173.29 149.16 166.01 148.96 215.25 85.19 215.25 95.66 173.29 149.16"/>
                  <polygon class="cls-3" points="260.73 148.26 268.59 147.68 215.25 85.19 215.25 95.66 260.73 148.26"/>
                </g>
                <g>
                  <polyline class="cls-3" points="215.25 20.79 166.01 84.56 166.01 148.96"/>
                  <polyline class="cls-3" points="215.25 20.79 268.59 83.27 268.59 147.68"/>
                </g>
              </g>
            </g>
            <g>
              <polyline class="cls-3" points="185.87 154.64 185.87 175.92 200.7 175.86 200.7 154.58"/>
              <polyline class="cls-3" points="233 154.75 233 176.03 247.82 175.97 247.82 154.69"/>
            </g>
          </g>
          <line class="cls-3" x1="178.52" y1="143.77" x2="256.01" y2="142.85"/>
        </g>
        <g>
          <polygon class="cls-4" points="197.49 90.66 197.63 104.64 210.97 86.91 210.83 72.87 197.49 90.66"/>
          <polygon class="cls-4" points="184.18 108.42 184.32 122.32 197.13 105.3 196.99 91.33 184.18 108.42"/>
          <polygon class="cls-4" points="170.59 126.55 170.73 140.38 183.82 122.98 183.68 109.09 170.59 126.55"/>
          <polygon class="cls-4" points="197.04 46.97 197.18 60.7 210.53 42.89 210.39 29.23 197.04 46.97"/>
          <polygon class="cls-4" points="183.73 64.65 183.87 78.46 196.68 61.37 196.54 47.64 183.73 64.65"/>
          <polygon class="cls-4" points="170.15 82.7 170.28 96.58 183.37 79.13 183.23 65.32 170.15 82.7"/>
          <polygon class="cls-4" points="197.34 76.23 197.48 89.57 210.82 71.76 210.69 58.42 197.34 76.23"/>
          <polygon class="cls-4" points="184.03 93.98 184.17 107.32 196.98 90.23 196.84 76.89 184.03 93.98"/>
          <polygon class="cls-4" points="170.45 112.11 170.58 125.45 183.67 107.99 183.53 94.65 170.45 112.11"/>
          <polygon class="cls-4" points="197.19 61.72 197.33 75.24 210.68 57.43 210.54 43.91 197.19 61.72"/>
          <polygon class="cls-4" points="183.89 79.47 184.02 92.99 196.83 75.91 196.69 62.39 183.89 79.47"/>
          <polygon class="cls-4" points="170.3 97.6 170.43 111.12 183.52 93.66 183.38 80.15 170.3 97.6"/>
        </g>
      </g>
      <g>
        <path class="cls-2" d="M168.76,150.57H46.51c.49,30.44,17.86,59.06,49.08,80.82l79.62-54.74.02-.61-6.46-25.47Z"/>
        <path class="cls-2" d="M174.98,185.7l.13-5.36-76.87,52.85c32.95,22,75.66,33.09,118.46,33.26v-70.31h-2.52l-39.21-10.45Z"/>
        <path class="cls-2" d="M230.36,289.7c0,2.39,2.42,3.96,6.17,3.96h4.08v-7.92h-4.08c-3.74,0-6.17,1.57-6.17,3.96Z"/>
        <path class="cls-2" d="M364.45,249.4c-2.52,1.73-2.75,3.96-.03,5.83,2.72,1.87,5.96,1.72,8.48-.02l2.52-1.73-8.45-5.81-2.52,1.73Z"/>
        <path class="cls-2" d="M166.01,123.57v-8.06l-70.43-48.43c-31.44,21.91-48.84,50.79-49.09,81.48h120.92l-1.4-.93v-24.06Z"/>
        <path class="cls-2" d="M208.24,32.19c-39.93,1.5-79.22,12.53-110,33.08l67.77,46.6v-2.78l42.23-76.9Z"/>
        <path class="cls-2" d="M222.8,32.06l45.03,72.57.46,8,68.89-47.36c-31.9-21.3-72.95-32.37-114.38-33.21Z"/>
        <path class="cls-2" d="M416.84,143.4c0,2.57,2.28,4.24,5.76,4.24s5.76-1.67,5.76-4.24v-2.8h-11.52v2.8Z"/>
        <path class="cls-2" d="M258.85,175.7l80.98,55.68c31.21-21.76,48.58-50.38,49.08-80.82h-128.37l-1.69,20.16v4.98Z"/>
        <path class="cls-2" d="M227.22,196.15h-8.51v70.31c42.8-.17,85.52-11.26,118.46-33.26l-78.32-53.85v1.76l-31.63,15.04Z"/>
        <path class="cls-2" d="M339.83,67.09l-71.34,49.06.1,1.82-7.86,30.3-.03.31h128.21c-.25-30.69-17.65-59.57-49.09-81.48Z"/>
        <path class="cls-1" d="M359.51,246.35c-5.96,4.1-6.67,9.24-1.15,13.04,5.53,3.8,13.01,3.31,18.97-.79l8.78-6.04-17.82-12.25-8.78,6.04ZM372.9,255.21c-2.52,1.73-5.75,1.89-8.48.02-2.72-1.87-2.5-4.1.03-5.83l2.52-1.73,8.45,5.81-2.52,1.73Z"/>
        <polygon class="cls-1" points="84.69 49.86 80.16 46.74 71.25 52.87 68.91 51.26 76.44 46.08 72.12 43.1 64.58 48.28 62.49 46.85 71.07 40.95 66.54 37.83 52.05 47.79 69.87 60.05 84.69 49.86"/>
        <polygon class="cls-1" points="59 41.02 59.94 34.77 54.47 38.53 55.18 43.65 59 41.02"/>
        <polygon class="cls-1" points="214.19 0 210.66 0 207.42 2.26 210.01 2.26 214.19 0"/>
        <polygon class="cls-1" points="215.87 12.95 206.39 12.95 206.39 9.76 214.5 9.76 214.5 8 206.39 8 206.39 5 215.53 5 215.53 3.2 203.27 3.2 203.27 14.75 215.87 14.75 215.87 12.95"/>
        <polygon class="cls-1" points="222.47 11.79 225.13 9.91 231.06 14.75 234.71 14.75 227.22 8.36 234.28 3.2 230.77 3.2 222.47 9.12 222.47 3.2 219.35 3.2 219.35 14.75 222.47 14.75 222.47 11.79"/>
        <polygon class="cls-5" points="18.84 163.72 14.21 163.72 14.21 158.15 11.64 158.15 11.64 163.72 7.27 163.72 7.27 157.44 4.66 157.44 4.66 165.87 21.46 165.87 21.46 157.21 18.84 157.21 18.84 163.72"/>
        <polygon class="cls-5" points="0 160.79 3.29 163.01 3.29 161.23 0 158.36 0 160.79"/>
        <polygon class="cls-5" points="4.66 146.68 16.03 146.68 4.66 153.04 4.66 154.81 21.46 154.81 21.46 152.68 10.08 152.68 21.46 146.31 21.46 144.55 4.66 144.55 4.66 146.68"/>
        <polygon class="cls-5" points="4.66 131.94 4.66 134.05 12.84 137.47 4.66 140.85 4.66 143.14 15.58 138.61 21.46 138.61 21.46 136.46 15.53 136.46 4.66 131.94"/>
        <path class="cls-1" d="M227.22,289.7c0,3.46,3.72,5.77,9.17,5.77h7.34v-11.55h-7.34c-5.45,0-9.17,2.31-9.17,5.77ZM240.61,285.74v7.92h-4.08c-3.74,0-6.17-1.57-6.17-3.96s2.42-3.96,6.17-3.96h4.08Z"/>
        <polygon class="cls-1" points="220.81 291.75 211.55 283.93 208.98 283.93 208.98 295.48 212.08 295.48 212.08 287.66 221.34 295.48 223.91 295.48 223.91 283.93 220.81 283.93 220.81 291.75"/>
        <polygon class="cls-1" points="200.34 283.93 197.22 283.93 197.22 288 190.64 295.48 193.72 295.48 198.68 289.85 203.6 295.48 206.94 295.48 200.34 287.97 200.34 283.93"/>
        <path class="cls-1" d="M414.2,138.45v5.05c0,3.74,3.36,6.3,8.4,6.3s8.4-2.56,8.4-6.3v-5.05h-16.8ZM428.37,143.4c0,2.57-2.28,4.24-5.76,4.24s-5.76-1.67-5.76-4.24v-2.8h11.52v2.8Z"/>
        <polygon class="cls-1" points="414.2 154.23 418.5 154.23 421.24 156.06 414.2 160.13 414.2 162.64 423.49 157.49 431.01 162.34 431.01 159.93 422.39 154.23 431.01 154.23 431.01 152.08 414.2 152.08 414.2 154.23"/>
        <polygon class="cls-1" points="71.96 266.38 73.28 256.15 68.34 252.75 50.52 265.01 56.38 269.04 64.47 263.47 63.15 273.69 68.09 277.09 85.91 264.83 80.06 260.81 71.96 266.38"/>
        <polygon class="cls-1" points="60.86 247.61 54.85 243.48 48.39 247.93 30.31 251.11 36.12 255.1 45.94 253.39 43.42 260.13 49.76 264.49 54.32 252.11 60.86 247.61"/>
        <polygon class="cls-1" points="360.86 47.1 363.71 46.99 362.26 54.12 369.21 58.9 371.71 46.89 386.68 46.4 380.13 41.9 367.81 42.32 374.28 37.87 368.37 33.81 350.55 46.06 356.46 50.12 360.86 47.1"/>
        <path class="cls-1" d="M98.24,233.2l-2.66,1.83c33.55,22.75,77.29,34.21,121.12,34.39v-2.96c-42.8-.17-85.52-11.26-118.46-33.26Z"/>
        <path class="cls-1" d="M388.92,148.57h3c-.25-31.4-17.77-60.88-49.45-83.29l-2.64,1.81c31.44,21.91,48.84,50.79,49.09,81.48Z"/>
        <path class="cls-1" d="M46.51,150.57h-3c.49,31.15,17.98,60.37,49.44,82.63l2.64-1.81c-31.21-21.76-48.58-50.38-49.08-80.82Z"/>
        <path class="cls-1" d="M218.71,266.46v2.96c43.83-.17,87.58-11.64,121.12-34.39l-2.66-1.83c-32.95,22-75.66,33.09-118.46,33.26Z"/>
        <path class="cls-1" d="M95.58,67.09l-2.64-1.81c-31.69,22.41-49.21,51.9-49.45,83.29h3c.25-30.69,17.65-59.57,49.09-81.48Z"/>
        <path class="cls-1" d="M208.24,32.19l1.66-3.02c-41.53,1.27-82.51,12.7-114.31,34.27l2.66,1.83c30.77-20.55,70.07-31.58,110-33.08Z"/>
        <path class="cls-1" d="M339.83,231.39l2.64,1.81c31.46-22.26,48.95-51.48,49.44-82.63h-3c-.49,30.44-17.86,59.06-49.08,80.82Z"/>
        <path class="cls-1" d="M337.17,65.27l2.66-1.83c-32.97-22.36-75.81-33.82-118.89-34.37l1.85,2.99c41.42.84,82.48,11.91,114.38,33.21Z"/>
        <path class="cls-1" d="M258.85,175.7v3.64l78.32,53.85,2.66,1.83,7.53,5.17c.26.18.56.26.85.26.48,0,.95-.23,1.24-.65.47-.68.3-1.62-.39-2.09l-6.59-4.53-2.64-1.81-80.98-55.68Z"/>
        <path class="cls-1" d="M166.01,115.51v-3.64l-67.77-46.6-2.66-1.83-7.53-5.18c-.68-.47-1.62-.3-2.09.39-.47.68-.3,1.62.39,2.09l6.59,4.53,2.64,1.81,70.43,48.43Z"/>
        <path class="cls-1" d="M175.11,180.35l.09-3.7-79.62,54.74-2.64,1.81-6.59,4.53c-.68.47-.86,1.4-.39,2.09.29.42.76.65,1.24.65.29,0,.59-.09.85-.26l7.53-5.17,2.66-1.83,76.87-52.85Z"/>
        <path class="cls-1" d="M268.29,112.64l.2,3.5,71.34-49.06,2.64-1.81,6.59-4.53c.68-.47.86-1.4.39-2.09-.47-.68-1.4-.85-2.09-.39l-7.53,5.18-2.66,1.83-68.89,47.36Z"/>
        <path class="cls-1" d="M218.71,196.15h-2v79.98c0,.55.45,1,1,1s1-.45,1-1v-79.98Z"/>
        <path class="cls-1" d="M218.71,25.48v-3.14c0-.55-.45-1-1-1s-1,.45-1,1v.93l.56-.12,1.44,2.33Z"/>
        <path class="cls-1" d="M402.74,148.57h-142.04l-.17,2h142.2c.55,0,1-.45,1-1s-.45-1-1-1Z"/>
        <path class="cls-5" d="M168.76,150.57l-.34-1.33-1.01-.67H33.64c-.55,0-1,.45-1,1s.45,1,1,1h135.12Z"/>
      </g>
    </g>
  </g>
</svg>