<?xml version="1.0" encoding="UTF-8"?>
<svg id="Réteg_2" xmlns="http://www.w3.org/2000/svg" viewBox="0 0 431.01 295.48">
  <defs>
    <style>
      .cls-1 {
        fill: #fff;
      }

      .cls-2, .cls-3 {
        fill: none;
      }

      .cls-3 {
        stroke: #fff;
        stroke-linecap: round;
        stroke-linejoin: round;
        stroke-width: 2px;
      }

      .cls-4 {
        fill: #8dc046;
      }
    </style>
  </defs>
  <g id="Réteg_1">
    <g>
      <g>
        <g>
          <g>
            <g>
              <polyline class="cls-3" points="218.34 154.63 218.34 197.64 284.44 160.02 284.44 117.47"/>
              <polyline class="cls-3" points="218.34 154.63 218.34 197.66 190.84 181.75 172.88 171.38 153.25 160.02 153.25 112.53"/>
            </g>
            <g>
              <g>
                <polygon class="cls-3" points="292.3 107.61 219.56 149.39 181.15 64.12 253.89 22.34 292.3 107.61"/>
                <polyline class="cls-3" points="142.3 106.08 181.15 64.12 253.89 22.34"/>
              </g>
              <g>
                <polygon class="cls-3" points="147.74 109.43 142.3 106.08 181.15 64.12 180.88 70.79 147.74 109.43"/>
                <polygon class="cls-3" points="213.6 146.54 219.56 149.39 181.15 64.12 180.88 70.79 213.6 146.54"/>
              </g>
            </g>
          </g>
          <g>
            <g>
              <polyline class="cls-3" points="274.77 123.72 274.77 145.43 263.64 151.79 263.64 130.08"/>
              <polyline class="cls-3" points="257.84 133.34 257.84 155.05 246.71 161.41 246.71 139.7"/>
              <polyline class="cls-3" points="240.97 142.9 240.97 164.61 229.84 170.97 229.84 149.27"/>
            </g>
            <g>
              <polyline class="cls-3" points="160.82 122.5 160.82 143.99 171.94 150.35 171.94 128.87"/>
              <polyline class="cls-3" points="196.14 143.02 196.14 164.5 207.27 170.86 207.27 149.38"/>
            </g>
          </g>
        </g>
        <line class="cls-3" x1="152.7" y1="106.85" x2="208.55" y2="138.16"/>
      </g>
      <g>
        <path class="cls-2" d="M181.18,176.17l-82.93,57.02c32.95,22,75.66,33.09,118.46,33.26v-70.62l-4.62-1.8-30.91-17.87Z"/>
        <path class="cls-2" d="M153.25,151.79v-1.22H46.51c.49,30.44,17.86,59.06,49.08,80.82l82.72-56.88-6.36-3.67-18.7-19.05Z"/>
        <path class="cls-2" d="M219.56,196.95l-.85-.33v69.84c42.8-.17,85.52-11.26,118.46-33.26l-82.11-56.46-5.98,3.4-29.52,16.8Z"/>
        <path class="cls-2" d="M259.87,35.6l28.49,63.24,48.82-33.57c-22.3-14.89-49.06-24.78-77.3-29.67Z"/>
        <path class="cls-2" d="M339.83,67.09l-50.23,34.53,2.7,5.99-7.86,39.76.08,1.2h104.39c-.25-30.69-17.65-59.57-49.09-81.48Z"/>
        <path class="cls-2" d="M145.22,102.93l.97-1.05-50.61-34.8c-31.44,21.91-48.84,50.79-49.09,81.48h106.75v-4.44l-8.03-41.19Z"/>
        <path class="cls-2" d="M259.88,174l-1.92,1.09,81.87,56.29c31.21-21.76,48.58-50.38,49.07-80.82h-104.24l.3,4.24-25.08,19.19Z"/>
        <path class="cls-2" d="M215.87,44.18l.84-.48v-11.68c-42.8.17-85.52,11.26-118.46,33.26l50.01,34.38,2.56-2.77,65.05-52.71Z"/>
        <path class="cls-2" d="M230.36,289.7c0,2.39,2.42,3.96,6.17,3.96h4.08v-7.92h-4.08c-3.74,0-6.17,1.57-6.17,3.96Z"/>
        <path class="cls-2" d="M416.84,143.4c0,2.57,2.28,4.24,5.76,4.24s5.76-1.67,5.76-4.24v-2.8h-11.52v2.8Z"/>
        <path class="cls-2" d="M235.9,32.67c-5.71-.42-11.45-.64-17.19-.66v10.54l3.36-1.93,13.83-7.94Z"/>
        <path class="cls-2" d="M364.45,249.4c-2.52,1.73-2.75,3.96-.03,5.83,2.72,1.87,5.96,1.72,8.48-.02l2.52-1.73-8.46-5.81-2.52,1.73Z"/>
        <path class="cls-1" d="M359.51,246.35c-5.96,4.1-6.67,9.24-1.15,13.04,5.53,3.8,13.01,3.31,18.97-.79l8.78-6.04-17.82-12.25-8.78,6.04ZM372.9,255.21c-2.52,1.73-5.75,1.89-8.48.02-2.72-1.87-2.5-4.1.03-5.83l2.52-1.73,8.46,5.81-2.52,1.73Z"/>
        <polygon class="cls-4" points="84.69 49.86 80.16 46.74 71.25 52.87 68.91 51.26 76.44 46.08 72.12 43.1 64.58 48.28 62.49 46.85 71.07 40.95 66.54 37.83 52.05 47.79 69.87 60.05 84.69 49.86"/>
        <polygon class="cls-4" points="59 41.02 59.94 34.77 54.47 38.53 55.18 43.65 59 41.02"/>
        <polygon class="cls-1" points="214.19 0 210.66 0 207.42 2.26 210.01 2.26 214.19 0"/>
        <polygon class="cls-1" points="215.87 12.95 206.39 12.95 206.39 9.76 214.5 9.76 214.5 8 206.39 8 206.39 5 215.53 5 215.53 3.2 203.27 3.2 203.27 14.75 215.87 14.75 215.87 12.95"/>
        <polygon class="cls-1" points="222.47 11.79 225.13 9.91 231.06 14.75 234.71 14.75 227.22 8.36 234.28 3.2 230.77 3.2 222.47 9.12 222.47 3.2 219.35 3.2 219.35 14.75 222.47 14.75 222.47 11.79"/>
        <polygon class="cls-1" points="18.84 163.72 14.21 163.72 14.21 158.15 11.64 158.15 11.64 163.72 7.27 163.72 7.27 157.44 4.66 157.44 4.66 165.87 21.46 165.87 21.46 157.21 18.84 157.21 18.84 163.72"/>
        <polygon class="cls-1" points="0 160.79 3.29 163.01 3.29 161.23 0 158.36 0 160.79"/>
        <polygon class="cls-1" points="4.66 146.68 16.03 146.68 4.66 153.04 4.66 154.81 21.46 154.81 21.46 152.68 10.08 152.68 21.46 146.31 21.46 144.55 4.66 144.55 4.66 146.68"/>
        <polygon class="cls-1" points="4.66 131.94 4.66 134.05 12.84 137.47 4.66 140.85 4.66 143.14 15.58 138.61 21.46 138.61 21.46 136.46 15.53 136.46 4.66 131.94"/>
        <path class="cls-1" d="M227.22,289.7c0,3.46,3.72,5.77,9.17,5.77h7.35v-11.55h-7.35c-5.45,0-9.17,2.31-9.17,5.77ZM240.61,285.74v7.92h-4.08c-3.74,0-6.17-1.57-6.17-3.96s2.42-3.96,6.17-3.96h4.08Z"/>
        <polygon class="cls-1" points="220.81 291.75 211.55 283.93 208.98 283.93 208.98 295.48 212.08 295.48 212.08 287.66 221.34 295.48 223.91 295.48 223.91 283.93 220.81 283.93 220.81 291.75"/>
        <polygon class="cls-1" points="200.34 283.93 197.22 283.93 197.22 288 190.64 295.48 193.71 295.48 198.68 289.85 203.6 295.48 206.94 295.48 200.34 287.97 200.34 283.93"/>
        <path class="cls-1" d="M414.2,138.45v5.05c0,3.74,3.36,6.3,8.4,6.3s8.4-2.56,8.4-6.3v-5.05h-16.8ZM428.37,143.4c0,2.57-2.28,4.24-5.76,4.24s-5.76-1.67-5.76-4.24v-2.8h11.52v2.8Z"/>
        <polygon class="cls-1" points="414.2 154.23 418.5 154.23 421.24 156.06 414.2 160.13 414.2 162.64 423.49 157.49 431.01 162.34 431.01 159.93 422.39 154.23 431.01 154.23 431.01 152.08 414.2 152.08 414.2 154.23"/>
        <polygon class="cls-1" points="71.96 266.38 73.28 256.15 68.34 252.75 50.52 265.01 56.38 269.04 64.47 263.47 63.15 273.69 68.09 277.09 85.91 264.83 80.05 260.81 71.96 266.38"/>
        <polygon class="cls-1" points="60.86 247.61 54.85 243.48 48.39 247.93 30.31 251.11 36.12 255.1 45.94 253.39 43.42 260.13 49.76 264.49 54.32 252.11 60.86 247.61"/>
        <polygon class="cls-1" points="360.86 47.1 363.71 46.99 362.26 54.12 369.21 58.9 371.71 46.89 386.68 46.4 380.13 41.9 367.81 42.32 374.28 37.87 368.37 33.81 350.55 46.06 356.46 50.12 360.86 47.1"/>
        <path class="cls-1" d="M337.17,65.27l2.66-1.83c-23.34-15.83-51.62-26.2-81.43-31.1l1.47,3.25c28.24,4.89,55.01,14.78,77.3,29.67Z"/>
        <path class="cls-1" d="M388.92,148.57h3c-.25-31.4-17.77-60.88-49.45-83.29l-2.64,1.81c31.44,21.91,48.84,50.79,49.09,81.48Z"/>
        <path class="cls-1" d="M95.58,67.09l-2.64-1.81c-31.69,22.41-49.21,51.9-49.45,83.29h3c.25-30.69,17.65-59.57,49.09-81.48Z"/>
        <path class="cls-1" d="M216.71,32.01v-2.95c-43.83.17-87.58,11.63-121.12,34.39l2.66,1.83c32.95-22,75.66-33.09,118.46-33.26Z"/>
        <path class="cls-1" d="M46.51,150.57h-3c.49,31.15,17.98,60.37,49.44,82.63l2.64-1.81c-31.21-21.76-48.58-50.38-49.08-80.82Z"/>
        <path class="cls-1" d="M339.83,231.39l2.64,1.81c31.46-22.26,48.95-51.48,49.44-82.63h-3c-.49,30.44-17.86,59.06-49.07,80.82Z"/>
        <path class="cls-1" d="M98.24,233.2l-2.66,1.83c33.54,22.75,77.29,34.21,121.12,34.39v-2.96c-42.8-.17-85.52-11.26-118.46-33.26Z"/>
        <path class="cls-1" d="M218.71,266.46v2.96c43.83-.17,87.58-11.63,121.12-34.39l-2.66-1.83c-32.95,22-75.66,33.09-118.46,33.26Z"/>
        <path class="cls-1" d="M235.9,32.67l4.52-2.6c-7.21-.65-14.46-.99-21.72-1.02v2.95c5.74.02,11.48.24,17.19.66Z"/>
        <path class="cls-4" d="M146.19,101.88l2.06-2.22-50.01-34.38-2.66-1.83-7.53-5.18c-.68-.47-1.62-.3-2.09.39-.47.68-.3,1.62.39,2.09l6.59,4.53,2.64,1.81,50.61,34.8Z"/>
        <path class="cls-1" d="M257.96,175.09l-2.9,1.65,82.11,56.46,2.66,1.83,7.53,5.17c.26.18.56.26.85.26.48,0,.95-.23,1.24-.65.47-.68.3-1.62-.39-2.09l-6.59-4.53-2.64-1.81-81.87-56.29Z"/>
        <path class="cls-1" d="M288.35,98.84l1.25,2.78,50.23-34.53,2.64-1.81,6.59-4.53c.68-.47.86-1.4.39-2.09-.47-.68-1.4-.85-2.09-.39l-7.53,5.18-2.66,1.83-48.82,33.57Z"/>
        <path class="cls-1" d="M181.18,176.17l-2.88-1.66-82.72,56.88-2.64,1.81-6.59,4.53c-.68.47-.86,1.4-.39,2.09.29.42.76.65,1.24.65.29,0,.59-.09.85-.26l7.53-5.17,2.66-1.83,82.93-57.02Z"/>
        <path class="cls-1" d="M218.71,196.61l-2-.78v80.3c0,.55.45,1,1,1s1-.45,1-1v-79.52Z"/>
        <path class="cls-1" d="M216.71,43.7l2-1.15v-20.21c0-.55-.45-1-1-1s-1,.45-1,1v21.36Z"/>
        <path class="cls-1" d="M402.74,148.57h-118.22l.14,2h118.08c.55,0,1-.45,1-1s-.45-1-1-1Z"/>
        <path class="cls-1" d="M153.25,150.57v-2H33.64c-.55,0-1,.45-1,1s.45,1,1,1h119.61Z"/>
      </g>
    </g>
  </g>
</svg>