<?xml version="1.0" encoding="UTF-8"?>
<svg id="Réteg_2" xmlns="http://www.w3.org/2000/svg" viewBox="0 0 431 295.48">
  <defs>
    <style>
      .cls-1 {
        fill: #fff;
      }

      .cls-2, .cls-3 {
        fill: none;
      }

      .cls-4 {
        fill: #f7c82a;
      }

      .cls-3 {
        stroke: #fff;
        stroke-linecap: round;
        stroke-linejoin: round;
        stroke-width: 2px;
      }

      .cls-5 {
        fill: #8dc046;
      }
    </style>
  </defs>
  <g id="Réteg_1">
    <g>
      <g>
        <g>
          <g>
            <g>
              <g>
                <polyline class="cls-3" points="216.26 154.63 216.26 197.64 150.17 160.02 150.17 117.47"/>
                <polyline class="cls-3" points="216.27 154.63 216.27 197.66 243.76 181.75 261.72 171.38 281.36 160.02 281.36 112.53"/>
              </g>
              <g>
                <g>
                  <polygon class="cls-3" points="142.3 107.61 215.04 149.39 253.45 64.12 180.72 22.34 142.3 107.61"/>
                  <polyline class="cls-3" points="292.3 106.08 253.45 64.12 180.72 22.34"/>
                </g>
                <g>
                  <polygon class="cls-3" points="286.87 109.43 292.3 106.08 253.45 64.12 253.72 70.79 286.87 109.43"/>
                  <polygon class="cls-3" points="221 146.54 215.04 149.39 253.45 64.12 253.72 70.79 221 146.54"/>
                </g>
              </g>
            </g>
            <g>
              <g>
                <polyline class="cls-3" points="159.84 123.72 159.84 145.43 170.96 151.79 170.96 130.08"/>
                <polyline class="cls-3" points="176.76 133.34 176.76 155.05 187.89 161.41 187.89 139.7"/>
                <polyline class="cls-3" points="193.64 142.9 193.64 164.61 204.76 170.97 204.76 149.27"/>
              </g>
              <g>
                <polyline class="cls-3" points="273.79 122.5 273.79 143.99 262.66 150.35 262.66 128.87"/>
                <polyline class="cls-3" points="238.46 143.02 238.46 164.5 227.34 170.86 227.34 149.38"/>
              </g>
            </g>
          </g>
          <line class="cls-3" x1="281.9" y1="106.85" x2="226.05" y2="138.16"/>
        </g>
        <g>
          <polygon class="cls-4" points="219.28 82.43 234.97 91.44 246 66.96 230.18 57.88 219.28 82.43"/>
          <polygon class="cls-4" points="208.41 106.92 223.97 115.85 234.56 92.36 218.87 83.35 208.41 106.92"/>
          <polygon class="cls-4" points="197.31 131.93 212.74 140.79 223.56 116.77 208 107.84 197.31 131.93"/>
          <polygon class="cls-4" points="171.98 55.28 187.11 63.96 198.01 39.39 183.02 30.78 171.98 55.28"/>
          <polygon class="cls-4" points="160.99 79.69 176.24 88.45 186.7 64.88 171.57 56.2 160.99 79.69"/>
          <polygon class="cls-4" points="149.76 104.61 165.14 113.45 175.83 89.37 160.57 80.61 149.76 104.61"/>
          <polygon class="cls-4" points="203.5 73.37 218.41 81.93 229.31 57.37 214.4 48.81 203.5 73.37"/>
          <polygon class="cls-4" points="192.63 97.86 207.54 106.42 218 82.85 203.09 74.29 192.63 97.86"/>
          <polygon class="cls-4" points="181.53 122.86 196.44 131.43 207.13 107.34 192.22 98.78 181.53 122.86"/>
          <polygon class="cls-4" points="187.98 64.46 202.62 72.87 213.52 48.31 198.88 39.89 187.98 64.46"/>
          <polygon class="cls-4" points="177.11 88.94 191.75 97.35 202.21 73.79 187.57 65.38 177.11 88.94"/>
          <polygon class="cls-4" points="166.01 113.95 180.65 122.36 191.34 98.27 176.7 89.87 166.01 113.95"/>
        </g>
      </g>
      <g>
        <path class="cls-2" d="M174.67,35.76c-27.92,4.94-54.36,14.78-76.43,29.52l48.94,33.65-.12-1.9,27.6-61.27Z"/>
        <path class="cls-2" d="M179.99,176.99l-81.74,56.21c32.95,22,75.66,33.09,118.46,33.26v-70.04l-1.66.52-35.06-19.95Z"/>
        <path class="cls-2" d="M218.71,195.79v70.67c42.8-.17,85.52-11.26,118.46-33.26l-83.3-57.28-33.44,19.33-1.72.54Z"/>
        <path class="cls-2" d="M276.84,162.64l-20.09,11.62,83.09,57.13c31.21-21.76,48.58-50.38,49.08-80.82h-107.55v1.52l-4.52,10.56Z"/>
        <path class="cls-2" d="M339.83,67.08l-51.1,35.14.98,1.06-8.35,40.84v4.45h107.56c-.25-30.69-17.65-59.57-49.09-81.48Z"/>
        <path class="cls-2" d="M198.8,32.73l13.27,7.62,4.64,2.67v-11c-5.98.02-11.96.26-17.91.71Z"/>
        <path class="cls-2" d="M364.44,249.4c-2.52,1.73-2.75,3.96-.03,5.83,2.72,1.87,5.96,1.72,8.48-.02l2.52-1.73-8.45-5.81-2.52,1.73Z"/>
        <path class="cls-2" d="M230.36,289.7c0,2.39,2.42,3.96,6.17,3.96h4.08v-7.92h-4.08c-3.74,0-6.17,1.57-6.17,3.96Z"/>
        <path class="cls-2" d="M416.84,143.4c0,2.57,2.28,4.24,5.76,4.24s5.76-1.67,5.76-4.24v-2.8h-11.52v2.8Z"/>
        <path class="cls-2" d="M153.18,150.57H46.51c.49,30.44,17.86,59.06,49.08,80.82l81.51-56.04-1.26-.72-22.65-24.06Z"/>
        <path class="cls-2" d="M147.42,102.73l-51.83-35.64c-31.44,21.91-48.84,50.79-49.09,81.48h104.8l-1.13-1.2-2.75-44.64Z"/>
        <path class="cls-2" d="M218.71,32.01v12.15l2.29,1.32,63.72,52.41,1.95,2.11,50.5-34.72c-32.95-22-75.66-33.09-118.46-33.26Z"/>
        <path class="cls-1" d="M359.5,246.35c-5.96,4.1-6.67,9.24-1.15,13.04,5.53,3.8,13.01,3.31,18.97-.79l8.79-6.04-17.82-12.25-8.79,6.04ZM372.9,255.21c-2.52,1.73-5.76,1.89-8.48.02-2.72-1.87-2.5-4.1.03-5.83l2.52-1.73,8.45,5.81-2.52,1.73Z"/>
        <polygon class="cls-1" points="59 41.02 59.94 34.77 54.47 38.53 55.18 43.65 59 41.02"/>
        <polygon class="cls-1" points="84.69 49.86 80.16 46.74 71.25 52.87 68.91 51.26 76.44 46.08 72.11 43.1 64.58 48.28 62.49 46.85 71.07 40.95 66.54 37.83 52.05 47.79 69.87 60.05 84.69 49.86"/>
        <polygon class="cls-1" points="214.19 0 210.66 0 207.42 2.26 210.01 2.26 214.19 0"/>
        <polygon class="cls-1" points="215.87 12.95 206.39 12.95 206.39 9.76 214.5 9.76 214.5 8 206.39 8 206.39 5 215.53 5 215.53 3.2 203.27 3.2 203.27 14.75 215.87 14.75 215.87 12.95"/>
        <polygon class="cls-1" points="222.47 11.79 225.13 9.91 231.06 14.75 234.71 14.75 227.22 8.36 234.28 3.2 230.77 3.2 222.47 9.12 222.47 3.2 219.35 3.2 219.35 14.75 222.47 14.75 222.47 11.79"/>
        <polygon class="cls-1" points="18.84 163.72 14.21 163.72 14.21 158.15 11.64 158.15 11.64 163.72 7.27 163.72 7.27 157.44 4.66 157.44 4.66 165.87 21.46 165.87 21.46 157.21 18.84 157.21 18.84 163.72"/>
        <polygon class="cls-1" points="0 160.79 3.29 163.01 3.29 161.23 0 158.36 0 160.79"/>
        <polygon class="cls-1" points="4.66 146.68 16.03 146.68 4.66 153.04 4.66 154.81 21.46 154.81 21.46 152.68 10.08 152.68 21.46 146.31 21.46 144.55 4.66 144.55 4.66 146.68"/>
        <polygon class="cls-1" points="4.66 131.94 4.66 134.05 12.84 137.47 4.66 140.85 4.66 143.14 15.58 138.61 21.46 138.61 21.46 136.46 15.53 136.46 4.66 131.94"/>
        <path class="cls-1" d="M227.22,289.7c0,3.46,3.72,5.77,9.17,5.77h7.34v-11.55h-7.34c-5.45,0-9.17,2.31-9.17,5.77ZM240.61,285.74v7.92h-4.08c-3.74,0-6.17-1.57-6.17-3.96s2.42-3.96,6.17-3.96h4.08Z"/>
        <polygon class="cls-1" points="220.81 291.75 211.55 283.93 208.98 283.93 208.98 295.48 212.08 295.48 212.08 287.66 221.34 295.48 223.91 295.48 223.91 283.93 220.81 283.93 220.81 291.75"/>
        <polygon class="cls-1" points="200.34 283.93 197.22 283.93 197.22 288 190.64 295.48 193.72 295.48 198.68 289.85 203.6 295.48 206.94 295.48 200.34 287.97 200.34 283.93"/>
        <path class="cls-1" d="M414.2,138.45v5.05c0,3.74,3.36,6.3,8.4,6.3s8.4-2.56,8.4-6.3v-5.05h-16.8ZM428.37,143.4c0,2.57-2.28,4.24-5.76,4.24s-5.76-1.67-5.76-4.24v-2.8h11.52v2.8Z"/>
        <polygon class="cls-1" points="414.2 154.23 418.5 154.23 421.24 156.06 414.2 160.13 414.2 162.64 423.49 157.49 431 162.34 431 159.93 422.39 154.23 431 154.23 431 152.08 414.2 152.08 414.2 154.23"/>
        <polygon class="cls-5" points="71.96 266.38 73.28 256.15 68.34 252.75 50.52 265.01 56.38 269.04 64.47 263.47 63.15 273.69 68.09 277.09 85.91 264.83 80.06 260.81 71.96 266.38"/>
        <polygon class="cls-5" points="60.86 247.61 54.85 243.48 48.39 247.93 30.31 251.11 36.11 255.1 45.94 253.39 43.42 260.13 49.76 264.49 54.32 252.11 60.86 247.61"/>
        <polygon class="cls-1" points="360.86 47.1 363.71 46.99 362.26 54.12 369.21 58.9 371.71 46.89 386.68 46.4 380.13 41.9 367.81 42.32 374.28 37.87 368.37 33.81 350.55 46.06 356.46 50.12 360.86 47.1"/>
        <path class="cls-1" d="M46.51,150.57h-3c.49,31.15,17.98,60.37,49.44,82.63l2.64-1.81c-31.21-21.76-48.58-50.38-49.08-80.82Z"/>
        <path class="cls-1" d="M174.67,35.76l1.47-3.27c-29.49,4.96-57.45,15.28-80.56,30.95l2.66,1.83c22.06-14.73,48.51-24.57,76.43-29.52Z"/>
        <path class="cls-1" d="M388.92,148.57h3c-.25-31.4-17.77-60.88-49.45-83.29l-2.64,1.81c31.44,21.91,48.84,50.79,49.09,81.48Z"/>
        <path class="cls-1" d="M218.71,266.46v2.96c43.83-.17,87.58-11.63,121.12-34.39l-2.66-1.83c-32.95,22-75.66,33.09-118.46,33.26Z"/>
        <path class="cls-1" d="M216.71,32.01v-2.95c-7.49.03-14.98.39-22.42,1.08l4.51,2.59c5.95-.45,11.93-.69,17.91-.71Z"/>
        <path class="cls-1" d="M95.58,67.09l-2.64-1.81c-31.69,22.41-49.21,51.9-49.45,83.29h3c.25-30.69,17.65-59.57,49.09-81.48Z"/>
        <path class="cls-1" d="M337.17,65.27l2.66-1.83c-33.54-22.75-77.29-34.21-121.12-34.38v2.95c42.8.17,85.52,11.26,118.46,33.26Z"/>
        <path class="cls-1" d="M339.83,231.39l2.64,1.81c31.46-22.26,48.95-51.48,49.44-82.63h-3c-.49,30.44-17.86,59.06-49.08,80.82Z"/>
        <path class="cls-1" d="M98.24,233.2l-2.66,1.83c33.54,22.75,77.29,34.21,121.12,34.39v-2.96c-42.8-.17-85.52-11.26-118.46-33.26Z"/>
        <path class="cls-1" d="M256.74,174.26l-2.88,1.66,83.3,57.28,2.66,1.83,7.53,5.17c.26.18.56.26.85.26.48,0,.95-.23,1.24-.65.47-.68.3-1.62-.39-2.09l-6.59-4.53-2.64-1.81-83.09-57.13Z"/>
        <path class="cls-1" d="M146.09,101.81l1.09-2.89-48.94-33.65-2.66-1.83-7.53-5.18c-.68-.47-1.62-.3-2.09.39-.47.68-.3,1.62.39,2.09l6.59,4.53,2.64,1.81,50.51,34.73Z"/>
        <path class="cls-5" d="M179.99,176.99l-2.9-1.65-81.51,56.04-2.64,1.81-6.59,4.53c-.68.47-.86,1.4-.39,2.09.29.42.76.65,1.24.65.29,0,.59-.09.85-.26l7.53-5.17,2.66-1.83,81.74-56.21Z"/>
        <path class="cls-1" d="M286.67,100l2.06,2.22,51.1-35.14,2.64-1.81,6.59-4.53c.68-.47.86-1.4.39-2.09-.47-.68-1.4-.85-2.09-.39l-7.53,5.17-2.66,1.83-50.5,34.72Z"/>
        <path class="cls-1" d="M216.71,43.01l2,1.15v-21.82c0-.55-.45-1-1-1s-1,.45-1,1v20.68Z"/>
        <path class="cls-1" d="M218.71,195.79l-2,.63v79.71c0,.55.45,1,1,1s1-.45,1-1v-80.34Z"/>
        <path class="cls-1" d="M151.29,150.57v-2H33.64c-.55,0-1,.45-1,1s.45,1,1,1h117.66Z"/>
        <path class="cls-1" d="M402.74,148.57h-121.38v2h121.38c.55,0,1-.45,1-1s-.45-1-1-1Z"/>
      </g>
    </g>
  </g>
</svg>