<?xml version="1.0" encoding="UTF-8"?>
<svg id="Réteg_2" xmlns="http://www.w3.org/2000/svg" xmlns:xlink="http://www.w3.org/1999/xlink" viewBox="0 0 203 203">
  <defs>
    <style>
      .cls-1 {
        fill: none;
        stroke: #000;
        stroke-linecap: round;
        stroke-linejoin: round;
        stroke-width: 5px;
      }

      .cls-2 {
        fill: url(#Névtelen_színátmenet_17-2);
      }

      .cls-3 {
        fill: url(#linear-gradient);
        opacity: 0;
      }

      .cls-4 {
        fill: url(#Névtelen_színátmenet_17);
      }
    </style>
    <linearGradient id="linear-gradient" x1="0" y1="101.5" x2="203" y2="101.5" gradientUnits="userSpaceOnUse">
      <stop offset="0" stop-color="#e57253"/>
      <stop offset="1" stop-color="#e94e1b"/>
    </linearGradient>
    <linearGradient id="Névtelen_színátmenet_17" data-name="Névtelen színátmenet 17" x1="22.18" y1="63.16" x2="153.89" y2="63.16" gradientUnits="userSpaceOnUse">
      <stop offset="0" stop-color="#f7c82a"/>
      <stop offset="1" stop-color="#be9a1e"/>
    </linearGradient>
    <linearGradient id="Névtelen_színátmenet_17-2" data-name="Névtelen színátmenet 17" x1="50.22" y1="79.36" x2="182" y2="79.36" xlink:href="#Névtelen_színátmenet_17"/>
  </defs>
  <g id="types_of_roofs">
    <g>
      <rect class="cls-3" width="203" height="203" rx="12" ry="12"/>
      <polyline class="cls-1" points="82.75 124.19 82.75 171.13 36.92 144.67 36.92 93.09"/>
      <line class="cls-1" x1="166.5" y1="75.84" x2="166.5" y2="122.78"/>
      <line class="cls-1" x1="82.75" y1="171.13" x2="166.5" y2="122.78"/>
      <line class="cls-1" x1="78.15" y1="126.85" x2="181.82" y2="67"/>
      <polyline class="cls-1" points="50.04 91.72 78.15 126.85 181.82 67 153.7 31.87"/>
      <polygon class="cls-1" points="125.66 34.61 153.7 31.87 50.04 91.72 22 94.46 125.66 34.61"/>
      <polygon class="cls-4" points="153.89 31.87 50.22 91.72 22.18 94.46 125.85 34.61 153.89 31.87"/>
      <polygon class="cls-2" points="153.89 31.87 50.22 91.72 78.34 126.85 182 67 153.89 31.87"/>
    </g>
  </g>
</svg>
