<?xml version="1.0" encoding="UTF-8"?>
<svg id="Réteg_2" xmlns="http://www.w3.org/2000/svg" xmlns:xlink="http://www.w3.org/1999/xlink" viewBox="0 0 203 203">
  <defs>
    <style>
      .cls-1 {
        fill: url(#linear-gradient-4);
      }

      .cls-1, .cls-2, .cls-3, .cls-4, .cls-5 {
        stroke-linecap: round;
        stroke-linejoin: round;
      }

      .cls-1, .cls-2, .cls-4, .cls-5 {
        stroke: #f7931e;
      }

      .cls-2 {
        fill: url(#linear-gradient-3);
      }

      .cls-3 {
        fill: none;
        stroke: #b3b3b3;
        stroke-width: 5px;
      }

      .cls-6 {
        fill: url(#linear-gradient);
      }

      .cls-4 {
        fill: url(#linear-gradient-2);
      }

      .cls-5 {
        fill: url(#linear-gradient-5);
      }
    </style>
    <linearGradient id="linear-gradient" x1="0" y1="101.5" x2="203" y2="101.5" gradientUnits="userSpaceOnUse">
      <stop offset="0" stop-color="#b3b3b3" stop-opacity=".1"/>
      <stop offset="1" stop-color="#4d4d4d" stop-opacity=".1"/>
    </linearGradient>
    <linearGradient id="linear-gradient-2" x1="21" y1="106.66" x2="77.57" y2="106.66" gradientUnits="userSpaceOnUse">
      <stop offset="0" stop-color="#e57253"/>
      <stop offset="1" stop-color="#e94e1b"/>
    </linearGradient>
    <linearGradient id="linear-gradient-3" x1="49.09" y1="84.62" x2="70.19" y2="84.62" xlink:href="#linear-gradient-2"/>
    <linearGradient id="linear-gradient-4" x1="59.87" y1="60.44" x2="153.71" y2="60.44" xlink:href="#linear-gradient-2"/>
    <linearGradient id="linear-gradient-5" x1="70.19" y1="88.62" x2="182" y2="88.62" xlink:href="#linear-gradient-2"/>
  </defs>
  <g id="types_of_roofs">
    <g>
      <rect class="cls-6" width="203" height="203" rx="12" ry="12"/>
      <g>
        <polyline class="cls-3" points="82.2 128.8 82.2 176.09 36.03 149.43 36.03 107.52"/>
        <line class="cls-3" x1="166.57" y1="80.09" x2="166.57" y2="127.37"/>
        <line class="cls-3" x1="82.2" y1="176.09" x2="166.57" y2="127.37"/>
        <line class="cls-3" x1="77.57" y1="131.48" x2="182" y2="71.18"/>
        <polyline class="cls-3" points="70.19 93.97 77.57 131.48 21 98.85 49.1 81.81"/>
        <line class="cls-3" x1="153.71" y1="45.76" x2="182" y2="71.18"/>
        <line class="cls-3" x1="59.87" y1="75.26" x2="143.32" y2="26.91"/>
        <g>
          <polyline class="cls-3" points="49.1 81.81 59.87 75.26 70.19 93.97"/>
          <line class="cls-3" x1="49.09" y1="81.84" x2="70.19" y2="93.97"/>
        </g>
        <line class="cls-3" x1="143.32" y1="26.91" x2="153.71" y2="45.76"/>
      </g>
      <polygon class="cls-4" points="21 98.85 49.09 81.84 70.19 93.97 77.57 131.48 21 98.85"/>
      <polygon class="cls-2" points="49.09 81.84 59.87 75.26 70.19 93.97 49.09 81.84"/>
      <polygon class="cls-1" points="143.32 26.91 59.87 75.26 70.19 93.97 153.71 45.76 143.32 26.91"/>
      <polygon class="cls-5" points="70.19 93.97 77.57 131.48 182 71.18 153.71 45.76 70.19 93.97"/>
    </g>
  </g>
</svg>