<?xml version="1.0" encoding="UTF-8"?>
<svg id="Réteg_2" xmlns="http://www.w3.org/2000/svg" xmlns:xlink="http://www.w3.org/1999/xlink" viewBox="0 0 203 203">
  <defs>
    <style>
      .cls-1 {
        fill: none;
        stroke: #b3b3b3;
        stroke-linecap: round;
        stroke-linejoin: round;
        stroke-width: 5px;
      }

      .cls-2 {
        fill: url(#linear-gradient);
        opacity: 0;
      }
    </style>
    <linearGradient id="linear-gradient" x1="0" y1="101.5" x2="203" y2="101.5" gradientUnits="userSpaceOnUse">
      <stop offset="0" stop-color="#e57253"/>
      <stop offset="1" stop-color="#e94e1b"/>
    </linearGradient>
  </defs>
  <g id="types_of_roofs">
    <g>
      <rect class="cls-2" width="203" height="203" rx="12" ry="12"/>
      <g>
        <line class="cls-1" x1="84.96" y1="128.1" x2="84.96" y2="165.74"/>
        <line class="cls-1" x1="173.14" y1="90" x2="173.14" y2="114.83"/>
        <line class="cls-1" x1="27.58" y1="93.13" x2="27.58" y2="132.62"/>
        <line class="cls-1" x1="84.96" y1="165.74" x2="173.14" y2="114.83"/>
        <line class="cls-1" x1="93.48" y1="135.99" x2="181.67" y2="85.07"/>
        <line class="cls-1" x1="67.94" y1="110.53" x2="156.12" y2="59.61"/>
        <line class="cls-1" x1="20.71" y1="93.97" x2="108.9" y2="43.06"/>
        <line class="cls-1" x1="67.94" y1="88.17" x2="156.12" y2="37.26"/>
        <line class="cls-1" x1="56.05" y1="149.05" x2="84.96" y2="165.74"/>
        <line class="cls-1" x1="27.58" y1="132.62" x2="56.49" y2="149.31"/>
        <line class="cls-1" x1="67.94" y1="110.53" x2="93.48" y2="135.99"/>
        <line class="cls-1" x1="20.71" y1="93.97" x2="67.94" y2="88.17"/>
        <line class="cls-1" x1="108.9" y1="43.06" x2="156.12" y2="37.26"/>
        <line class="cls-1" x1="156.12" y1="59.61" x2="181.67" y2="85.07"/>
        <line class="cls-1" x1="67.94" y1="110.53" x2="67.94" y2="88.17"/>
        <line class="cls-1" x1="156.12" y1="59.61" x2="156.12" y2="37.26"/>
      </g>
    </g>
  </g>
</svg>
