<?xml version="1.0" encoding="UTF-8"?>
<svg id="Réteg_2" xmlns="http://www.w3.org/2000/svg" xmlns:xlink="http://www.w3.org/1999/xlink" viewBox="0 0 203 203">
  <defs>
    <style>
      .cls-1 {
        fill: none;
        stroke: #000;
        stroke-linecap: round;
        stroke-linejoin: round;
        stroke-width: 5px;
      }

      .cls-2 {
        fill: url(#Névtelen_színátmenet_17-2);
      }

      .cls-3 {
        fill: url(#linear-gradient);
        opacity: 0;
      }

      .cls-4 {
        fill: url(#Névtelen_színátmenet_17-3);
      }

      .cls-5 {
        fill: url(#Névtelen_színátmenet_17);
      }

      .cls-6 {
        fill: url(#Névtelen_színátmenet_17-4);
      }
    </style>
    <linearGradient id="linear-gradient" x1="0" y1="101.5" x2="203" y2="101.5" gradientUnits="userSpaceOnUse">
      <stop offset="0" stop-color="#e57253"/>
      <stop offset="1" stop-color="#e94e1b"/>
    </linearGradient>
    <linearGradient id="Névtelen_színátmenet_17" data-name="Névtelen színátmenet 17" x1="21" y1="64.55" x2="115.8" y2="64.55" gradientUnits="userSpaceOnUse">
      <stop offset="0" stop-color="#f7c82a"/>
      <stop offset="1" stop-color="#be9a1e"/>
    </linearGradient>
    <linearGradient id="Névtelen_színátmenet_17-2" data-name="Névtelen színátmenet 17" x1="101.4" y1="56.39" x2="182" y2="56.39" xlink:href="#Névtelen_színátmenet_17"/>
    <linearGradient id="Névtelen_színátmenet_17-3" data-name="Névtelen színátmenet 17" y1="94.96" x2="101.4" y2="94.96" xlink:href="#Névtelen_színátmenet_17"/>
    <linearGradient id="Névtelen_színátmenet_17-4" data-name="Névtelen színátmenet 17" x1="87.37" y1="94.96" x2="182" y2="94.96" xlink:href="#Névtelen_színátmenet_17"/>
  </defs>
  <g id="types_of_roofs">
    <g>
      <rect class="cls-3" width="203" height="203" rx="12" ry="12"/>
      <g>
        <g>
          <line class="cls-1" x1="87.37" y1="130.23" x2="87.37" y2="165.78"/>
          <line class="cls-1" x1="168.75" y1="83.21" x2="168.75" y2="118.8"/>
          <line class="cls-1" x1="34.43" y1="99.65" x2="34.43" y2="135.22"/>
          <line class="cls-1" x1="87.37" y1="165.78" x2="168.75" y2="118.8"/>
          <line class="cls-1" x1="60.7" y1="150.38" x2="87.37" y2="165.78"/>
          <line class="cls-1" x1="34.43" y1="135.22" x2="60.7" y2="150.38"/>
          <polyline class="cls-1" points="101.4 59.69 115.8 37.22 182 75.56 101.4 59.69 182 75.56 87.34 130.23"/>
          <polygon class="cls-1" points="101.4 59.69 87.34 130.23 21 91.89 101.4 59.69"/>
        </g>
        <line class="cls-1" x1="21" y1="91.89" x2="115.8" y2="37.22"/>
      </g>
      <polygon class="cls-5" points="115.8 37.22 21 91.89 101.4 59.69 115.8 37.22"/>
      <polygon class="cls-2" points="101.4 59.69 115.8 37.22 182 75.56 101.4 59.69"/>
      <polygon class="cls-4" points="21 91.89 87.37 130.23 101.4 59.69 21 91.89"/>
      <polygon class="cls-6" points="101.4 59.69 182 75.56 87.37 130.23 101.4 59.69"/>
    </g>
  </g>
</svg>