<?xml version="1.0" encoding="UTF-8"?>
<svg id="Réteg_2" xmlns="http://www.w3.org/2000/svg" xmlns:xlink="http://www.w3.org/1999/xlink" viewBox="0 0 203 203">
  <defs>
    <style>
      .cls-1 {
        fill: #fff;
      }

      .cls-2 {
        fill: url(#linear-gradient);
        opacity: 0;
      }
    </style>
    <linearGradient id="linear-gradient" x1="0" y1="101.5" x2="203" y2="101.5" gradientUnits="userSpaceOnUse">
      <stop offset="0" stop-color="#e57253"/>
      <stop offset="1" stop-color="#e94e1b"/>
    </linearGradient>
  </defs>
  <g id="types_of_roofs">
    <g>
      <rect class="cls-2" width="203" height="203" rx="12" ry="12"/>
      <g id="Réteg_2-2" data-name="Réteg_2">
        <g id="Réteg_1">
          <path class="cls-1" d="M177.04,77.35l-38.41-28.08h-.09s-.08-.06-.13-.08l-38.85-15.28c-.28-.11-.6-.08-.86.07L25.96,75.76l-.11.08s-.06.04-.08.07c-.08.07-.15.16-.2.26h0c-.04.08-.07.18-.08.27v.11s0,.07,0,.1c-.02.06-.03.13-.03.19,0,.03,0,.07,0,.1.03.1.08.2.14.29h0c.06.08.14.15.23.21h0l5.54,3.4h0l.1.06,4.89,2.75v46.93c0,.36.19.68.5.86l18,10.43-2.4,1.27h0l-.09.07-.1.08-.09.11-.07.09s-.04.08-.06.13c0,.04,0,.07,0,.11,0,.05,0,.1,0,.15,0,.03,0,.07,0,.1h0v5.58c0,.36.19.68.5.86l13.3,7.67s.1.04.15.06h.1c.08,0,.17,0,.25,0,.09,0,.17,0,.26,0h.1l.13-.05h0l8.37-4.64,26.89,15.56c.15.09.32.14.5.14.18,0,.35-.05.5-.14h.08l66-37.59c.31-.18.5-.51.5-.87v-47.31l7.36-4.23c.48-.28.64-.89.36-1.37-.07-.12-.16-.22-.27-.3h-.09ZM100.66,90.97c-3.22.07-6.12,1.96-7.49,4.87l-12.81-6.38c3.67-6.92,10.94-11.62,22.46-11.62s19.73,4.7,19.73,13.7c0,11-11.52,13-11.52,18.51h-14.83c0-8.71,9.29-11.3,9.29-15.7-.03-2.23-2.16-3.38-4.83-3.38ZM101.46,129.84c-4.2-.62-7.32-4.2-7.37-8.44-.04-2.84,1.41-5.5,3.83-7,1.71-1.04,3.67-1.57,5.67-1.54,2.36-.06,4.67.7,6.53,2.15.53.44,1.01.94,1.42,1.5.73.99,1.22,2.14,1.43,3.36.09.49.13.99.13,1.49,0,.49-.04.99-.13,1.47-.71,4.06-4.35,7.17-9.38,7.17h-.13c-.67,0-1.34-.05-2-.16Z"/>
        </g>
      </g>
    </g>
  </g>
</svg>