<?xml version="1.0" encoding="UTF-8"?>
<svg id="Réteg_2" xmlns="http://www.w3.org/2000/svg" viewBox="0 0 203 203">
  <defs>
    <style>
      .cls-1, .cls-2 {
        fill: none;
      }

      .cls-2 {
        stroke: #000;
        stroke-linecap: round;
        stroke-linejoin: round;
        stroke-width: 2px;
      }
    </style>
  </defs>
  <g id="types_of_roofs">
    <g>
      <g id="Réteg_2-2" data-name="Réteg_2">
        <g id="Réteg_1">
          <line class="cls-2" x1="28.67" y1="99.83" x2="35.23" y2="87.72"/>
          <line class="cls-2" x1="87.23" y1="161.98" x2="87.21" y2="161.99"/>
          <polygon class="cls-2" points="143.24 48.54 135.31 53.15 126.59 58.23 117.81 63.34 109.08 68.42 100.25 73.56 91.58 78.61 82.91 83.66 74.24 88.7 65.56 93.75 56.09 99.27 28.67 91.27 63.96 70.91 72.72 65.86 81.49 60.79 115.79 41.01 143.24 48.54"/>
          <line class="cls-2" x1="131.25" y1="99.67" x2="131.25" y2="136.57"/>
          <polyline class="cls-2" points="174.3 74.78 143.24 48.54 135.31 53.15 126.59 58.23 117.81 63.34 109.08 68.42 100.25 73.56 91.58 78.61 82.91 83.66 74.24 88.7 65.56 93.75 56.09 99.27 87.23 125.21 87.23 149.59 87.23 161.98 87.23 161.99"/>
          <polyline class="cls-2" points="174.33 111.69 174.3 74.78 166.41 79.35 157.35 84.57 148.91 89.46 140.07 94.56 131.25 99.67 122.35 104.8 113.69 109.82 104.85 114.92 96.04 120.01 87.23 125.11 56.09 99.27 28.67 91.27 28.67 128.09"/>
          <polyline class="cls-2" points="93.77 121.32 87.21 133.44 80.92 119.98"/>
          <polyline class="cls-2" points="137.42 96.1 131.25 107.49 125.51 102.98"/>
          <line class="cls-2" x1="174.33" y1="82.71" x2="168.59" y2="78.2"/>
          <line class="cls-2" x1="28.67" y1="99.83" x2="33.43" y2="92.66"/>
        </g>
      </g>
      <rect class="cls-1" width="203" height="203" rx="12" ry="12"/>
    </g>
  </g>
</svg>