<?xml version="1.0" encoding="UTF-8"?>
<svg id="Réteg_2" xmlns="http://www.w3.org/2000/svg" xmlns:xlink="http://www.w3.org/1999/xlink" viewBox="0 0 203 203">
  <defs>
    <style>
      .cls-1 {
        fill: #fff;
      }

      .cls-2, .cls-3, .cls-4 {
        fill: none;
      }

      .cls-5 {
        clip-path: url(#clippath-1);
      }

      .cls-3 {
        stroke: #fff;
        stroke-linecap: round;
        stroke-linejoin: round;
        stroke-width: 2px;
      }

      .cls-4 {
        opacity: 0;
      }
    </style>
    <clipPath id="clippath-1">
      <polygon class="cls-2" points="91.86 93.88 115.14 80.35 131.84 90 108.56 103.53 91.86 93.88"/>
    </clipPath>
  </defs>
  <g id="types_of_roofs">
    <g>
      <g id="Réteg_2-2" data-name="Réteg_2">
        <g id="Réteg_1">
          <polygon class="cls-3" points="28.67 101.5 101.27 59.31 174.33 101.5 101.74 143.69 28.67 101.5"/>
          <line class="cls-3" x1="44.67" y1="109.22" x2="68.48" y2="95.42"/>
          <line class="cls-3" x1="59.13" y1="117.39" x2="82.93" y2="103.59"/>
          <line class="cls-3" x1="73.59" y1="125.57" x2="97.39" y2="111.76"/>
          <line class="cls-3" x1="88.04" y1="133.73" x2="111.85" y2="119.93"/>
          <g class="cls-5">
            <path class="cls-1" d="M111,90.83c-.58-.31-1.12-.67-1.63-1.09l6.83-4c.83.3,1.62.69,2.38,1.14,2.62,1.52,2.84,3.11.71,4.34-2.64,1.36-5.8,1.2-8.29-.42M122.25,84.43c-2.44-1.43-4.97-2.7-7.58-3.8l-22.81,13.25,5.21,3,8.26-4.8c.54.4,1.1.77,1.69,1.1,3.03,1.81,6.47,2.82,10,2.94,2.68.04,5.31-.66,7.63-2,2.26-1.32,3.18-3,2.86-4.54-.32-1.54-2-3.31-5.25-5.18"/>
          </g>
        </g>
      </g>
      <rect class="cls-4" width="203" height="203" rx="12" ry="12"/>
    </g>
  </g>
</svg>