<?xml version="1.0" encoding="UTF-8"?>
<svg id="Réteg_2" xmlns="http://www.w3.org/2000/svg" xmlns:xlink="http://www.w3.org/1999/xlink" viewBox="0 0 203 203">
  <defs>
    <style>
      .cls-1 {
        stroke: #000;
        stroke-linecap: round;
        stroke-linejoin: round;
        stroke-width: 2px;
      }

      .cls-1, .cls-2 {
        fill: none;
      }

      .cls-2 {
        opacity: 0;
      }

      .cls-3 {
        fill: url(#Névtelen_színátmenet_17-2);
      }

      .cls-4 {
        fill: url(#Névtelen_színátmenet_17-3);
      }

      .cls-5 {
        fill: url(#Névtelen_színátmenet_17);
      }

      .cls-6 {
        fill: url(#Névtelen_színátmenet_17-4);
      }
    </style>
    <linearGradient id="Névtelen_színátmenet_17" data-name="Névtelen színátmenet 17" x1="33.43" y1="107.79" x2="51.51" y2="107.79" gradientUnits="userSpaceOnUse">
      <stop offset="0" stop-color="#f7c82a"/>
      <stop offset="1" stop-color="#be9a1e"/>
    </linearGradient>
    <linearGradient id="Névtelen_színátmenet_17-2" data-name="Névtelen színátmenet 17" x1="66.71" y1="124.8" x2="80.6" y2="124.8" xlink:href="#Névtelen_színátmenet_17"/>
    <linearGradient id="Névtelen_színátmenet_17-3" data-name="Névtelen színátmenet 17" x1="106.14" y1="135.57" x2="124.22" y2="135.57" xlink:href="#Névtelen_színátmenet_17"/>
    <linearGradient id="Névtelen_színátmenet_17-4" data-name="Névtelen színátmenet 17" x1="156.67" y1="91.78" x2="170.59" y2="91.78" xlink:href="#Névtelen_színátmenet_17"/>
  </defs>
  <g id="types_of_roofs">
    <g>
      <g id="Réteg_2-2" data-name="Réteg_2">
        <g id="Réteg_1">
          <polyline class="cls-1" points="80.64 158.16 87.21 161.97 87.23 161.96 174.33 111.68 174.31 74.77 166.41 79.33 157.36 84.56 148.9 89.44 140.08 94.55 131.25 99.65 122.36 104.78 113.68 109.8 104.85 114.9 96.04 120 87.23 125.09 56.09 99.25 28.67 91.25 28.67 128.07 34.19 131.27"/>
          <polygon class="cls-1" points="143.24 48.52 135.31 53.14 126.6 58.21 117.81 63.32 109.08 68.41 100.25 73.54 91.58 78.6 82.91 83.64 74.24 88.69 65.56 93.74 56.09 99.25 28.67 91.25 63.96 70.9 72.72 65.84 81.5 60.78 115.79 41 143.24 48.52"/>
          <polyline class="cls-1" points="174.31 74.77 143.24 48.52 135.31 53.14 126.6 58.21 117.81 63.32 109.08 68.41 100.25 73.54 91.58 78.6 82.91 83.64 74.24 88.69 65.56 93.74 56.09 99.25 87.23 125.19 87.23 161.96 87.23 161.97"/>
          <polyline class="cls-1" points="80.64 158.16 80.64 137.66 59.09 125.37 52.12 121.4"/>
          <polyline class="cls-1" points="38.83 113.72 46 117.87 52.12 121.4 38.78 128.74 34.19 131.27 34.19 124.82 34.19 111.04 38.83 113.72"/>
          <path class="cls-5" d="M50.78,110.79l-3.46-2v-4.58c-.02-.48-.26-.93-.65-1.21l-7.8-4.49-.57-.33c-.39-.23-.71,0-.71.4v4.58l-3.45-2c-.4-.23-.71-.05-.71.4v5c.02.5.28.95.7,1.22l4.73,2.73,3.6,2.08,8.34,4.81c.39.23.71,0,.71-.4v-5c-.03-.5-.31-.95-.73-1.21ZM41.78,110.56l-2.89-1.67-4-2.32v-3.36l4,2.32,2.89,1.67v3.36ZM39.04,103.56v-3.35l6.92,4v3.36l-6.92-4.01ZM50.06,115.37l-6.91-4v-3.37l6.9,4v3.37Z"/>
          <path class="cls-3" d="M79.92,122.42l-8.33-4.81c-.4-.23-.71,0-.71.4v4.58l-3.46-2c-.39-.22-.71,0-.72.41v5c.03.5.29.95.71,1.23l8.31,4.77c.39.23.71,0,.71-.41v-4.54l3.46,2c.39.23.71,0,.71-.4v-5c-.02-.5-.27-.95-.68-1.23ZM75.01,130l-6.91-4v-3.37l6.91,4v3.37ZM79.2,127l-6.92-4v-3.35l6.92,4v3.35Z"/>
          <path class="cls-4" d="M124.22,129.32c0-.45-.32-.63-.71-.4l-3.46,2v-4.58c0-.45-.32-.64-.71-.41l-8.33,4.81c-.43.28-.7.75-.72,1.26v4.58l-3.45,2c-.42.27-.68.72-.71,1.22v5c0,.45.31.63.71.4l8.33-4.81,8.33-4.81c.42-.27.68-.72.71-1.22v-5.04ZM107.57,143.12v-3.36l6.92-4v3.36l-6.92,4ZM111.72,135.33v-3.33l6.94-4v3.37l-6.94,3.96ZM115.9,138.33v-3.33l6.92-4v3.36l-6.92,3.97Z"/>
          <path class="cls-6" d="M170.56,82.56c0-.46-.33-.63-.72-.41l-8.33,4.85c-.42.27-.68.73-.7,1.23v4.58l-3.46,2c-.4.27-.65.71-.69,1.19v5c0,.45.32.63.71.41l8.33-4.81c.42-.28.68-.73.71-1.23v-4.57l3.46-2c.42-.27.68-.72.71-1.22l-.02-5.02ZM158.08,99.35v-3.35l6.92-4v3.37l-6.92,3.98ZM162.25,91.54v-3.36l6.91-4v3.36l-6.91,4Z"/>
        </g>
      </g>
      <rect class="cls-2" width="203" height="203" rx="12" ry="12"/>
    </g>
  </g>
</svg>