<?xml version="1.0" encoding="UTF-8"?>
<svg id="Réteg_2" xmlns="http://www.w3.org/2000/svg" xmlns:xlink="http://www.w3.org/1999/xlink" viewBox="0 0 203 203">
  <defs>
    <style>
      .cls-1 {
        fill: #fff;
      }

      .cls-2, .cls-3 {
        fill: none;
      }

      .cls-4 {
        clip-path: url(#clippath-1);
      }

      .cls-3 {
        stroke: #fff;
        stroke-linecap: round;
        stroke-linejoin: round;
        stroke-width: 2px;
      }

      .cls-5 {
        clip-path: url(#clippath-2);
      }

      .cls-6 {
        clip-path: url(#clippath);
      }
    </style>
    <clipPath id="clippath">
      <polygon class="cls-2" points="27.93 113.35 104.28 68.99 181.14 113.35 104.79 157.73 27.93 113.35"/>
    </clipPath>
    <clipPath id="clippath-1">
      <polygon class="cls-2" points="28.45 117.43 104.81 73.05 181.67 117.43 105.31 161.79 28.45 117.43"/>
    </clipPath>
    <clipPath id="clippath-2">
      <polygon class="cls-2" points="28.03 121.58 104.39 77.21 181.25 121.58 104.89 165.96 28.03 121.58"/>
    </clipPath>
  </defs>
  <g id="types_of_roofs">
    <g>
      <rect class="cls-2" width="203" height="203" rx="12" ry="12"/>
      <g id="Réteg_2-2" data-name="Réteg_2">
        <g id="Réteg_1">
          <line class="cls-3" x1="91.72" y1="78.03" x2="91.72" y2="88.71"/>
          <line class="cls-3" x1="79.28" y1="85.19" x2="79.28" y2="96"/>
          <line class="cls-3" x1="66.82" y1="92.4" x2="66.82" y2="103.04"/>
          <line class="cls-3" x1="54.38" y1="99.61" x2="54.38" y2="110.13"/>
          <line class="cls-3" x1="42.11" y1="106.75" x2="42.11" y2="117.33"/>
          <line class="cls-3" x1="104.17" y1="81.53" x2="104.17" y2="69.95"/>
          <line class="cls-3" x1="116.62" y1="77.82" x2="116.62" y2="88.5"/>
          <line class="cls-3" x1="129.06" y1="84.98" x2="129.06" y2="95.79"/>
          <line class="cls-3" x1="141.51" y1="92.19" x2="141.51" y2="102.83"/>
          <line class="cls-3" x1="153.96" y1="99.41" x2="153.96" y2="109.93"/>
          <line class="cls-3" x1="166.23" y1="106.54" x2="166.23" y2="117.12"/>
          <g class="cls-6">
            <path class="cls-1" d="M30.9,113.35l73.39-42.64,73.87,42.64-73.39,42.65L30.9,113.35M180.45,112.93l-75.42-43.47c-.47-.24-1.02-.24-1.48,0L28.67,112.93c-.17.08-.29.24-.32.42.02.19.14.35.32.43l75.37,43.52c.23.12.49.18.75.18.26,0,.51-.06.74-.18l-.75-.43.75-.43-.75.43.75.43,74.92-43.52c.17-.08.29-.24.31-.43-.02-.19-.14-.35-.32-.42"/>
          </g>
          <g class="cls-4">
            <path class="cls-1" d="M31.43,117.43l73.39-42.65,73.87,42.65-73.39,42.64L31.43,117.43M180.92,116.99l-75.37-43.52c-.47-.24-1.02-.24-1.48,0L29.2,116.99c-.17.08-.29.24-.32.43.03.19.15.35.32.43l75.37,43.51c.23.12.49.19.75.19.26,0,.51-.07.74-.19l-.75-.43.75-.43-.75.43.75.43,74.88-43.52c.17-.08.28-.24.31-.43-.02-.19-.14-.36-.32-.43"/>
          </g>
          <g class="cls-5">
            <path class="cls-1" d="M31.01,121.58l73.39-42.65,73.87,42.65-73.39,42.65L31.01,121.58M180.5,121.15l-75.37-43.51c-.23-.12-.49-.19-.75-.19-.26,0-.51.07-.74.19L28.77,121.15c-.24.08-.37.33-.29.57.04.14.15.25.29.29l75.37,43.52c.47.24,1.02.24,1.48,0l-.75-.43.75-.43-.75.43.75.43,74.88-43.47c.17-.08.29-.24.32-.43-.03-.19-.15-.35-.32-.43"/>
          </g>
          <path d="M130.33,77.79l6.85,3.96c.36.65.75,1.26,1.13,1.93.22.37.51.81.76,1.26.03-.79.04-1.49.04-2.07l-8.78-5.08Z"/>
          <path class="cls-1" d="M141.19,81.85c.01.72.01,1.44,0,2.16v.06c0,1.27-.02,2.54-.02,3.81v.18c.28-.79.63-1.56,1.06-2.29.27-.54.56-1.06.87-1.59.4-.61.78-1.23,1.13-1.87l2.67-1.54c.07.04.16.06.26.07.31.02.62-.04.91-.16.99-.49,1.87-1.18,2.56-2.04.01-.01.02-.03.03-.04l2.05-1.19c-.4.65-.83,1.29-1.29,1.9-.67.92-1.49,1.72-2.43,2.36-1.02.44-2,.97-2.92,1.6-.63.63-1.2,1.31-1.71,2.05-.87,1.26-1.53,2.65-1.95,4.13-.43,1.32-.55,13.14-.78,17.88v1.18c-.01.07-.01.15,0,.22-.01.03-.01.07-.01.1s0,.06.01.09v.74c.04.25.14.48.29.69l.09.13c.07.08.14.15.22.22.04.04.09.09.13.14.03.03.06.07.08.11v.15s.01.1,0,.16c.01.07.01.14,0,.22v.08c-.58.62-1.43.92-2.27.81-.06.01-.13.01-.19.01-.77,0-1.49-.39-1.91-1.06-.01-.04-.01-.08-.01-.12,0-.03,0-.07.01-.11.06-.15.14-.3.23-.43l.2-.34c.04-.08.08-.17.12-.25.24-.58.29-13.2.38-21.62-.16-.45-.32-.9-.49-1.37-.76-2.31-2.12-4.38-3.92-6.01-.68-.43-1.38-.81-2.11-1.15-.42-.28-.81-.6-1.15-.98-.02-.02-.05-.04-.08-.06-.16-.19-.34-.38-.51-.58l-.29-.32-.08-.13s-.03-.04-.04-.06l-4.78-2.76,15.12,8.13.52-1.31Z"/>
          <polygon class="cls-3" points="141.19 84.07 125.55 75.04 125.55 51.92 141.19 60.94 141.19 84.07"/>
          <polyline class="cls-3" points="127.26 50.92 125.55 51.91 141.19 60.94 158.2 51.11 154.09 48.74"/>
          <polygon class="cls-3" points="141.19 84.07 158.2 74.25 158.2 51.12 141.19 60.94 141.19 84.07"/>
          <polygon class="cls-3" points="140.84 60.4 127.25 52.56 127.25 41.34 140.84 49.19 140.84 60.4"/>
          <polygon class="cls-3" points="140.84 49.19 127.25 41.34 140.5 33.7 154.09 41.54 140.84 49.19"/>
          <polygon class="cls-3" points="140.84 60.4 154.09 52.77 154.09 41.54 140.84 49.19 140.84 60.4"/>
          <path class="cls-1" d="M57.32,93.43s-.05.07-.08.11h0s-.01.02-.01.02c-.3.36-.64.67-1.02.94-.28.22-.59.4-.92.56-.22.1-.46.14-.7.13-.05,0-.1-.02-.14-.04l.1-2.65-.44-.25-1.74,4.1c-.26.47-.54.94-.84,1.39-.23.39-.46.79-.67,1.19-.32.56-.6,1.14-.83,1.74v-6.01l-1.73,2.04v1.55c-.19-.34-.41-.67-.57-.96-.32-.46-.62-.94-.89-1.43l-5.33-3.08s.07.08.1.12l.06.08.22.25.39.44h.05c.26.29.56.53.88.74.56.26,1.1.55,1.63.87.5.46.95.96,1.35,1.5.71.92,1.26,1.96,1.62,3.07l.37,1.05c-.06,6.31-.1,15.92-.29,16.37-.02.06-.05.12-.09.18-.04.09-.09.18-.14.26-.08.1-.13.21-.17.33-.01.02-.01.05-.01.08s0,.06.01.08c.32.48.86.76,1.44.76.04,0,.09-.01.14-.01.63.09,1.27-.14,1.71-.61v-.06c.01-.06.01-.11,0-.17.01-.04.01-.08,0-.12v-.06l-.06-.08-.11-.11c-.06-.05-.11-.11-.16-.17l-.07-.09c-.11-.16-.18-.34-.22-.53v-.55s-.01-.05-.01-.08c0-.02.01-.04.01-.07v-1.05c.17-3.6.26-12.55.6-13.54.31-1.13.8-2.19,1.46-3.16.38-.55.82-1.07,1.29-1.54.7-.48,1.44-.89,2.21-1.22.17-.11.33-.23.49-.36.52-.41.97-.89,1.35-1.42.25-.33.49-.66.71-1.01.03-.03.05-.07.07-.11l-1.02.59Z"/>
          <polygon class="cls-3" points="50.04 97.7 38.2 90.87 38.2 73.35 50.04 80.19 50.04 97.7"/>
          <polyline class="cls-3" points="41.87 71.23 38.2 73.35 50.03 80.19 62.92 72.75 62.19 72.33"/>
          <polyline class="cls-3" points="62.92 78.06 62.92 72.75 50.03 80.19 50.03 94.66 50.03 97.7 52.37 96.35 54.45 95.15 56.21 94.14 57.23 93.56 57.24 93.55 57.24 93.54 58.27 92.95 62.92 90.27 62.92 90.19"/>
          <polygon class="cls-3" points="52.17 78.19 41.87 72.25 41.87 63.76 52.17 69.7 52.17 78.19"/>
          <polygon class="cls-3" points="52.17 69.7 41.87 63.76 51.9 57.98 62.2 63.91 52.17 69.7"/>
          <polygon class="cls-3" points="52.17 78.19 62.2 72.41 62.2 63.91 52.17 69.7 52.17 78.19"/>
          <polygon class="cls-3" points="56.74 93.77 53.58 91.94 53.58 83.45 56.74 85.27 56.74 93.77"/>
          <polygon class="cls-3" points="56.74 85.27 53.58 83.45 63.61 77.67 66.77 79.49 56.74 85.27"/>
          <polygon class="cls-3" points="56.74 93.77 66.77 87.97 66.77 79.49 56.74 85.27 56.74 93.77"/>
          <line class="cls-3" x1="29.44" y1="113.37" x2="29.44" y2="124.94"/>
          <line class="cls-3" x1="104.53" y1="156.49" x2="104.53" y2="168.06"/>
          <line class="cls-3" x1="42.29" y1="121.23" x2="42.29" y2="131.91"/>
          <line class="cls-3" x1="54.75" y1="128.39" x2="54.75" y2="139.2"/>
          <line class="cls-3" x1="67.19" y1="135.6" x2="67.19" y2="146.24"/>
          <line class="cls-3" x1="79.64" y1="142.82" x2="79.64" y2="153.34"/>
          <line class="cls-3" x1="91.91" y1="149.95" x2="91.91" y2="160.53"/>
          <line class="cls-3" x1="179.7" y1="113.84" x2="179.7" y2="124.43"/>
          <line class="cls-3" x1="104.53" y1="156.69" x2="104.53" y2="168.26"/>
          <line class="cls-3" x1="166.77" y1="121.44" x2="166.77" y2="132.12"/>
          <line class="cls-3" x1="154.32" y1="128.6" x2="154.32" y2="139.41"/>
          <line class="cls-3" x1="141.87" y1="135.81" x2="141.87" y2="146.45"/>
          <line class="cls-3" x1="129.43" y1="143.02" x2="129.43" y2="153.54"/>
          <line class="cls-3" x1="117.16" y1="150.16" x2="117.16" y2="160.74"/>
        </g>
      </g>
    </g>
  </g>
</svg>