<?xml version="1.0" encoding="UTF-8"?>
<svg id="Réteg_2" xmlns="http://www.w3.org/2000/svg" viewBox="0 0 231.15 336.8">
  <defs>
    <style>
      .cls-1 {
        stroke-dasharray: 4.72 4.72;
      }

      .cls-1, .cls-2, .cls-3, .cls-4, .cls-5, .cls-6 {
        fill: none;
        stroke-linecap: round;
        stroke-linejoin: round;
        stroke-width: 2px;
      }

      .cls-1, .cls-2, .cls-4, .cls-5, .cls-6 {
        stroke: #f7c82a;
      }

      .cls-2 {
        stroke-dasharray: 4.72 4.72;
      }

      .cls-3 {
        stroke: #fff;
      }

      .cls-4 {
        stroke-dasharray: 5.19 5.19;
      }

      .cls-5 {
        stroke-dasharray: 5.19 5.19;
      }
    </style>
  </defs>
  <g id="Réteg_1">
    <g>
      <polygon class="cls-3" points="6.18 242.51 71.77 204.64 71.77 297.92 6.18 335.8 6.18 242.51"/>
      <line class="cls-3" x1="28.04" y1="323.17" x2="28.04" y2="229.89"/>
      <line class="cls-3" x1="49.91" y1="310.55" x2="49.91" y2="217.26"/>
      <line class="cls-3" x1="6.18" y1="289.88" x2="71.77" y2="252.01"/>
      <line class="cls-3" x1="6.18" y1="335.8" x2="71.77" y2="297.92"/>
      <line class="cls-3" x1="6.18" y1="315.12" x2="71.77" y2="277.24"/>
      <line class="cls-3" x1="6.18" y1="266.96" x2="71.77" y2="229.09"/>
      <line class="cls-3" x1="6.18" y1="242.51" x2="71.77" y2="204.64"/>
      <polyline class="cls-3" points="66.59 201.66 1 239.53 1 332.82"/>
      <line class="cls-3" x1="6.18" y1="242.51" x2="1" y2="239.53"/>
      <line class="cls-3" x1="6.18" y1="335.8" x2="1" y2="332.82"/>
      <line class="cls-3" x1="71.77" y1="204.66" x2="66.6" y2="201.66"/>
      <polygon class="cls-3" points="6.18 134.02 71.77 96.15 71.77 189.44 6.18 227.31 6.18 134.02"/>
      <line class="cls-3" x1="28.04" y1="214.68" x2="28.04" y2="121.4"/>
      <line class="cls-3" x1="49.91" y1="202.06" x2="49.91" y2="108.77"/>
      <line class="cls-3" x1="6.18" y1="181.39" x2="71.77" y2="143.52"/>
      <line class="cls-3" x1="6.18" y1="227.31" x2="71.77" y2="189.44"/>
      <line class="cls-3" x1="6.18" y1="206.63" x2="71.77" y2="168.76"/>
      <line class="cls-3" x1="6.18" y1="158.47" x2="71.77" y2="120.6"/>
      <line class="cls-3" x1="6.18" y1="134.02" x2="71.77" y2="96.15"/>
      <polyline class="cls-3" points="66.59 93.17 1 131.04 1 224.33"/>
      <line class="cls-3" x1="6.18" y1="134.02" x2="1" y2="131.04"/>
      <line class="cls-3" x1="6.18" y1="227.31" x2="1" y2="224.33"/>
      <line class="cls-3" x1="71.77" y1="96.17" x2="66.6" y2="93.17"/>
      <polygon class="cls-3" points="85.62 196.07 151.21 158.2 151.21 251.48 85.62 289.35 85.62 196.07"/>
      <line class="cls-3" x1="107.48" y1="276.73" x2="107.48" y2="183.44"/>
      <line class="cls-3" x1="129.35" y1="264.11" x2="129.35" y2="170.82"/>
      <line class="cls-3" x1="85.62" y1="243.44" x2="151.21" y2="205.57"/>
      <line class="cls-3" x1="85.62" y1="289.35" x2="151.21" y2="251.48"/>
      <line class="cls-3" x1="85.62" y1="268.67" x2="151.21" y2="230.8"/>
      <line class="cls-3" x1="85.62" y1="220.52" x2="151.21" y2="182.64"/>
      <line class="cls-3" x1="85.62" y1="196.07" x2="151.21" y2="158.2"/>
      <polyline class="cls-3" points="146.03 155.22 80.44 193.09 80.44 286.38"/>
      <line class="cls-3" x1="85.62" y1="196.07" x2="80.44" y2="193.09"/>
      <line class="cls-3" x1="85.62" y1="289.35" x2="80.44" y2="286.37"/>
      <line class="cls-3" x1="151.21" y1="158.21" x2="146.04" y2="155.22"/>
      <polygon class="cls-3" points="85.62 87.58 151.21 49.71 151.21 142.99 85.62 180.87 85.62 87.58"/>
      <line class="cls-3" x1="107.48" y1="168.24" x2="107.48" y2="74.95"/>
      <line class="cls-3" x1="129.35" y1="155.62" x2="129.35" y2="62.33"/>
      <line class="cls-3" x1="85.62" y1="134.95" x2="151.21" y2="97.08"/>
      <line class="cls-3" x1="85.62" y1="180.87" x2="151.21" y2="142.99"/>
      <line class="cls-3" x1="85.62" y1="160.19" x2="151.21" y2="122.31"/>
      <line class="cls-3" x1="85.62" y1="112.03" x2="151.21" y2="74.16"/>
      <line class="cls-3" x1="85.62" y1="87.58" x2="151.21" y2="49.71"/>
      <polyline class="cls-3" points="146.03 46.73 80.44 84.6 80.44 177.89"/>
      <line class="cls-3" x1="85.62" y1="87.58" x2="80.44" y2="84.6"/>
      <line class="cls-3" x1="85.62" y1="180.87" x2="80.44" y2="177.89"/>
      <line class="cls-3" x1="151.21" y1="49.73" x2="146.04" y2="46.73"/>
      <g>
        <polyline class="cls-6" points="164.55 152.84 164.55 150.34 166.72 149.09"/>
        <line class="cls-1" x1="170.8" y1="146.73" x2="225.94" y2="114.9"/>
        <polyline class="cls-6" points="227.98 113.72 230.15 112.47 230.15 114.97"/>
        <line class="cls-4" x1="230.15" y1="120.16" x2="230.15" y2="200.66"/>
        <polyline class="cls-6" points="230.15 203.25 230.15 205.75 227.98 207"/>
        <line class="cls-1" x1="223.9" y1="209.36" x2="168.76" y2="241.2"/>
        <polyline class="cls-6" points="166.72 242.38 164.55 243.63 164.55 241.13"/>
        <line class="cls-4" x1="164.55" y1="235.93" x2="164.55" y2="155.44"/>
      </g>
      <g>
        <line class="cls-6" x1="186.42" y1="231" x2="186.42" y2="228.5"/>
        <line class="cls-4" x1="186.42" y1="223.31" x2="186.42" y2="142.81"/>
        <line class="cls-6" x1="186.42" y1="140.22" x2="186.42" y2="137.72"/>
      </g>
      <g>
        <line class="cls-6" x1="208.28" y1="218.38" x2="208.28" y2="215.88"/>
        <line class="cls-4" x1="208.28" y1="210.69" x2="208.28" y2="130.19"/>
        <line class="cls-6" x1="208.28" y1="127.59" x2="208.28" y2="125.09"/>
      </g>
      <g>
        <line class="cls-6" x1="164.55" y1="197.71" x2="166.72" y2="196.46"/>
        <line class="cls-1" x1="170.8" y1="194.1" x2="225.94" y2="162.27"/>
        <line class="cls-6" x1="227.98" y1="161.09" x2="230.15" y2="159.84"/>
      </g>
      <g>
        <line class="cls-6" x1="164.55" y1="243.63" x2="166.72" y2="242.38"/>
        <line class="cls-1" x1="170.8" y1="240.02" x2="225.94" y2="208.18"/>
        <line class="cls-6" x1="227.98" y1="207" x2="230.15" y2="205.75"/>
      </g>
      <g>
        <line class="cls-6" x1="164.55" y1="222.95" x2="166.72" y2="221.7"/>
        <line class="cls-1" x1="170.8" y1="219.34" x2="225.94" y2="187.5"/>
        <line class="cls-6" x1="227.98" y1="186.32" x2="230.15" y2="185.07"/>
      </g>
      <g>
        <line class="cls-6" x1="164.55" y1="174.79" x2="166.72" y2="173.54"/>
        <line class="cls-1" x1="170.8" y1="171.18" x2="225.94" y2="139.35"/>
        <line class="cls-6" x1="227.98" y1="138.17" x2="230.15" y2="136.92"/>
      </g>
      <g>
        <line class="cls-6" x1="164.55" y1="150.34" x2="166.72" y2="149.09"/>
        <line class="cls-1" x1="170.8" y1="146.73" x2="225.94" y2="114.9"/>
        <line class="cls-6" x1="227.98" y1="113.72" x2="230.15" y2="112.47"/>
      </g>
      <g>
        <line class="cls-6" x1="224.97" y1="109.49" x2="222.8" y2="110.74"/>
        <line class="cls-2" x1="218.72" y1="113.1" x2="163.58" y2="144.93"/>
        <polyline class="cls-6" points="161.54 146.11 159.38 147.36 159.38 149.86"/>
        <line class="cls-5" x1="159.38" y1="155.05" x2="159.38" y2="235.55"/>
        <line class="cls-6" x1="159.38" y1="238.15" x2="159.38" y2="240.65"/>
      </g>
      <g>
        <line class="cls-6" x1="164.55" y1="150.34" x2="162.38" y2="149.09"/>
        <line class="cls-6" x1="161.54" y1="148.61" x2="159.38" y2="147.36"/>
      </g>
      <g>
        <line class="cls-6" x1="164.55" y1="243.63" x2="162.38" y2="242.38"/>
        <line class="cls-6" x1="161.54" y1="241.89" x2="159.38" y2="240.65"/>
      </g>
      <g>
        <line class="cls-6" x1="230.15" y1="112.49" x2="227.98" y2="111.23"/>
        <line class="cls-6" x1="227.13" y1="110.74" x2="224.97" y2="109.49"/>
      </g>
      <g>
        <polyline class="cls-6" points="164.55 44.35 164.55 41.85 166.72 40.6"/>
        <line class="cls-1" x1="170.8" y1="38.24" x2="225.94" y2="6.41"/>
        <polyline class="cls-6" points="227.98 5.23 230.15 3.98 230.15 6.48"/>
        <line class="cls-4" x1="230.15" y1="11.67" x2="230.15" y2="92.17"/>
        <polyline class="cls-6" points="230.15 94.77 230.15 97.27 227.98 98.52"/>
        <line class="cls-1" x1="223.9" y1="100.87" x2="168.76" y2="132.71"/>
        <polyline class="cls-6" points="166.72 133.89 164.55 135.14 164.55 132.64"/>
        <line class="cls-4" x1="164.55" y1="127.44" x2="164.55" y2="46.95"/>
      </g>
      <g>
        <line class="cls-6" x1="186.42" y1="122.51" x2="186.42" y2="120.01"/>
        <line class="cls-4" x1="186.42" y1="114.82" x2="186.42" y2="34.32"/>
        <line class="cls-6" x1="186.42" y1="31.73" x2="186.42" y2="29.23"/>
      </g>
      <g>
        <line class="cls-6" x1="208.28" y1="109.89" x2="208.28" y2="107.39"/>
        <line class="cls-4" x1="208.28" y1="102.2" x2="208.28" y2="21.7"/>
        <line class="cls-6" x1="208.28" y1="19.1" x2="208.28" y2="16.6"/>
      </g>
      <g>
        <line class="cls-6" x1="164.55" y1="89.22" x2="166.72" y2="87.97"/>
        <line class="cls-1" x1="170.8" y1="85.61" x2="225.94" y2="53.78"/>
        <line class="cls-6" x1="227.98" y1="52.6" x2="230.15" y2="51.35"/>
      </g>
      <g>
        <line class="cls-6" x1="164.55" y1="135.14" x2="166.72" y2="133.89"/>
        <line class="cls-1" x1="170.8" y1="131.53" x2="225.94" y2="99.7"/>
        <line class="cls-6" x1="227.98" y1="98.52" x2="230.15" y2="97.27"/>
      </g>
      <g>
        <line class="cls-6" x1="164.55" y1="114.46" x2="166.72" y2="113.21"/>
        <line class="cls-1" x1="170.8" y1="110.85" x2="225.94" y2="79.02"/>
        <line class="cls-6" x1="227.98" y1="77.84" x2="230.15" y2="76.59"/>
      </g>
      <g>
        <line class="cls-6" x1="164.55" y1="66.3" x2="166.72" y2="65.05"/>
        <line class="cls-1" x1="170.8" y1="62.69" x2="225.94" y2="30.86"/>
        <line class="cls-6" x1="227.98" y1="29.68" x2="230.15" y2="28.43"/>
      </g>
      <g>
        <line class="cls-6" x1="164.55" y1="41.85" x2="166.72" y2="40.6"/>
        <line class="cls-1" x1="170.8" y1="38.24" x2="225.94" y2="6.41"/>
        <line class="cls-6" x1="227.98" y1="5.23" x2="230.15" y2="3.98"/>
      </g>
      <g>
        <line class="cls-6" x1="224.97" y1="1" x2="222.8" y2="2.25"/>
        <line class="cls-2" x1="218.72" y1="4.61" x2="163.58" y2="36.44"/>
        <polyline class="cls-6" points="161.54 37.62 159.38 38.87 159.38 41.37"/>
        <line class="cls-5" x1="159.38" y1="46.57" x2="159.38" y2="127.07"/>
        <line class="cls-6" x1="159.38" y1="129.66" x2="159.38" y2="132.16"/>
      </g>
      <g>
        <line class="cls-6" x1="164.55" y1="41.85" x2="162.38" y2="40.6"/>
        <line class="cls-6" x1="161.54" y1="40.12" x2="159.38" y2="38.87"/>
      </g>
      <g>
        <line class="cls-6" x1="164.55" y1="135.14" x2="162.38" y2="133.89"/>
        <line class="cls-6" x1="161.54" y1="133.41" x2="159.38" y2="132.16"/>
      </g>
      <g>
        <line class="cls-6" x1="230.15" y1="4" x2="227.98" y2="2.75"/>
        <line class="cls-6" x1="227.13" y1="2.25" x2="224.97" y2="1"/>
      </g>
    </g>
  </g>
</svg>